<svg width="14" height="15" viewBox="0 0 14 15" fill="none" xmlns="http://www.w3.org/2000/svg">
<path d="M3.0625 13.1875H10.9375" stroke="#CCCCCC" stroke-linecap="round" stroke-linejoin="round"/>
<path d="M7 7.9375C7.9665 7.9375 8.75 7.154 8.75 6.1875C8.75 5.221 7.9665 4.4375 7 4.4375C6.0335 4.4375 5.25 5.221 5.25 6.1875C5.25 7.154 6.0335 7.9375 7 7.9375Z" stroke="#CCCCCC" stroke-linecap="round" stroke-linejoin="round"/>
<path d="M11.375 6.1875C11.375 10.125 7 13.1875 7 13.1875C7 13.1875 2.625 10.125 2.625 6.1875C2.625 5.02718 3.08594 3.91438 3.90641 3.09391C4.72688 2.27344 5.83968 1.8125 7 1.8125C8.16032 1.8125 9.27312 2.27344 10.0936 3.09391C10.9141 3.91438 11.375 5.02718 11.375 6.1875V6.1875Z" stroke="#CCCCCC" stroke-linecap="round" stroke-linejoin="round"/>
</svg>
