<svg width="23" height="23" viewBox="0 0 23 23" fill="none" xmlns="http://www.w3.org/2000/svg">
<path d="M0 11.1932C0 5.01136 5.01136 0 11.1932 0C17.375 0 22.3864 5.01136 22.3864 11.1932C22.3864 17.375 17.375 22.3864 11.1932 22.3864C5.01136 22.3864 0 17.375 0 11.1932Z" fill="#453898"/>
<path d="M14.9094 5.00058C14.891 4.95206 14.8551 4.91215 14.8088 4.88863C14.7624 4.86511 14.709 4.85968 14.6588 4.8734C11.9202 5.59424 11.4766 6.2011 11.4236 6.31031L11.4061 6.35818L11.1977 7.08338L10.7746 6.76491C10.7447 6.74316 10.7096 6.72969 10.6729 6.72589C10.6361 6.72209 10.5989 6.72808 10.5652 6.74327C9.80214 7.09975 9.1701 7.68599 8.75818 8.41935C8.74002 8.45579 8.73292 8.49672 8.73777 8.5371L8.93141 10.0355C8.71678 9.86269 8.51351 9.67627 8.32284 9.47742C8.29888 9.45222 8.26898 9.43339 8.23585 9.42266C8.20273 9.41193 8.16743 9.40963 8.13316 9.41597C8.09854 9.4228 8.06616 9.43809 8.0389 9.46047C8.01164 9.48285 7.99037 9.51161 7.97697 9.54419C7.94388 9.63079 7.17982 11.6277 8.23646 12.856C7.89377 13.872 7.36249 15.3962 7.27935 15.5869C7.25015 15.6287 7.23759 15.6798 7.24413 15.7302L7.45184 17.3458C7.45784 17.3873 7.47622 17.426 7.50458 17.4568C7.53294 17.4877 7.56997 17.5093 7.61085 17.5188C7.65173 17.5284 7.69456 17.5254 7.73376 17.5104C7.77296 17.4953 7.80673 17.4688 7.83065 17.4343L8.80002 16.0259L8.81859 15.982L9.0279 15.438C9.2068 14.9582 9.40591 14.473 9.61818 13.9238C10.612 11.2473 12.1038 8.78159 14.015 6.65667L14.3198 6.93775C12.4502 9.01647 10.9956 11.4319 10.0342 14.0542C11.637 14.4279 13.0898 12.8036 13.1423 12.7247C13.1677 12.6955 13.1843 12.6597 13.1902 12.6214C13.196 12.5831 13.1909 12.544 13.1753 12.5086L12.6928 11.4028L13.4195 11.7393C13.4554 11.7558 13.4953 11.7619 13.5346 11.7567C13.5738 11.7515 13.6108 11.7354 13.6412 11.7101C14.2657 11.18 14.5808 9.96415 14.5932 9.91333C14.5997 9.88212 14.5987 9.84983 14.5905 9.81904C14.5822 9.78826 14.5669 9.75984 14.5457 9.73605L13.9378 8.97046L14.6408 8.78209C14.6794 8.77293 14.7146 8.75301 14.7423 8.72465C15.8002 7.51706 14.9455 5.10318 14.9094 5.00058Z" fill="white"/>
</svg>
