<svg width="14" height="15" viewBox="0 0 14 15" fill="none" xmlns="http://www.w3.org/2000/svg">
<path d="M5.09518 7.21743C4.75792 6.37621 4.72146 5.44434 4.99196 4.57934C5.26245 3.71434 5.82331 2.96927 6.57974 2.47006C7.33617 1.97084 8.24176 1.74812 9.14345 1.83952C10.0451 1.93093 10.8876 2.33086 11.5285 2.97172C12.1693 3.61257 12.5692 4.45505 12.6606 5.35673C12.7521 6.25842 12.5293 7.16401 12.0301 7.92044C11.5309 8.67686 10.7858 9.23772 9.92082 9.50822C9.05581 9.77871 8.12395 9.74224 7.28273 9.40498L7.28276 9.4049L6.56265 10.125H5.25015V11.4375H3.93765V12.75H1.75015V10.5625L5.09528 7.21739L5.09518 7.21743Z" stroke="#CCCCCC" stroke-linecap="round" stroke-linejoin="round"/>
<path opacity="0.5" d="M9.84375 4.875C9.96456 4.875 10.0625 4.77706 10.0625 4.65625C10.0625 4.53544 9.96456 4.4375 9.84375 4.4375C9.72294 4.4375 9.625 4.53544 9.625 4.65625C9.625 4.77706 9.72294 4.875 9.84375 4.875Z" stroke="#CCCCCC" stroke-linecap="round" stroke-linejoin="round"/>
<path d="M9.84375 5.3125C10.2062 5.3125 10.5 5.01869 10.5 4.65625C10.5 4.29381 10.2062 4 9.84375 4C9.48131 4 9.1875 4.29381 9.1875 4.65625C9.1875 5.01869 9.48131 5.3125 9.84375 5.3125Z" fill="#CCCCCC"/>
</svg>
