<svg width="46" height="32" viewBox="0 0 46 32" fill="none" xmlns="http://www.w3.org/2000/svg">
<path d="M15.1 28.24C14.8067 28.4933 14.5 28.7333 14.18 28.96C13.86 29.2 13.5267 29.4133 13.18 29.6C12.8333 29.7866 12.48 29.9333 12.12 30.04C11.7733 30.1466 11.42 30.2 11.06 30.2C10.4467 30.2 9.85333 30.0866 9.28 29.86C8.70667 29.6466 8.11333 29.3933 7.5 29.1C6.9 28.82 6.25333 28.5466 5.56 28.28C4.88 28.0133 4.12 27.8266 3.28 27.72L3.96 26.84C4.62667 26.72 5.26 26.6866 5.86 26.74C6.47333 26.8066 7.06667 26.9066 7.64 27.04C8.21333 27.1866 8.78 27.3466 9.34 27.52C9.91333 27.6933 10.4933 27.8333 11.08 27.94C11.68 28.0466 12.3 28.0933 12.94 28.08C13.58 28.08 14.2667 27.9666 15 27.74L15.1 28.24ZM1.18 20.58C1.18 19.3533 1.36667 18.2066 1.74 17.14C2.12667 16.06 2.67333 15.1266 3.38 14.34C4.1 13.54 4.97333 12.9133 6 12.46C7.04 11.9933 8.21333 11.76 9.52 11.76C10.4133 11.76 11.2067 11.8933 11.9 12.16C12.5933 12.4133 13.18 12.7866 13.66 13.28C14.14 13.76 14.5 14.3466 14.74 15.04C14.9933 15.7333 15.12 16.5133 15.12 17.38C15.12 18.4733 14.9533 19.5533 14.62 20.62C14.2867 21.6733 13.78 22.62 13.1 23.46C12.42 24.2866 11.5667 24.96 10.54 25.48C9.52667 25.9866 8.33333 26.24 6.96 26.24C6.04 26.24 5.22 26.1 4.5 25.82C3.78 25.5266 3.17333 25.1266 2.68 24.62C2.18667 24.1133 1.81333 23.5133 1.56 22.82C1.30667 22.1266 1.18 21.38 1.18 20.58ZM4.58 20.96C4.58 22.2933 4.82667 23.2933 5.32 23.96C5.82667 24.6133 6.50667 24.94 7.36 24.94C8.12 24.94 8.77333 24.6933 9.32 24.2C9.86667 23.7066 10.32 23.08 10.68 22.32C11.04 21.5466 11.3 20.6866 11.46 19.74C11.6333 18.78 11.72 17.84 11.72 16.92C11.72 15.7333 11.5133 14.7933 11.1 14.1C10.7 13.4066 10.0333 13.06 9.1 13.06C8.58 13.06 8.10667 13.18 7.68 13.42C7.26667 13.6466 6.88667 13.96 6.54 14.36C6.20667 14.76 5.91333 15.2266 5.66 15.76C5.42 16.28 5.22 16.8333 5.06 17.42C4.9 18.0066 4.78 18.6066 4.7 19.22C4.62 19.82 4.58 20.4 4.58 20.96ZM26.3106 24.62V25.3C26.1773 25.4066 25.9973 25.5133 25.7706 25.62C25.5573 25.7266 25.3173 25.82 25.0506 25.9C24.7973 25.98 24.524 26.0466 24.2306 26.1C23.9506 26.1533 23.6706 26.18 23.3906 26.18C22.9106 26.18 22.5773 26.0866 22.3906 25.9C22.2173 25.7 22.1306 25.4933 22.1306 25.28C22.1306 25.04 22.1573 24.7066 22.2106 24.28C22.264 23.8533 22.3706 23.36 22.5306 22.8H22.4506C22.2773 23.12 22.0573 23.48 21.7906 23.88C21.524 24.28 21.2106 24.66 20.8506 25.02C20.4906 25.3666 20.0773 25.66 19.6106 25.9C19.144 26.1266 18.6306 26.24 18.0706 26.24C17.524 26.24 17.0773 26.08 16.7306 25.76C16.3973 25.4266 16.2306 24.96 16.2306 24.36C16.2306 24.0666 16.2706 23.6466 16.3506 23.1C16.444 22.5533 16.5506 21.96 16.6706 21.32C16.804 20.6666 16.944 20 17.0906 19.32C17.2506 18.6266 17.3906 17.9933 17.5106 17.42L16.3306 17.16V16.48C16.544 16.4 16.8106 16.32 17.1306 16.24C17.4506 16.16 17.784 16.0866 18.1306 16.02C18.4773 15.9533 18.8306 15.9 19.1906 15.86C19.5506 15.8066 19.8773 15.7733 20.1706 15.76L20.6106 16C20.3973 17 20.1773 17.9533 19.9506 18.86C19.7373 19.7533 19.5373 20.7 19.3506 21.7C19.284 22.02 19.2106 22.3733 19.1306 22.76C19.064 23.1466 19.0306 23.5333 19.0306 23.92C19.0306 24.16 19.0906 24.34 19.2106 24.46C19.344 24.58 19.504 24.64 19.6906 24.64C20.024 24.64 20.3506 24.5133 20.6706 24.26C21.004 23.9933 21.304 23.68 21.5706 23.32C21.8506 22.9466 22.0906 22.5666 22.2906 22.18C22.504 21.7933 22.6573 21.4733 22.7506 21.22L23.7906 16H26.4906L24.9106 24.62H26.3106ZM28.2698 17.16V16.48C28.4698 16.4 28.7365 16.32 29.0698 16.24C29.4032 16.1466 29.7565 16.0666 30.1298 16C30.5032 15.9333 30.8698 15.88 31.2298 15.84C31.6032 15.7866 31.9298 15.76 32.2098 15.76L32.5698 16L30.7698 24.62H32.1698V25.3C31.9965 25.42 31.7898 25.5333 31.5498 25.64C31.3232 25.7466 31.0765 25.84 30.8098 25.92C30.5565 26 30.2965 26.06 30.0298 26.1C29.7632 26.1533 29.5098 26.18 29.2698 26.18C28.7632 26.18 28.4098 26.0866 28.2098 25.9C28.0232 25.7 27.9298 25.4866 27.9298 25.26C27.9298 24.9933 27.9498 24.7333 27.9898 24.48C28.0298 24.2266 28.0832 23.9466 28.1498 23.64L29.5098 17.44L28.2698 17.16ZM29.9298 12.66C29.9298 12.2066 30.0832 11.8533 30.3898 11.6C30.6965 11.3466 31.0832 11.22 31.5498 11.22C32.0565 11.22 32.4565 11.3466 32.7498 11.6C33.0565 11.8533 33.2098 12.2066 33.2098 12.66C33.2098 13.0866 33.0565 13.4266 32.7498 13.68C32.4565 13.9333 32.0565 14.06 31.5498 14.06C31.0832 14.06 30.6965 13.9333 30.3898 13.68C30.0832 13.4266 29.9298 13.0866 29.9298 12.66ZM36.2241 12.62L34.8641 12.36V11.68C35.0507 11.6 35.3041 11.52 35.6241 11.44C35.9441 11.36 36.2907 11.2866 36.6641 11.22C37.0374 11.14 37.4174 11.08 37.8041 11.04C38.2041 10.9866 38.5707 10.96 38.9041 10.96L39.3041 11.18L36.6841 24.62H38.1041V25.3C37.9707 25.4066 37.7907 25.5133 37.5641 25.62C37.3374 25.7266 37.0841 25.82 36.8041 25.9C36.5374 25.98 36.2574 26.0466 35.9641 26.1C35.6707 26.1533 35.3907 26.18 35.1241 26.18C34.6707 26.18 34.3374 26.0866 34.1241 25.9C33.9241 25.7 33.8241 25.4866 33.8241 25.26C33.8241 24.9933 33.8441 24.7333 33.8841 24.48C33.9241 24.2266 33.9774 23.9466 34.0441 23.64L36.2241 12.62ZM42.2006 12.62L40.8406 12.36V11.68C41.0273 11.6 41.2806 11.52 41.6006 11.44C41.9206 11.36 42.2673 11.2866 42.6406 11.22C43.014 11.14 43.394 11.08 43.7806 11.04C44.1806 10.9866 44.5473 10.96 44.8806 10.96L45.2806 11.18L42.6606 24.62H44.0806V25.3C43.9473 25.4066 43.7673 25.5133 43.5406 25.62C43.314 25.7266 43.0606 25.82 42.7806 25.9C42.514 25.98 42.234 26.0466 41.9406 26.1C41.6473 26.1533 41.3673 26.18 41.1006 26.18C40.6473 26.18 40.314 26.0866 40.1006 25.9C39.9006 25.7 39.8006 25.4866 39.8006 25.26C39.8006 24.9933 39.8206 24.7333 39.8606 24.48C39.9006 24.2266 39.954 23.9466 40.0206 23.64L42.2006 12.62Z" fill="#453898"/>
<path opacity="0.75" d="M31.8296 0.254185C31.8044 0.187712 31.7553 0.133027 31.6918 0.100807C31.6283 0.0685878 31.555 0.0611479 31.4863 0.0799407C27.7344 1.06751 27.1265 1.89894 27.0539 2.04856L27.03 2.11414L26.7444 3.1077L26.1647 2.67138C26.1239 2.64158 26.0758 2.62313 26.0254 2.61792C25.975 2.61272 25.9242 2.62093 25.878 2.64173C24.8325 3.13013 23.9666 3.93329 23.4022 4.93803C23.3774 4.98795 23.3676 5.04403 23.3743 5.09935L23.6396 7.15226C23.3455 6.91546 23.067 6.66005 22.8058 6.38763C22.773 6.35309 22.732 6.3273 22.6866 6.3126C22.6412 6.2979 22.5929 6.29474 22.5459 6.30343C22.4985 6.3128 22.4541 6.33374 22.4168 6.3644C22.3795 6.39506 22.3503 6.43447 22.332 6.47909C22.2866 6.59774 21.2398 9.33355 22.6875 11.0164C22.218 12.4083 21.4901 14.4966 21.3762 14.7579C21.3362 14.8151 21.319 14.8851 21.3279 14.9542L21.6125 17.1676C21.6207 17.2244 21.6459 17.2774 21.6848 17.3197C21.7236 17.362 21.7744 17.3916 21.8304 17.4047C21.8864 17.4177 21.945 17.4137 21.9987 17.3931C22.0525 17.3724 22.0987 17.3361 22.1315 17.2889L23.4596 15.3593L23.485 15.2992L23.7718 14.5538C24.0169 13.8965 24.2896 13.2317 24.5805 12.4794C25.942 8.81238 27.9858 5.43431 30.6043 2.52309L31.0219 2.90817C28.4605 5.75611 26.4676 9.06539 25.1504 12.658C27.3463 13.17 29.3367 10.9446 29.4086 10.8366C29.4435 10.7965 29.4663 10.7474 29.4743 10.695C29.4823 10.6426 29.4752 10.589 29.4539 10.5405L28.7928 9.02549L29.7885 9.48643C29.8377 9.50912 29.8923 9.51741 29.9461 9.51033C29.9999 9.50326 30.0505 9.48111 30.0922 9.44646C30.9477 8.72024 31.3795 7.05446 31.3964 6.98484C31.4053 6.94207 31.404 6.89783 31.3927 6.85566C31.3814 6.81349 31.3604 6.77455 31.3313 6.74195L30.4985 5.69307L31.4617 5.43499C31.5146 5.42245 31.5628 5.39515 31.6008 5.3563C33.05 3.70186 31.8791 0.394742 31.8296 0.254185Z" fill="#453898"/>
</svg>