<svg width="100" height="35" viewBox="0 0 100 35" fill="none" xmlns="http://www.w3.org/2000/svg">
<g clip-path="url(#clip0_265_6367)">
<path d="M42.8636 28.2777C40.3091 28.3434 38.1407 26.4795 37.9838 23.7804C28.5628 23.0838 29.1934 6.09463 38.8808 6.55256C48.4602 6.00438 49.2054 22.9525 39.9376 23.7647C40.1624 26.6287 44.211 26.8927 45.667 24.9357L46.4443 26.9673C45.5824 27.8929 44.1299 28.2807 42.8636 28.2777ZM38.8808 8.55511C31.5238 8.23589 31.5238 22.1396 38.8808 21.8204C46.2604 22.1455 46.2604 8.23067 38.8808 8.55511Z" fill="#002978"/>
<path d="M57.1324 23.7751C55.3151 23.7751 53.8758 23.2896 52.854 22.3327C51.8322 21.3758 51.2979 19.9669 51.2979 18.1739V9.20166H53.3525V18.0293C53.3525 19.2972 53.6729 20.2563 54.3013 20.888C54.9297 21.5197 55.8873 21.8442 57.1295 21.8442C58.3717 21.8442 59.3191 21.5234 59.9446 20.8895C60.57 20.2555 60.8868 19.2957 60.8868 18.0293V9.20166H62.9406V18.1739C62.9406 19.9639 62.4217 21.3646 61.3977 22.3312C60.3737 23.2978 58.9505 23.7751 57.1324 23.7751Z" fill="#002978"/>
<path d="M69.8122 9.20166H67.7584V23.5827H69.8122V9.20166Z" fill="#002978"/>
<path d="M74.6279 23.5819V9.20166H76.6817V21.6517H84.9065V23.5819H74.6279Z" fill="#002978"/>
<path d="M89.7214 23.5819V9.20166H91.776V21.6517H100V23.5819H89.7214Z" fill="#002978"/>
<g clip-path="url(#clip1_265_6367)">
<path d="M24.4391 16.0715C21.039 12.4553 19.1489 7.6995 19.1487 2.76049V1.89444C19.1491 1.78845 19.1171 1.68482 19.057 1.59709C18.9969 1.50935 18.9114 1.44159 18.8118 1.40264C14.7818 -0.1648 10.3059 -0.188695 6.25901 1.33563C6.1616 1.37337 6.07763 1.43872 6.01759 1.52348C5.95756 1.60823 5.92413 1.70863 5.92151 1.8121L11.1165 11.9866C11.3814 11.8085 11.6803 11.6859 11.9948 11.6264C12.3094 11.5669 12.6329 11.5717 12.9454 11.6406C13.258 11.7095 13.553 11.841 13.8123 12.027C14.0715 12.213 14.2896 12.4495 14.4529 12.7221C14.6163 12.9946 14.7216 13.2973 14.7622 13.6116C14.8028 13.9259 14.778 14.2451 14.6892 14.5495C14.6005 14.8539 14.4496 15.1371 14.246 15.3817C14.0424 15.6263 13.7904 15.827 13.5054 15.9716C13.4093 16.019 13.3283 16.0919 13.2716 16.1821C13.2148 16.2723 13.1845 16.3764 13.184 16.4827V33.9831C13.184 34.0512 13.1981 34.1185 13.2256 34.181C13.2531 34.2434 13.2933 34.2995 13.3438 34.3458C13.3942 34.3921 13.4538 34.4277 13.5187 34.4502C13.5837 34.4727 13.6526 34.4817 13.7212 34.4766H13.727C13.8258 34.4693 13.9202 34.4333 13.9985 34.3732C14.0768 34.3131 14.1355 34.2316 14.1672 34.1387C16.3833 27.6885 20.2513 21.721 24.4557 16.8081C24.5445 16.7045 24.5918 16.5724 24.5888 16.4367C24.5857 16.3009 24.5324 16.171 24.4391 16.0715Z" fill="url(#paint0_linear_265_6367)"/>
<path d="M18.8164 1.40264C14.7852 -0.166472 10.3074 -0.190975 6.25899 1.33392C6.16159 1.37167 6.07761 1.43701 6.01758 1.52177C5.95754 1.60652 5.92412 1.70692 5.92149 1.81039C5.7493 7.09924 4.33331 12.366 0.465873 16.1987C0.363138 16.3014 0.305511 16.4401 0.305511 16.5846C0.305511 16.7291 0.363138 16.8678 0.465873 16.9705C5.25224 21.8209 8.5589 27.81 10.7853 34.1256C10.8198 34.2235 10.8825 34.3093 10.9658 34.3722C11.0491 34.4351 11.1492 34.4724 11.2537 34.4794H11.2594C11.3321 34.4842 11.4049 34.4742 11.4735 34.4501C11.5421 34.4259 11.6049 34.388 11.6581 34.3388C11.7112 34.2896 11.7536 34.2301 11.7826 34.164C11.8116 34.098 11.8265 34.0267 11.8265 33.9547V16.8336C11.8419 14.0296 12.4773 11.263 13.6881 8.72772C14.8989 6.19248 16.6557 3.95011 18.8353 2.15794C18.9501 2.06538 19.0529 1.97735 19.1493 1.89444C19.1516 1.78856 19.1208 1.68456 19.0613 1.59657C19.0017 1.50858 18.9162 1.44087 18.8164 1.40264Z" fill="url(#paint1_linear_265_6367)"/>
</g>
</g>
<defs>
<linearGradient id="paint0_linear_265_6367" x1="15.2543" y1="34.4783" x2="15.2543" y2="0.210053" gradientUnits="userSpaceOnUse">
<stop stop-color="#196DD2"/>
<stop offset="1" stop-color="#0D40A1"/>
</linearGradient>
<linearGradient id="paint1_linear_265_6367" x1="9.72636" y1="0.210045" x2="9.72636" y2="34.4834" gradientUnits="userSpaceOnUse">
<stop stop-color="#1E7EE5"/>
<stop offset="1" stop-color="#196DD2"/>
</linearGradient>
<clipPath id="clip0_265_6367">
<rect width="100" height="34.9057" fill="white"/>
</clipPath>
<clipPath id="clip1_265_6367">
<rect width="24.2363" height="34.4901" fill="white" transform="translate(0.305511 0.207764)"/>
</clipPath>
</defs>
</svg>
