<svg width="100" height="35" viewBox="0 0 100 35" fill="none" xmlns="http://www.w3.org/2000/svg">
<g clip-path="url(#clip0_346_6013)">
<path d="M42.8636 28.3721C40.3091 28.4377 38.1407 26.5739 37.9837 23.8748C28.5627 23.1782 29.1933 6.18899 38.8807 6.64692C48.4601 6.09874 49.2053 23.0469 39.9376 23.8591C40.1624 26.7231 44.2109 26.9871 45.667 25.03L46.4443 27.0617C45.5823 27.9872 44.1299 28.3751 42.8636 28.3721ZM38.8807 8.64947C31.5238 8.33025 31.5238 22.2339 38.8807 21.9147C46.2603 22.2399 46.2603 8.32503 38.8807 8.64947Z" fill="white"/>
<path d="M57.1323 23.8695C55.315 23.8695 53.8757 23.3839 52.8539 22.427C51.8321 21.4701 51.2979 20.0613 51.2979 18.2683V9.29602H53.3524V18.1236C53.3524 19.3915 53.6728 20.3506 54.3012 20.9824C54.9296 21.6141 55.8872 21.9385 57.1294 21.9385C58.3716 21.9385 59.319 21.6178 59.9445 20.9839C60.57 20.3499 60.8867 19.39 60.8867 18.1236V9.29602H62.9406V18.2683C62.9406 20.0583 62.4216 21.4589 61.3976 22.4255C60.3737 23.3921 58.9504 23.8695 57.1323 23.8695Z" fill="white"/>
<path d="M69.8121 9.29602H67.7583V23.677H69.8121V9.29602Z" fill="white"/>
<path d="M74.6279 23.6763V9.29602H76.6818V21.7461H84.9065V23.6763H74.6279Z" fill="white"/>
<path d="M89.7214 23.6763V9.29602H91.776V21.7461H100V23.6763H89.7214Z" fill="white"/>
<g clip-path="url(#clip1_346_6013)">
<path d="M24.4389 16.1659C21.0389 12.5497 19.1488 7.79386 19.1486 2.85485V1.9888C19.1489 1.88281 19.117 1.77918 19.0569 1.69145C18.9968 1.60371 18.9113 1.53595 18.8117 1.497C14.7817 -0.0704397 10.3057 -0.0943344 6.25888 1.42999C6.16148 1.46774 6.0775 1.53308 6.01747 1.61784C5.95743 1.70259 5.92401 1.80299 5.92139 1.90646L11.1164 12.081C11.3813 11.9028 11.6802 11.7802 11.9947 11.7207C12.3092 11.6613 12.6328 11.6661 12.9453 11.735C13.2579 11.8039 13.5529 11.9354 13.8122 12.1214C14.0714 12.3074 14.2895 12.5439 14.4528 12.8164C14.6162 13.0889 14.7214 13.3917 14.7621 13.7059C14.8027 14.0202 14.7779 14.3394 14.6891 14.6438C14.6003 14.9483 14.4495 15.2315 14.2459 15.4761C14.0423 15.7206 13.7903 15.9214 13.5053 16.0659C13.4092 16.1133 13.3282 16.1862 13.2715 16.2765C13.2147 16.3667 13.1844 16.4707 13.1839 16.577V34.0774C13.1838 34.1455 13.198 34.2129 13.2255 34.2753C13.253 34.3377 13.2932 34.3939 13.3437 34.4402C13.3941 34.4865 13.4536 34.522 13.5186 34.5445C13.5835 34.567 13.6525 34.576 13.7211 34.5709H13.7269C13.8257 34.5636 13.9201 34.5277 13.9984 34.4676C14.0767 34.4075 14.1354 34.3259 14.1671 34.233C16.3832 27.7828 20.2512 21.8153 24.4556 16.9024C24.5444 16.7989 24.5917 16.6668 24.5886 16.531C24.5856 16.3953 24.5323 16.2654 24.4389 16.1659Z" fill="url(#paint0_linear_346_6013)"/>
<path d="M18.8163 1.497C14.7852 -0.0721114 10.3073 -0.0966147 6.2589 1.42828C6.1615 1.46603 6.07752 1.53137 6.01748 1.61613C5.95745 1.70088 5.92403 1.80128 5.9214 1.90475C5.74921 7.1936 4.33322 12.4603 0.465781 16.2931C0.363046 16.3958 0.30542 16.5345 0.30542 16.679C0.30542 16.8235 0.363046 16.9621 0.465781 17.0648C5.25215 21.9153 8.55881 27.9044 10.7853 34.22C10.8197 34.3179 10.8824 34.4036 10.9657 34.4665C11.049 34.5294 11.1491 34.5667 11.2536 34.5738H11.2594C11.332 34.5786 11.4049 34.5686 11.4734 34.5444C11.542 34.5202 11.6048 34.4824 11.658 34.4332C11.7112 34.384 11.7535 34.3245 11.7825 34.2584C11.8115 34.1923 11.8264 34.1211 11.8264 34.049V16.928C11.8419 14.124 12.4772 11.3573 13.688 8.82208C14.8988 6.28684 16.6556 4.04447 18.8352 2.2523C18.95 2.15974 19.0528 2.07171 19.1492 1.9888C19.1515 1.88292 19.1207 1.77892 19.0612 1.69093C19.0016 1.60294 18.9161 1.53523 18.8163 1.497Z" fill="url(#paint1_linear_346_6013)"/>
</g>
</g>
<defs>
<linearGradient id="paint0_linear_346_6013" x1="15.2542" y1="34.5727" x2="15.2542" y2="0.304413" gradientUnits="userSpaceOnUse">
<stop stop-color="#F0F3FA"/>
<stop offset="1" stop-color="#CAE1FB"/>
</linearGradient>
<linearGradient id="paint1_linear_346_6013" x1="9.72627" y1="0.304406" x2="9.72627" y2="34.5778" gradientUnits="userSpaceOnUse">
<stop stop-color="white"/>
<stop offset="1" stop-color="#FBFCFD"/>
</linearGradient>
<clipPath id="clip0_346_6013">
<rect width="100" height="34.9057" fill="white" transform="translate(0 0.0943604)"/>
</clipPath>
<clipPath id="clip1_346_6013">
<rect width="24.2363" height="34.4901" fill="white" transform="translate(0.30542 0.302124)"/>
</clipPath>
</defs>
</svg>
