<svg width="66" height="68" viewBox="0 0 66 68" fill="none" xmlns="http://www.w3.org/2000/svg">
<g clip-path="url(#clip0_903_15045)">
<g clip-path="url(#clip1_903_15045)">
<path d="M11.9376 66.7881C9.52055 66.8493 7.46879 65.1107 7.32031 62.5947C-1.5953 61.9424 -0.997238 46.1041 8.16905 46.5303C17.2331 46.0213 17.9417 61.8228 9.17111 62.5773C9.38451 65.2477 13.2146 65.4939 14.593 63.6684L15.3257 65.5676C14.5101 66.4286 13.1358 66.7902 11.9376 66.7881ZM8.16905 48.3983C1.20784 48.1006 1.20784 61.0647 8.16905 60.7664C15.1517 61.0696 15.1517 48.0951 8.16905 48.3983Z" fill="#002978"/>
<path d="M25.4386 62.5891C23.719 62.5891 22.3565 62.1371 21.3903 61.2449C20.4131 60.3408 19.918 59.0383 19.918 57.3665V49.0005H21.8613V57.2322C21.8613 58.4145 22.1645 59.3088 22.7625 59.8978C23.3606 60.4868 24.2632 60.7894 25.4386 60.7894C26.614 60.7894 27.5104 60.4896 28.1016 59.8992C28.6927 59.3088 28.991 58.4124 28.991 57.2322V49.0005H30.9351V57.3665C30.9351 59.0355 30.4434 60.3415 29.4751 61.2435C28.5069 62.1454 27.1589 62.5891 25.4386 62.5891Z" fill="#002978"/>
<path d="M37.4365 49.0005H35.4932V62.4097H37.4365V49.0005Z" fill="#002978"/>
<path d="M41.9932 62.4097V49.0005H43.9365V60.6092H51.7188V62.4097H41.9932Z" fill="#002978"/>
<path d="M56.2744 62.4097V49.0005H58.2178V60.6092H66.0001V62.4097H56.2744Z" fill="#002978"/>
<path d="M47.8367 20.4553C43.7455 16.0273 41.4713 10.2034 41.4714 4.15524V3.09471C41.4719 2.96492 41.4334 2.83802 41.3611 2.73059C41.2887 2.62315 41.1859 2.54017 41.0661 2.49248C36.2172 0.573054 30.8318 0.543793 25.9627 2.41042C25.8455 2.45664 25.7445 2.53665 25.6722 2.64044C25.6 2.74423 25.5598 2.86718 25.5566 2.99388L31.8072 15.4531C32.1258 15.2322 32.4862 15.0796 32.8658 15.0048C33.2454 14.93 33.6363 14.9346 34.0141 15.0182C34.3919 15.1019 34.7486 15.2629 35.062 15.4912C35.3754 15.7194 35.6389 16.0102 35.8361 16.3453C36.0333 16.6804 36.16 17.0528 36.2083 17.4393C36.2566 17.8258 36.2254 18.2181 36.1168 18.592C36.0082 18.9659 35.8245 19.3133 35.577 19.6126C35.3295 19.912 35.0235 20.1569 34.678 20.3322C34.5624 20.3903 34.465 20.4796 34.3967 20.5901C34.3284 20.7006 34.2919 20.828 34.2913 20.9581V42.3891C34.2913 42.4725 34.3083 42.555 34.3414 42.6314C34.3745 42.7078 34.4229 42.7766 34.4836 42.8333C34.5442 42.89 34.6159 42.9335 34.694 42.9611C34.7722 42.9886 34.8551 42.9996 34.9377 42.9934H34.9446C35.0635 42.9843 35.1771 42.9403 35.2712 42.8667C35.3654 42.7931 35.436 42.6933 35.4743 42.5796C38.14 34.681 42.7946 27.3734 47.8533 21.3573C47.9606 21.231 48.0181 21.0694 48.0151 20.9032C48.012 20.7369 47.9486 20.5776 47.8367 20.4553Z" fill="url(#paint0_linear_903_15045)"/>
<path d="M41.0723 2.49249C36.2221 0.571024 30.8345 0.541019 25.9635 2.40834C25.8463 2.45456 25.7452 2.53458 25.673 2.63837C25.6008 2.74216 25.5605 2.8651 25.5574 2.9918C25.3502 9.46831 23.6465 15.9177 18.9967 20.6111C18.8725 20.7364 18.8024 20.9059 18.8018 21.083C18.8011 21.26 18.8699 21.4301 18.9933 21.5562C24.7487 27.4986 28.7245 34.8298 31.4088 42.5664C31.4502 42.6862 31.5256 42.7911 31.6256 42.8682C31.7257 42.9452 31.846 42.9909 31.9717 42.9997H31.9786C32.066 43.0056 32.1536 42.9934 32.2361 42.9637C32.3186 42.9341 32.3942 42.8877 32.4582 42.8275C32.5222 42.7672 32.5732 42.6944 32.608 42.6135C32.6429 42.5326 32.6609 42.4453 32.6609 42.3571V21.3886C32.6796 17.9549 33.4444 14.5669 34.9014 11.4623C36.3584 8.35777 38.4724 5.61191 41.0951 3.4174C41.2305 3.30428 41.3562 3.19672 41.4722 3.09473C41.4751 2.96513 41.4382 2.83779 41.3667 2.73003C41.2952 2.62228 41.1924 2.53933 41.0723 2.49249V2.49249Z" fill="url(#paint1_linear_903_15045)"/>
</g>
</g>
<defs>
<linearGradient id="paint0_linear_903_15045" x1="36.7857" y1="42.9955" x2="36.7857" y2="1.03208" gradientUnits="userSpaceOnUse">
<stop stop-color="#196DD2"/>
<stop offset="1" stop-color="#0D40A1"/>
</linearGradient>
<linearGradient id="paint1_linear_903_15045" x1="30.1354" y1="1.03209" x2="30.1354" y2="43.0018" gradientUnits="userSpaceOnUse">
<stop stop-color="#1E7EE5"/>
<stop offset="1" stop-color="#196DD2"/>
</linearGradient>
<clipPath id="clip0_903_15045">
<rect width="66" height="68" fill="white"/>
</clipPath>
<clipPath id="clip1_903_15045">
<rect width="65" height="72" fill="white" transform="translate(1 -2)"/>
</clipPath>
</defs>
</svg>
