<svg width="14" height="15" viewBox="0 0 14 15" fill="none" xmlns="http://www.w3.org/2000/svg">
<path d="M7 12.75C9.8995 12.75 12.25 10.3995 12.25 7.5C12.25 4.60051 9.8995 2.25 7 2.25C4.10051 2.25 1.75 4.60051 1.75 7.5C1.75 10.3995 4.10051 12.75 7 12.75Z" stroke="#CCCCCC" stroke-miterlimit="10"/>
<path d="M2.04895 5.75H11.9509" stroke="#CCCCCC" stroke-linecap="round" stroke-linejoin="round"/>
<path d="M2.04919 9.25H11.9511" stroke="#CCCCCC" stroke-linecap="round" stroke-linejoin="round"/>
<path d="M7 12.6091C8.20812 12.6091 9.1875 10.3217 9.1875 7.5C9.1875 4.67834 8.20812 2.39093 7 2.39093C5.79188 2.39093 4.8125 4.67834 4.8125 7.5C4.8125 10.3217 5.79188 12.6091 7 12.6091Z" stroke="#CCCCCC" stroke-miterlimit="10"/>
</svg>
