<svg xmlns="http://www.w3.org/2000/svg" xmlns:xlink="http://www.w3.org/1999/xlink" xmlns:lucid="lucid" width="1060" height="1126"><g transform="translate(20 20)" lucid:page-tab-id="0_0"><path d="M0 0h1870.87v1322.83H0z" fill="#fff"/><path d="M860 415.67c0-3.32 2.7-6 6-6h132c3.3 0 6 2.68 6 6v96c-24.05-17.04-39.02-17.04-48.1-17.04-14.4 0-33.55 17.04-47.95 17.04-8.93 0-24.05 0-47.95-17.04z" stroke="#5e5e5e" stroke-width="6" fill="#fff"/><path d="M868 424.67c0-3.32 2.7-6 6-6h132c3.3 0 6 2.68 6 6v96c-24.05-17.04-39.02-17.04-48.1-17.04-14.4 0-33.55 17.04-47.95 17.04-8.93 0-24.05 0-47.95-17.04z" stroke="#5e5e5e" stroke-width="6" fill="#fff"/><path d="M876 433.67c0-3.32 2.7-6 6-6h132c3.3 0 6 2.68 6 6v96c-24.05-17.04-39.02-17.04-48.1-17.04-14.4 0-33.55 17.04-47.95 17.04-8.93 0-24.05 0-47.95-17.04z" stroke="#5e5e5e" stroke-width="6" fill="#fff"/><use xlink:href="#a" transform="matrix(1,0,0,1,881,432.6666666666665) translate(23.351851851851848 17.77777777777778)"/><use xlink:href="#b" transform="matrix(1,0,0,1,881,432.6666666666665) translate(10.29629629629629 44.44444444444444)"/><path d="M100 741c0-3.3 2.7-6 6-6h148c3.3 0 6 2.7 6 6v68c0 3.3-2.7 6-6 6H106c-3.3 0-6-2.7-6-6z" stroke="#5e5e5e" stroke-width="3" fill="#fff"/><use xlink:href="#c" transform="matrix(1,0,0,1,112,747) translate(42.72222222222223 17.77777777777778)"/><use xlink:href="#d" transform="matrix(1,0,0,1,112,747) translate(22.96913580246914 44.44444444444444)"/><path d="M240 992.67c0 6.62-26.86 12-60 12s-60-5.38-60-12v-96c0-6.63 26.86-12 60-12s60 5.37 60 12z" stroke="#5e5e5e" stroke-width="3" fill="#fff"/><path d="M240 896.67c0 6.62-26.86 12-60 12s-60-5.38-60-12" stroke="#5e5e5e" stroke-width="3" fill="none"/><use xlink:href="#e" transform="matrix(1,0,0,1,125.00000000000011,913.6666666666667) translate(13.672839506172842 17.77777777777778)"/><use xlink:href="#f" transform="matrix(1,0,0,1,125.00000000000011,913.6666666666667) translate(29.72222222222223 44.44444444444444)"/><use xlink:href="#g" transform="matrix(1,0,0,1,125.00000000000011,913.6666666666667) translate(2.8395061728395063 71.11111111111111)"/><path d="M60 281c0-3.3 2.7-6 6-6h228c3.3 0 6 2.7 6 6v48c0 3.3-2.7 6-6 6H66c-3.3 0-6-2.7-6-6z" stroke="#000" stroke-opacity="0" stroke-width="3" fill="#fff" fill-opacity="0"/><use xlink:href="#h" transform="matrix(1,0,0,1,65,279.9999999999999) translate(95.60185185185186 32.91666666666666)"/><path d="M400 281c0-3.3 2.7-6 6-6h228c3.3 0 6 2.7 6 6v48c0 3.3-2.7 6-6 6H406c-3.3 0-6-2.7-6-6z" stroke="#000" stroke-opacity="0" stroke-width="3" fill="#fff" fill-opacity="0"/><use xlink:href="#i" transform="matrix(1,0,0,1,405,279.9999999999999) translate(3.1944444444444855 32.91666666666666)"/><use xlink:href="#j" transform="matrix(1,0,0,1,405,279.9999999999999) translate(51.25000000000003 32.91666666666666)"/><path d="M360 296v20.46m0 20.46v40.93m0 20.46v40.93m0 20.46v40.92m0 20.46V562m0 20.46v40.92m0 20.47v40.92m0 20.46v40.92m0 20.47v40.92m0 20.46v40.92m0 20.46v40.93m0 20.47v40.92m0 20.45v40.93m0 20.46V1094M360 296.03V295M360 1093.97v1.03" stroke="#b2b2b2" stroke-width="2" fill="none"/><path d="M580 992.67c0 6.62-26.86 12-60 12s-60-5.38-60-12v-96c0-6.63 26.86-12 60-12s60 5.37 60 12z" stroke="#5e5e5e" stroke-width="3" fill="#fff"/><path d="M580 896.67c0 6.62-26.86 12-60 12s-60-5.38-60-12" stroke="#5e5e5e" stroke-width="3" fill="none"/><use xlink:href="#c" transform="matrix(1,0,0,1,465,913.6666666666667) translate(29.72222222222223 33.90277777777778)"/><use xlink:href="#g" transform="matrix(1,0,0,1,465,913.6666666666667) translate(2.8395061728395063 60.56944444444445)"/><path d="M280 855.67c0-3.32 2.7-6 6-6h68c3.3 0 6 2.68 6 6V907c0 3.3-2.7 6-6 6h-68c-3.3 0-6-2.7-6-6z" stroke="#000" stroke-opacity="0" stroke-width="3" fill="#fff" fill-opacity="0"/><use xlink:href="#k" transform="matrix(1,0,0,1,285,854.6666666666669) translate(13.395061728395063 31.27777777777778)"/><path d="M369 857.33c0-3.3 2.7-6 6-6h68c3.3 0 6 2.7 6 6v51.34c0 3.3-2.7 6-6 6h-68c-3.3 0-6-2.7-6-6z" stroke="#000" stroke-opacity="0" stroke-width="3" fill="#fff" fill-opacity="0"/><use xlink:href="#l" transform="matrix(1,0,0,1,374,856.3333333333334) translate(13.395061728395063 18.111111111111114)"/><use xlink:href="#m" transform="matrix(1,0,0,1,374,856.3333333333334) translate(-14.2283950617284 44.777777777777786)"/><path d="M41 849.67h19.33m19.34 0h38.66m19.34 0h38.66m19.34 0h38.66m19.34 0h38.66m19.34 0h38.66m19.34 0h38.66m19.34 0h38.66m19.34 0h38.66m19.34 0h38.66m19.34 0h38.66m19.34 0H679M41.03 849.67H40M678.97 849.67H680" stroke="#b2b2b2" stroke-width="2" fill="none"/><path d="M440 375.67c0-3.32 2.7-6 6-6h148c3.3 0 6 2.68 6 6v68c0 3.3-2.7 6-6 6H446c-3.3 0-6-2.7-6-6z" stroke="#5e5e5e" stroke-width="3" fill="#c7e8ac"/><use xlink:href="#n" transform="matrix(1,0,0,1,452,381.6666666666665) translate(13.802469135802461 17.77777777777778)"/><use xlink:href="#o" transform="matrix(1,0,0,1,452,381.6666666666665) translate(24.203703703703702 44.44444444444444)"/><path d="M681 1088.67h-2v-20.46h2zm0-40.93h-2v-40.92h2zm0-61.38h-2v-40.92h2zm0-61.4h-2v-40.9h2zm0-61.37h-2v-40.93h2zm0-61.4h-2V761.3h2zm0-61.38h-2V699.9h2zm0-61.38h-2V638.5h2zm0-61.4h-2v-40.9h2zm0-61.37h-2V527.1h2zm0-93.57h-2v-8.74h2zm0-29.2h-2v-40.93h2zm0-61.4h-2v-40.9h2zm0-61.37h-2v-20.46h2z" fill="#b2b2b2"/><path d="M681 290.7h-2v-1.03h2zM681 1089.67h-2v-1.03h2z" fill="#b2b2b2"/><path d="M749.18 558.96c1.56-2.92 5.5-5.3 8.82-5.3h84c3.3 0 7.26 2.38 8.82 5.3l26.36 49.4c1.56 2.94 1.56 7.68 0 10.6l-26.36 49.4c-1.56 2.94-5.5 5.3-8.82 5.3h-84c-3.3 0-7.26-2.36-8.82-5.3l-26.36-49.4c-1.56-2.92-1.56-7.66 0-10.6z" stroke="#5e5e5e" stroke-width="3" fill="#a3d977"/><use xlink:href="#p" transform="matrix(1,0,0,1,725,558.6666666666592) translate(32.505 45.27777777777778)"/><use xlink:href="#q" transform="matrix(1,0,0,1,725,558.6666666666592) translate(82.99882716049383 45.27777777777778)"/><use xlink:href="#r" transform="matrix(1,0,0,1,725,558.6666666666592) translate(9.788950617283954 71.94444444444446)"/><path d="M856 431h-79.33c-3.32 0-6 2.7-6 6v96.66" stroke="#5e5e5e" stroke-width="2" fill="none"/><path d="M857 432h-1.03v-2H857z" fill="#5e5e5e"/><path d="M770.67 548.93l-4.64-14.27h9.27z" stroke="#5e5e5e" stroke-width="2" fill="#5e5e5e"/><use xlink:href="#s" transform="matrix(1,0,0,1,754.2228399374172,363.0000000000004) translate(0 14.222222222222223)"/><use xlink:href="#t" transform="matrix(1,0,0,1,754.2228399374172,363.0000000000004) translate(15.753086419753087 14.222222222222223)"/><use xlink:href="#u" transform="matrix(1,0,0,1,754.2228399374172,363.0000000000004) translate(0 35.55555555555556)"/><use xlink:href="#v" transform="matrix(1,0,0,1,754.2228399374172,363.0000000000004) translate(0 56.88888888888889)"/><use xlink:href="#w" transform="matrix(1,0,0,1,754.2228399374172,363.0000000000004) translate(4.938271604938272 56.88888888888889)"/><use xlink:href="#x" transform="matrix(1,0,0,1,754.2228399374172,363.0000000000004) translate(20.24691358024692 56.88888888888889)"/><path d="M856 455.13h-50c-3.3 0-6 2.68-6 6v72.53" stroke="#5e5e5e" stroke-width="2" fill="none"/><path d="M857 456.13h-1.03v-2H857z" fill="#5e5e5e"/><path d="M800 548.93l-4.64-14.27h9.28z" stroke="#5e5e5e" stroke-width="2" fill="#5e5e5e"/><path d="M856 479.43h-22.55c-3.3 0-6 2.68-6 6v48.23" stroke="#5e5e5e" stroke-width="2" fill="none"/><path d="M857 480.43h-1.03v-2H857z" fill="#5e5e5e"/><path d="M827.45 548.93l-4.64-14.27h9.28z" stroke="#5e5e5e" stroke-width="2" fill="#5e5e5e"/><path d="M661.85 607.53l.7 2.65 1.8 1.77 2.63.72h52.22v2h-52.48l-3.42-.93-2.53-2.53-.92-3.4v-80.7h2zM658.4 409.6l2.53 2.52.92 3.4v47.58h-2v-47.3l-.7-2.64-1.8-1.78-2.63-.7H620v-2h34.98z" fill="#5e5e5e"/><path d="M720.15 613.14l.14 1.53h-1.13v-2h1.06zM619 414.3l-14.26-4.63 14.26-4.64z" fill="#5e5e5e"/><path d="M620 415.68l-18.5-6 18.5-6.03zm-12.03-6l10.03 3.25v-6.52z" fill="#5e5e5e"/><use xlink:href="#y" transform="matrix(1,0,0,1,591.8622112355466,463.0982328165152) translate(0 14.222222222222223)"/><use xlink:href="#z" transform="matrix(1,0,0,1,591.8622112355466,463.0982328165152) translate(0 35.55555555555556)"/><use xlink:href="#A" transform="matrix(1,0,0,1,591.8622112355466,463.0982328165152) translate(15.753086419753087 35.55555555555556)"/><use xlink:href="#B" transform="matrix(1,0,0,1,591.8622112355466,463.0982328165152) translate(30.567901234567906 35.55555555555556)"/><use xlink:href="#C" transform="matrix(1,0,0,1,591.8622112355466,463.0982328165152) translate(51.25925925925927 35.55555555555556)"/><use xlink:href="#D" transform="matrix(1,0,0,1,591.8622112355466,463.0982328165152) translate(0 56.88888888888889)"/><use xlink:href="#E" transform="matrix(1,0,0,1,591.8622112355466,463.0982328165152) translate(14.814814814814817 56.88888888888889)"/><use xlink:href="#F" transform="matrix(1,0,0,1,591.8622112355466,463.0982328165152) translate(29.629629629629633 56.88888888888889)"/><use xlink:href="#G" transform="matrix(1,0,0,1,591.8622112355466,463.0982328165152) translate(71.01234567901236 56.88888888888889)"/><path d="M437.5 409.67H415c-3.3 0-6 2.68-6 6v417.16" stroke="#5e5e5e" stroke-width="2" fill="none"/><path d="M438.5 410.67h-1.03v-2h1.03z" fill="#5e5e5e"/><path d="M409 848.1l-4.64-14.27h9.28z" stroke="#5e5e5e" stroke-width="2" fill="#5e5e5e"/><path d="M388 850.33V781c0-3.3-2.7-6-6-6H280" stroke="#7ab648" stroke-width="2" fill="none"/><path d="M389 851.33h-2v-1.02h2z" fill="#7ab648"/><path d="M264.74 775l14.26-4.64v9.28z" stroke="#7ab648" stroke-width="2" fill="#7ab648"/><use xlink:href="#H" transform="matrix(1,0,0,1,278.5191049041117,664.3333333333333) translate(0 17.777777777777775)"/><use xlink:href="#I" transform="matrix(1,0,0,1,278.5191049041117,664.3333333333333) translate(0 44.44444444444444)"/><use xlink:href="#J" transform="matrix(1,0,0,1,278.5191049041117,664.3333333333333) translate(0 71.1111111111111)"/><use xlink:href="#K" transform="matrix(1,0,0,1,278.5191049041117,664.3333333333333) translate(0 97.77777777777777)"/><path d="M180 817.5v47.16" stroke="#7ab648" stroke-width="2" fill="none"/><path d="M181 817.53h-2v-1.03h2z" fill="#7ab648"/><path d="M180 879.93l-4.64-14.27h9.28z" stroke="#7ab648" stroke-width="2" fill="#7ab648"/><path d="M740 281c0-3.3 2.7-6 6-6h228c3.3 0 6 2.7 6 6v48c0 3.3-2.7 6-6 6H746c-3.3 0-6-2.7-6-6z" stroke="#000" stroke-opacity="0" stroke-width="3" fill="#fff" fill-opacity="0"/><use xlink:href="#L" transform="matrix(1,0,0,1,745,279.9999999999999) translate(57.08333333333336 32.91666666666666)"/><path d="M520 452.17V515" stroke="#5e5e5e" stroke-width="2" fill="none"/><path d="M521 452.2h-2v-1.03h2z" fill="#5e5e5e"/><path d="M520 530.26L515.36 516h9.28z" stroke="#5e5e5e" stroke-width="2" fill="#5e5e5e"/><path d="M520 628.1V680" stroke="#5e5e5e" stroke-width="2" fill="none"/><path d="M521 628.13h-2v-.67l2-.7z" fill="#5e5e5e"/><path d="M520 695.26L515.36 681h9.28z" stroke="#5e5e5e" stroke-width="2" fill="#5e5e5e"/><path d="M440 541c0-3.3 2.7-6 6-6h132c3.3 0 6 2.7 6 6v74.47c-24.05-13.44-39.02-13.44-48.1-13.44-14.4 0-33.55 13.44-47.95 13.44-8.93 0-24.05 0-47.95-13.44z" stroke="#5e5e5e" stroke-width="3" fill="#c7e8ac"/><path d="M448 548.1c0-3.3 2.7-6 6-6h132c3.3 0 6 2.7 6 6v74.47c-24.05-13.44-39.02-13.44-48.1-13.44-14.4 0-33.55 13.44-47.95 13.44-8.93 0-24.05 0-47.95-13.44z" stroke="#5e5e5e" stroke-width="3" fill="#c7e8ac"/><path d="M456 555.2c0-3.3 2.7-6 6-6h132c3.3 0 6 2.7 6 6v74.47c-24.05-13.44-39.02-13.44-48.1-13.44-14.4 0-33.55 13.44-47.95 13.44-8.93 0-24.05 0-47.95-13.44z" stroke="#5e5e5e" stroke-width="3" fill="#c7e8ac"/><g><use xlink:href="#M" transform="matrix(1,0,0,1,461,554.1999999999999) translate(25.086419753086417 20.111111111111114)"/><use xlink:href="#N" transform="matrix(1,0,0,1,461,554.1999999999999) translate(31.074074074074076 46.777777777777786)"/></g><path d="M0 6c0-3.3 2.7-6 6-6h609.17c3.3 0 6 2.7 6 6v79c0 3.3-2.7 6-6 6H6c-3.3 0-6-2.7-6-6z" stroke="#000" stroke-opacity="0" stroke-width="3" fill="#fff" fill-opacity="0"/><g><use xlink:href="#O" transform="matrix(1,0,0,1,5,5) translate(16.679012345679155 50.93055555555554)"/><use xlink:href="#P" transform="matrix(1,0,0,1,5,5) translate(117.66666666666677 50.93055555555554)"/><use xlink:href="#Q" transform="matrix(1,0,0,1,5,5) translate(334.45679012345676 50.93055555555554)"/></g><path d="M80 106c0-3.3 2.7-6 6-6h548c3.3 0 6 2.7 6 6v136.67c0 3.3-2.7 6-6 6H86c-3.3 0-6-2.7-6-6z" stroke="#000" stroke-opacity="0" stroke-width="3" fill="#fff" fill-opacity="0"/><g><use xlink:href="#R" transform="matrix(1,0,0,1,85,105) translate(85.4290123456791 34.565972222222214)"/><use xlink:href="#S" transform="matrix(1,0,0,1,85,105) translate(139.89197530864203 34.565972222222214)"/><use xlink:href="#T" transform="matrix(1,0,0,1,85,105) translate(263.5092592592593 34.565972222222214)"/><use xlink:href="#U" transform="matrix(1,0,0,1,85,105) translate(317.97222222222223 34.565972222222214)"/><use xlink:href="#V" transform="matrix(1,0,0,1,85,105) translate(17.638888888889028 79.89930555555554)"/><use xlink:href="#W" transform="matrix(1,0,0,1,85,105) translate(28.13271604938285 79.89930555555554)"/><use xlink:href="#X" transform="matrix(1,0,0,1,85,105) translate(109.56481481481492 79.89930555555554)"/><use xlink:href="#Y" transform="matrix(1,0,0,1,85,105) translate(197.50308641975317 79.89930555555554)"/><use xlink:href="#Z" transform="matrix(1,0,0,1,85,105) translate(274.9475308641976 79.89930555555554)"/><use xlink:href="#aa" transform="matrix(1,0,0,1,85,105) translate(6.987654320987758 125.23263888888886)"/><use xlink:href="#ab" transform="matrix(1,0,0,1,85,105) translate(67.64197530864206 125.23263888888886)"/><use xlink:href="#ac" transform="matrix(1,0,0,1,85,105) translate(120.11111111111117 125.23263888888886)"/><use xlink:href="#ad" transform="matrix(1,0,0,1,85,105) translate(354.6481481481481 125.23263888888886)"/><use xlink:href="#ae" transform="matrix(1,0,0,1,85,105) translate(398.6172839506172 125.23263888888886)"/><use xlink:href="#af" transform="matrix(1,0,0,1,85,105) translate(430.0987654320987 125.23263888888886)"/></g><path d="M499.34 452.17V515" stroke="#5e5e5e" stroke-width="2" fill="none"/><path d="M500.34 452.2h-2v-1.03h2z" fill="#5e5e5e"/><path d="M499.34 530.26L494.7 516h9.27z" stroke="#5e5e5e" stroke-width="2" fill="#5e5e5e"/><path d="M541.57 452.17V515" stroke="#5e5e5e" stroke-width="2" fill="none"/><path d="M542.57 452.2h-2v-1.03h2z" fill="#5e5e5e"/><path d="M541.57 530.26L536.93 516h9.27z" stroke="#5e5e5e" stroke-width="2" fill="#5e5e5e"/><path d="M498.54 631.94V680" stroke="#5e5e5e" stroke-width="2" fill="none"/><path d="M499.54 630.98v1h-2v-1.08z" fill="#5e5e5e"/><path d="M498.54 695.26L493.9 681h9.28z" stroke="#5e5e5e" stroke-width="2" fill="#5e5e5e"/><path d="M540.7 620.83V680" stroke="#5e5e5e" stroke-width="2" fill="none"/><path d="M541.7 620.85h-2v-.73l.3-.1 1.7-.47z" fill="#5e5e5e"/><path d="M540.7 695.26L536.07 681h9.27z" stroke="#5e5e5e" stroke-width="2" fill="#5e5e5e"/><path d="M440 706c0-3.3 2.7-6 6-6h132c3.3 0 6 2.7 6 6v74.47c-24.05-13.44-39.02-13.44-48.1-13.44-14.4 0-33.55 13.44-47.95 13.44-8.93 0-24.05 0-47.95-13.44z" stroke="#5e5e5e" stroke-width="3" fill="#b2d6ef"/><path d="M448 713.1c0-3.3 2.7-6 6-6h132c3.3 0 6 2.7 6 6v74.47c-24.05-13.44-39.02-13.44-48.1-13.44-14.4 0-33.55 13.44-47.95 13.44-8.93 0-24.05 0-47.95-13.44z" stroke="#5e5e5e" stroke-width="3" fill="#b2d6ef"/><path d="M456 720.2c0-3.3 2.7-6 6-6h132c3.3 0 6 2.7 6 6v74.47c-24.05-13.44-39.02-13.44-48.1-13.44-14.4 0-33.55 13.44-47.95 13.44-8.93 0-24.05 0-47.95-13.44z" stroke="#5e5e5e" stroke-width="3" fill="#b2d6ef"/><g><use xlink:href="#ag" transform="matrix(1,0,0,1,461,719.1999999999999) translate(36.19753086419753 20.111111111111114)"/><use xlink:href="#ah" transform="matrix(1,0,0,1,461,719.1999999999999) translate(19.53086419753086 46.777777777777786)"/></g><defs><path fill="#333" d="M240 0l2-218c-23 76-54 145-80 218h-23L58-218 59 0H30v-248h44l77 211c21-75 51-140 76-211h43V0h-30" id="ai"/><path fill="#333" d="M84 4C-5 8 30-112 23-190h32v120c0 31 7 50 39 49 72-2 45-101 50-169h31l1 190h-30c-1-10 1-25-2-33-11 22-28 36-60 37" id="aj"/><path fill="#333" d="M24 0v-261h32V0H24" id="ak"/><path fill="#333" d="M59-47c-2 24 18 29 38 22v24C64 9 27 4 27-40v-127H5v-23h24l9-43h21v43h35v23H59v120" id="al"/><path fill="#333" d="M24-231v-30h32v30H24zM24 0v-190h32V0H24" id="am"/><path fill="#333" d="M115-194c55 1 70 41 70 98S169 2 115 4C84 4 66-9 55-30l1 105H24l-1-265h31l2 30c10-21 28-34 59-34zm-8 174c40 0 45-34 45-75s-6-73-45-74c-42 0-51 32-51 76 0 43 10 73 51 73" id="an"/><path fill="#333" d="M100-194c63 0 86 42 84 106H49c0 40 14 67 53 68 26 1 43-12 49-29l28 8c-11 28-37 45-77 45C44 4 14-33 15-96c1-61 26-98 85-98zm52 81c6-60-76-77-97-28-3 7-6 17-6 28h103" id="ao"/><g id="a"><use transform="matrix(0.06172839506172839,0,0,0.06172839506172839,0,0)" xlink:href="#ai"/><use transform="matrix(0.06172839506172839,0,0,0.06172839506172839,18.456790123456788,0)" xlink:href="#aj"/><use transform="matrix(0.06172839506172839,0,0,0.06172839506172839,30.80246913580247,0)" xlink:href="#ak"/><use transform="matrix(0.06172839506172839,0,0,0.06172839506172839,35.67901234567901,0)" xlink:href="#al"/><use transform="matrix(0.06172839506172839,0,0,0.06172839506172839,41.851851851851855,0)" xlink:href="#am"/><use transform="matrix(0.06172839506172839,0,0,0.06172839506172839,46.7283950617284,0)" xlink:href="#an"/><use transform="matrix(0.06172839506172839,0,0,0.06172839506172839,59.074074074074076,0)" xlink:href="#ak"/><use transform="matrix(0.06172839506172839,0,0,0.06172839506172839,63.95061728395061,0)" xlink:href="#ao"/></g><path fill="#333" d="M141-36C126-15 110 5 73 4 37 3 15-17 15-53c-1-64 63-63 125-63 3-35-9-54-41-54-24 1-41 7-42 31l-33-3c5-37 33-52 76-52 45 0 72 20 72 64v82c-1 20 7 32 28 27v20c-31 9-61-2-59-35zM48-53c0 20 12 33 32 33 41-3 63-29 60-74-43 2-92-5-92 41" id="ap"/><path fill="#333" d="M85-194c31 0 48 13 60 33l-1-100h32l1 261h-30c-2-10 0-23-3-31C134-8 116 4 85 4 32 4 16-35 15-94c0-66 23-100 70-100zm9 24c-40 0-46 34-46 75 0 40 6 74 45 74 42 0 51-32 51-76 0-42-9-74-50-73" id="aq"/><path fill="#333" d="M114-163C36-179 61-72 57 0H25l-1-190h30c1 12-1 29 2 39 6-27 23-49 58-41v29" id="ar"/><path fill="#333" d="M135-143c-3-34-86-38-87 0 15 53 115 12 119 90S17 21 10-45l28-5c4 36 97 45 98 0-10-56-113-15-118-90-4-57 82-63 122-42 12 7 21 19 24 35" id="as"/><g id="b"><use transform="matrix(0.06172839506172839,0,0,0.06172839506172839,0,0)" xlink:href="#ap"/><use transform="matrix(0.06172839506172839,0,0,0.06172839506172839,12.345679012345679,0)" xlink:href="#aq"/><use transform="matrix(0.06172839506172839,0,0,0.06172839506172839,24.691358024691358,0)" xlink:href="#aq"/><use transform="matrix(0.06172839506172839,0,0,0.06172839506172839,37.03703703703704,0)" xlink:href="#ar"/><use transform="matrix(0.06172839506172839,0,0,0.06172839506172839,44.382716049382715,0)" xlink:href="#ao"/><use transform="matrix(0.06172839506172839,0,0,0.06172839506172839,56.72839506172839,0)" xlink:href="#as"/><use transform="matrix(0.06172839506172839,0,0,0.06172839506172839,67.8395061728395,0)" xlink:href="#as"/><use transform="matrix(0.06172839506172839,0,0,0.06172839506172839,78.95061728395062,0)" xlink:href="#ao"/><use transform="matrix(0.06172839506172839,0,0,0.06172839506172839,91.2962962962963,0)" xlink:href="#as"/></g><path fill="#333" d="M140-251c81 0 123 46 123 126C263-46 219 4 140 4 59 4 17-45 17-125s42-126 123-126zm0 227c63 0 89-41 89-101s-29-99-89-99c-61 0-89 39-89 99S79-25 140-24" id="at"/><path fill="#333" d="M137 0h-34L2-248h35l83 218 83-218h36" id="au"/><g id="c"><use transform="matrix(0.06172839506172839,0,0,0.06172839506172839,0,0)" xlink:href="#at"/><use transform="matrix(0.06172839506172839,0,0,0.06172839506172839,17.28395061728395,0)" xlink:href="#au"/><use transform="matrix(0.06172839506172839,0,0,0.06172839506172839,32.09876543209876,0)" xlink:href="#ai"/></g><path fill="#333" d="M96-169c-40 0-48 33-48 73s9 75 48 75c24 0 41-14 43-38l32 2c-6 37-31 61-74 61-59 0-76-41-82-99-10-93 101-131 147-64 4 7 5 14 7 22l-32 3c-4-21-16-35-41-35" id="av"/><path fill="#333" d="M100-194c62-1 85 37 85 99 1 63-27 99-86 99S16-35 15-95c0-66 28-99 85-99zM99-20c44 1 53-31 53-75 0-43-8-75-51-75s-53 32-53 75 10 74 51 75" id="aw"/><path fill="#333" d="M117-194c89-4 53 116 60 194h-32v-121c0-31-8-49-39-48C34-167 62-67 57 0H25l-1-190h30c1 10-1 24 2 32 11-22 29-35 61-36" id="ax"/><g id="d"><use transform="matrix(0.06172839506172839,0,0,0.06172839506172839,0,0)" xlink:href="#av"/><use transform="matrix(0.06172839506172839,0,0,0.06172839506172839,11.11111111111111,0)" xlink:href="#aw"/><use transform="matrix(0.06172839506172839,0,0,0.06172839506172839,23.45679012345679,0)" xlink:href="#ax"/><use transform="matrix(0.06172839506172839,0,0,0.06172839506172839,35.80246913580247,0)" xlink:href="#al"/><use transform="matrix(0.06172839506172839,0,0,0.06172839506172839,41.97530864197531,0)" xlink:href="#ar"/><use transform="matrix(0.06172839506172839,0,0,0.06172839506172839,49.32098765432099,0)" xlink:href="#ap"/><use transform="matrix(0.06172839506172839,0,0,0.06172839506172839,61.666666666666664,0)" xlink:href="#av"/><use transform="matrix(0.06172839506172839,0,0,0.06172839506172839,72.77777777777777,0)" xlink:href="#al"/><use transform="matrix(0.06172839506172839,0,0,0.06172839506172839,78.9506172839506,0)" xlink:href="#as"/></g><path fill="#333" d="M33 0v-248h34V0H33" id="ay"/><g id="e"><use transform="matrix(0.06172839506172839,0,0,0.06172839506172839,0,0)" xlink:href="#ay"/><use transform="matrix(0.06172839506172839,0,0,0.06172839506172839,6.172839506172839,0)" xlink:href="#ax"/><use transform="matrix(0.06172839506172839,0,0,0.06172839506172839,18.51851851851852,0)" xlink:href="#av"/><use transform="matrix(0.06172839506172839,0,0,0.06172839506172839,29.62962962962963,0)" xlink:href="#ak"/><use transform="matrix(0.06172839506172839,0,0,0.06172839506172839,34.50617283950617,0)" xlink:href="#aj"/><use transform="matrix(0.06172839506172839,0,0,0.06172839506172839,46.85185185185185,0)" xlink:href="#aq"/><use transform="matrix(0.06172839506172839,0,0,0.06172839506172839,59.197530864197525,0)" xlink:href="#ao"/><use transform="matrix(0.06172839506172839,0,0,0.06172839506172839,71.5432098765432,0)" xlink:href="#as"/></g><g id="f"><use transform="matrix(0.06172839506172839,0,0,0.06172839506172839,0,0)" xlink:href="#at"/><use transform="matrix(0.06172839506172839,0,0,0.06172839506172839,17.28395061728395,0)" xlink:href="#au"/><use transform="matrix(0.06172839506172839,0,0,0.06172839506172839,32.09876543209876,0)" xlink:href="#ai"/></g><path fill="#333" d="M185-189c-5-48-123-54-124 2 14 75 158 14 163 119 3 78-121 87-175 55-17-10-28-26-33-46l33-7c5 56 141 63 141-1 0-78-155-14-162-118-5-82 145-84 179-34 5 7 8 16 11 25" id="az"/><path fill="#333" d="M118-107v75H92v-75H18v-26h74v-75h26v75h74v26h-74" id="aA"/><path fill="#333" d="M141 0L90-78 38 0H4l68-98-65-92h35l48 74 47-74h35l-64 92 68 98h-35" id="aB"/><g id="g"><use transform="matrix(0.06172839506172839,0,0,0.06172839506172839,0,0)" xlink:href="#az"/><use transform="matrix(0.06172839506172839,0,0,0.06172839506172839,14.814814814814813,0)" xlink:href="#al"/><use transform="matrix(0.06172839506172839,0,0,0.06172839506172839,20.98765432098765,0)" xlink:href="#ap"/><use transform="matrix(0.06172839506172839,0,0,0.06172839506172839,33.33333333333333,0)" xlink:href="#al"/><use transform="matrix(0.06172839506172839,0,0,0.06172839506172839,39.50617283950617,0)" xlink:href="#ao"/><use transform="matrix(0.06172839506172839,0,0,0.06172839506172839,51.85185185185185,0)" xlink:href="#as"/><use transform="matrix(0.06172839506172839,0,0,0.06172839506172839,62.96296296296296,0)" xlink:href="#aA"/><use transform="matrix(0.06172839506172839,0,0,0.06172839506172839,75.92592592592592,0)" xlink:href="#al"/><use transform="matrix(0.06172839506172839,0,0,0.06172839506172839,82.09876543209876,0)" xlink:href="#aB"/><use transform="matrix(0.06172839506172839,0,0,0.06172839506172839,93.20987654320987,0)" xlink:href="#as"/></g><path fill="#333" d="M24 0v-248h52v208h133V0H24" id="aC"/><path fill="#333" d="M23 0v-37h61v-169l-59 37v-38l62-41h46v211h57V0H23" id="aD"/><g id="h"><use transform="matrix(0.09259259259259256,0,0,0.09259259259259256,0,0)" xlink:href="#aC"/><use transform="matrix(0.09259259259259256,0,0,0.09259259259259256,20.27777777777777,0)" xlink:href="#aD"/></g><path fill="#333" d="M182-182c0 78-84 86-111 141h115V0H12c-6-101 99-100 120-180 1-22-12-31-33-32-23 0-32 14-35 34l-49-3c5-45 32-70 84-70 51 0 83 22 83 69" id="aE"/><g id="i"><use transform="matrix(0.09259259259259256,0,0,0.09259259259259256,0,0)" xlink:href="#aC"/><use transform="matrix(0.09259259259259256,0,0,0.09259259259259256,20.27777777777777,0)" xlink:href="#aE"/></g><path fill="#333" d="M67-93c0 74 22 123 53 168H70C40 30 18-18 18-93s22-123 52-168h50c-32 44-53 94-53 168" id="aF"/><path fill="#333" d="M140-251c80 0 125 45 125 126S219 4 139 4C58 4 15-44 15-125s44-126 125-126zm-1 214c52 0 73-35 73-88 0-50-21-86-72-86-52 0-73 35-73 86s22 88 72 88" id="aG"/><path fill="#333" d="M135-194c53 0 70 44 70 98 0 56-19 98-73 100-31 1-45-17-59-34 3 33 2 69 2 105H25l-1-265h48c2 10 0 23 3 31 11-24 29-35 60-35zM114-30c33 0 39-31 40-66 0-38-9-64-40-64-56 0-55 130 0 130" id="aH"/><path fill="#333" d="M115-3C79 11 28 4 28-45v-112H4v-33h27l15-45h31v45h36v33H77v99c-1 23 16 31 38 25v30" id="aI"/><path fill="#333" d="M25-224v-37h50v37H25zM25 0v-190h50V0H25" id="aJ"/><path fill="#333" d="M220-157c-53 9-28 100-34 157h-49v-107c1-27-5-49-29-50C55-147 81-57 75 0H25l-1-190h47c2 12-1 28 3 38 10-53 101-56 108 0 13-22 24-43 59-42 82 1 51 116 57 194h-49v-107c-1-25-5-48-29-50" id="aK"/><path fill="#333" d="M137-138c1-29-70-34-71-4 15 46 118 7 119 86 1 83-164 76-172 9l43-7c4 19 20 25 44 25 33 8 57-30 24-41C81-84 22-81 20-136c-2-80 154-74 161-7" id="aL"/><path fill="#333" d="M102-93c0 74-22 123-52 168H0C30 29 54-18 53-93c0-74-22-123-53-168h50c30 45 52 94 52 168" id="aM"/><g id="j"><use transform="matrix(0.09259259259259256,0,0,0.09259259259259256,0,0)" xlink:href="#aF"/><use transform="matrix(0.09259259259259256,0,0,0.09259259259259256,11.018518518518515,0)" xlink:href="#aG"/><use transform="matrix(0.09259259259259256,0,0,0.09259259259259256,36.94444444444443,0)" xlink:href="#aH"/><use transform="matrix(0.09259259259259256,0,0,0.09259259259259256,57.2222222222222,0)" xlink:href="#aI"/><use transform="matrix(0.09259259259259256,0,0,0.09259259259259256,68.24074074074072,0)" xlink:href="#aJ"/><use transform="matrix(0.09259259259259256,0,0,0.09259259259259256,77.49999999999997,0)" xlink:href="#aK"/><use transform="matrix(0.09259259259259256,0,0,0.09259259259259256,107.12962962962959,0)" xlink:href="#aJ"/><use transform="matrix(0.09259259259259256,0,0,0.09259259259259256,116.38888888888884,0)" xlink:href="#aL"/><use transform="matrix(0.09259259259259256,0,0,0.09259259259259256,134.90740740740736,0)" xlink:href="#aK"/><use transform="matrix(0.09259259259259256,0,0,0.09259259259259256,164.53703703703698,0)" xlink:href="#aM"/></g><path fill="#333" d="M177-190C167-65 218 103 67 71c-23-6-38-20-44-43l32-5c15 47 100 32 89-28v-30C133-14 115 1 83 1 29 1 15-40 15-95c0-56 16-97 71-98 29-1 48 16 59 35 1-10 0-23 2-32h30zM94-22c36 0 50-32 50-73 0-42-14-75-50-75-39 0-46 34-46 75s6 73 46 73" id="aN"/><path fill="#333" d="M106-169C34-169 62-67 57 0H25v-261h32l-1 103c12-21 28-36 61-36 89 0 53 116 60 194h-32v-121c2-32-8-49-39-48" id="aO"/><g id="k"><use transform="matrix(0.06172839506172839,0,0,0.06172839506172839,0,0)" xlink:href="#aN"/><use transform="matrix(0.06172839506172839,0,0,0.06172839506172839,12.345679012345679,0)" xlink:href="#ao"/><use transform="matrix(0.06172839506172839,0,0,0.06172839506172839,24.691358024691358,0)" xlink:href="#al"/><use transform="matrix(0.06172839506172839,0,0,0.06172839506172839,30.864197530864196,0)" xlink:href="#aO"/></g><g id="l"><use transform="matrix(0.06172839506172839,0,0,0.06172839506172839,0,0)" xlink:href="#aN"/><use transform="matrix(0.06172839506172839,0,0,0.06172839506172839,12.345679012345679,0)" xlink:href="#ao"/><use transform="matrix(0.06172839506172839,0,0,0.06172839506172839,24.691358024691358,0)" xlink:href="#al"/><use transform="matrix(0.06172839506172839,0,0,0.06172839506172839,30.864197530864196,0)" xlink:href="#aO"/></g><path fill="#333" d="M87 75C49 33 22-17 22-94c0-76 28-126 65-167h31c-38 41-64 92-64 168S80 34 118 75H87" id="aP"/><path fill="#333" d="M210-169c-67 3-38 105-44 169h-31v-121c0-29-5-50-35-48C34-165 62-65 56 0H25l-1-190h30c1 10-1 24 2 32 10-44 99-50 107 0 11-21 27-35 58-36 85-2 47 119 55 194h-31v-121c0-29-5-49-35-48" id="aQ"/><path fill="#333" d="M101-234c-31-9-42 10-38 44h38v23H63V0H32v-167H5v-23h27c-7-52 17-82 69-68v24" id="aR"/><path fill="#333" d="M33-261c38 41 65 92 65 168S71 34 33 75H2C39 34 66-17 66-93S39-220 2-261h31" id="aS"/><g id="m"><use transform="matrix(0.06172839506172839,0,0,0.06172839506172839,0,0)" xlink:href="#aP"/><use transform="matrix(0.06172839506172839,0,0,0.06172839506172839,7.345679012345679,0)" xlink:href="#aQ"/><use transform="matrix(0.06172839506172839,0,0,0.06172839506172839,25.80246913580247,0)" xlink:href="#aw"/><use transform="matrix(0.06172839506172839,0,0,0.06172839506172839,38.148148148148145,0)" xlink:href="#aq"/><use transform="matrix(0.06172839506172839,0,0,0.06172839506172839,50.49382716049382,0)" xlink:href="#am"/><use transform="matrix(0.06172839506172839,0,0,0.06172839506172839,55.37037037037037,0)" xlink:href="#aR"/><use transform="matrix(0.06172839506172839,0,0,0.06172839506172839,61.54320987654321,0)" xlink:href="#am"/><use transform="matrix(0.06172839506172839,0,0,0.06172839506172839,66.41975308641975,0)" xlink:href="#ao"/><use transform="matrix(0.06172839506172839,0,0,0.06172839506172839,78.76543209876543,0)" xlink:href="#aq"/><use transform="matrix(0.06172839506172839,0,0,0.06172839506172839,91.11111111111111,0)" xlink:href="#aS"/></g><g id="n"><use transform="matrix(0.06172839506172839,0,0,0.06172839506172839,0,0)" xlink:href="#au"/><use transform="matrix(0.06172839506172839,0,0,0.06172839506172839,13.580246913580245,0)" xlink:href="#ao"/><use transform="matrix(0.06172839506172839,0,0,0.06172839506172839,25.925925925925924,0)" xlink:href="#ar"/><use transform="matrix(0.06172839506172839,0,0,0.06172839506172839,33.2716049382716,0)" xlink:href="#am"/><use transform="matrix(0.06172839506172839,0,0,0.06172839506172839,38.148148148148145,0)" xlink:href="#aR"/><use transform="matrix(0.06172839506172839,0,0,0.06172839506172839,44.32098765432099,0)" xlink:href="#am"/><use transform="matrix(0.06172839506172839,0,0,0.06172839506172839,49.19753086419753,0)" xlink:href="#av"/><use transform="matrix(0.06172839506172839,0,0,0.06172839506172839,60.308641975308646,0)" xlink:href="#ap"/><use transform="matrix(0.06172839506172839,0,0,0.06172839506172839,72.65432098765433,0)" xlink:href="#al"/><use transform="matrix(0.06172839506172839,0,0,0.06172839506172839,78.82716049382717,0)" xlink:href="#am"/><use transform="matrix(0.06172839506172839,0,0,0.06172839506172839,83.70370370370371,0)" xlink:href="#aw"/><use transform="matrix(0.06172839506172839,0,0,0.06172839506172839,96.0493827160494,0)" xlink:href="#ax"/></g><path fill="#333" d="M143 4C61 4 22-44 18-125c-5-107 100-154 193-111 17 8 29 25 37 43l-32 9c-13-25-37-40-76-40-61 0-88 39-88 99 0 61 29 100 91 101 35 0 62-11 79-27v-45h-74v-28h105v86C228-13 192 4 143 4" id="aT"/><path fill="#333" d="M206 0h-36l-40-164L89 0H53L-1-190h32L70-26l43-164h34l41 164 42-164h31" id="aU"/><path fill="#333" d="M179-190L93 31C79 59 56 82 12 73V49c39 6 53-20 64-50L1-190h34L92-34l54-156h33" id="aV"/><g id="o"><use transform="matrix(0.06172839506172839,0,0,0.06172839506172839,0,0)" xlink:href="#aT"/><use transform="matrix(0.06172839506172839,0,0,0.06172839506172839,17.28395061728395,0)" xlink:href="#ap"/><use transform="matrix(0.06172839506172839,0,0,0.06172839506172839,29.629629629629626,0)" xlink:href="#al"/><use transform="matrix(0.06172839506172839,0,0,0.06172839506172839,35.80246913580247,0)" xlink:href="#ao"/><use transform="matrix(0.06172839506172839,0,0,0.06172839506172839,48.148148148148145,0)" xlink:href="#aU"/><use transform="matrix(0.06172839506172839,0,0,0.06172839506172839,64.1358024691358,0)" xlink:href="#ap"/><use transform="matrix(0.06172839506172839,0,0,0.06172839506172839,76.48148148148148,0)" xlink:href="#aV"/></g><path fill="#333" d="M182-130c37 4 62 22 62 59C244 23 116-4 24 0v-248c84 5 203-23 205 63 0 31-19 50-47 55zM76-148c40-3 101 13 101-30 0-44-60-28-101-31v61zm0 110c48-3 116 14 116-37 0-48-69-32-116-35v72" id="aW"/><path fill="#333" d="M169-182c-1-43-94-46-97-3 18 66 151 10 154 114 3 95-165 93-204 36-6-8-10-19-12-30l50-8c3 46 112 56 116 5-17-69-150-10-154-114-4-87 153-88 188-35 5 8 8 18 10 28" id="aX"/><g id="p"><use transform="matrix(0.06172839506172839,0,0,0.06172839506172839,0,0)" xlink:href="#aW"/><use transform="matrix(0.06172839506172839,0,0,0.06172839506172839,15.987654320987653,0)" xlink:href="#aC"/><use transform="matrix(0.06172839506172839,0,0,0.06172839506172839,29.50617283950617,0)" xlink:href="#aX"/></g><path fill="#333" d="M195-6C206 82 75 100 31 46c-4-6-6-13-8-21l49-6c3 16 16 24 34 25 40 0 42-37 40-79-11 22-30 35-61 35-53 0-70-43-70-97 0-56 18-96 73-97 30 0 46 14 59 34l2-30h47zm-90-29c32 0 41-27 41-63 0-35-9-62-40-62-32 0-39 29-40 63 0 36 9 62 39 62" id="aY"/><g id="q"><use transform="matrix(0.06172839506172839,0,0,0.06172839506172839,0,0)" xlink:href="#aX"/><use transform="matrix(0.06172839506172839,0,0,0.06172839506172839,14.814814814814813,0)" xlink:href="#aJ"/><use transform="matrix(0.06172839506172839,0,0,0.06172839506172839,20.98765432098765,0)" xlink:href="#aY"/></g><path fill="#333" d="M199 0l-22-63H83L61 0H9l90-248h61L250 0h-51zm-33-102l-36-108c-10 38-24 72-36 108h72" id="aZ"/><path fill="#333" d="M135-150c-39-12-60 13-60 57V0H25l-1-190h47c2 13-1 29 3 40 6-28 27-53 61-41v41" id="ba"/><path fill="#333" d="M185-48c-13 30-37 53-82 52C43 2 14-33 14-96s30-98 90-98c62 0 83 45 84 108H66c0 31 8 55 39 56 18 0 30-7 34-22zm-45-69c5-46-57-63-70-21-2 6-4 13-4 21h74" id="bb"/><path fill="#333" d="M133-34C117-15 103 5 69 4 32 3 11-16 11-54c-1-60 55-63 116-61 1-26-3-47-28-47-18 1-26 9-28 27l-52-2c7-38 36-58 82-57s74 22 75 68l1 82c-1 14 12 18 25 15v27c-30 8-71 5-69-32zm-48 3c29 0 43-24 42-57-32 0-66-3-65 30 0 17 8 27 23 27" id="bc"/><path fill="#333" d="M110-194c64 0 96 36 96 99 0 64-35 99-97 99-61 0-95-36-95-99 0-62 34-99 96-99zm-1 164c35 0 45-28 45-65 0-40-10-65-43-65-34 0-45 26-45 65 0 36 10 65 43 65" id="bd"/><path fill="#333" d="M135-194c87-1 58 113 63 194h-50c-7-57 23-157-34-157-59 0-34 97-39 157H25l-1-190h47c2 12-1 28 3 38 12-26 28-41 61-42" id="be"/><g id="r"><use transform="matrix(0.06172839506172839,0,0,0.06172839506172839,0,0)" xlink:href="#aZ"/><use transform="matrix(0.06172839506172839,0,0,0.06172839506172839,15.987654320987653,0)" xlink:href="#aY"/><use transform="matrix(0.06172839506172839,0,0,0.06172839506172839,29.50617283950617,0)" xlink:href="#aY"/><use transform="matrix(0.06172839506172839,0,0,0.06172839506172839,43.02469135802469,0)" xlink:href="#ba"/><use transform="matrix(0.06172839506172839,0,0,0.06172839506172839,51.666666666666664,0)" xlink:href="#bb"/><use transform="matrix(0.06172839506172839,0,0,0.06172839506172839,64.01234567901234,0)" xlink:href="#aY"/><use transform="matrix(0.06172839506172839,0,0,0.06172839506172839,77.53086419753086,0)" xlink:href="#bc"/><use transform="matrix(0.06172839506172839,0,0,0.06172839506172839,89.87654320987654,0)" xlink:href="#aI"/><use transform="matrix(0.06172839506172839,0,0,0.06172839506172839,97.22222222222223,0)" xlink:href="#aJ"/><use transform="matrix(0.06172839506172839,0,0,0.06172839506172839,103.39506172839506,0)" xlink:href="#bd"/><use transform="matrix(0.06172839506172839,0,0,0.06172839506172839,116.91358024691358,0)" xlink:href="#be"/></g><use transform="matrix(0.04938271604938272,0,0,0.04938271604938272,0,0)" xlink:href="#be" id="s"/><path fill="#333" d="M144 0l-44-69L55 0H2l70-98-66-92h53l41 62 40-62h54l-67 91 71 99h-54" id="bf"/><use transform="matrix(0.04938271604938272,0,0,0.04938271604938272,0,0)" xlink:href="#bf" id="t"/><path fill="#333" d="M121-226c-27-7-43 5-38 36h38v33H83V0H34v-157H6v-33h28c-9-59 32-81 87-68v32" id="bg"/><g id="u"><use transform="matrix(0.04938271604938272,0,0,0.04938271604938272,0,0)" xlink:href="#aF"/><use transform="matrix(0.04938271604938272,0,0,0.04938271604938272,5.8765432098765435,0)" xlink:href="#aI"/><use transform="matrix(0.04938271604938272,0,0,0.04938271604938272,11.753086419753087,0)" xlink:href="#ba"/><use transform="matrix(0.04938271604938272,0,0,0.04938271604938272,18.666666666666668,0)" xlink:href="#bc"/><use transform="matrix(0.04938271604938272,0,0,0.04938271604938272,28.543209876543212,0)" xlink:href="#be"/><use transform="matrix(0.04938271604938272,0,0,0.04938271604938272,39.358024691358025,0)" xlink:href="#aL"/><use transform="matrix(0.04938271604938272,0,0,0.04938271604938272,49.23456790123457,0)" xlink:href="#bg"/><use transform="matrix(0.04938271604938272,0,0,0.04938271604938272,55.111111111111114,0)" xlink:href="#bb"/><use transform="matrix(0.04938271604938272,0,0,0.04938271604938272,64.98765432098766,0)" xlink:href="#ba"/><use transform="matrix(0.04938271604938272,0,0,0.04938271604938272,71.90123456790124,0)" xlink:href="#aF"/><use transform="matrix(0.04938271604938272,0,0,0.04938271604938272,77.77777777777779,0)" xlink:href="#aM"/></g><path fill="#333" d="M125-100v72H85v-72H15v-39h70v-72h40v72h71v39h-71" id="bh"/><use transform="matrix(0.04938271604938272,0,0,0.04938271604938272,0,0)" xlink:href="#bh" id="w"/><path fill="#333" d="M14-72v-43h91v43H14" id="bi"/><g id="x"><use transform="matrix(0.04938271604938272,0,0,0.04938271604938272,0,0)" xlink:href="#aW"/><use transform="matrix(0.04938271604938272,0,0,0.04938271604938272,12.790123456790125,0)" xlink:href="#aC"/><use transform="matrix(0.04938271604938272,0,0,0.04938271604938272,23.60493827160494,0)" xlink:href="#aX"/><use transform="matrix(0.04938271604938272,0,0,0.04938271604938272,35.45679012345679,0)" xlink:href="#bi"/><use transform="matrix(0.04938271604938272,0,0,0.04938271604938272,41.333333333333336,0)" xlink:href="#aL"/><use transform="matrix(0.04938271604938272,0,0,0.04938271604938272,51.20987654320988,0)" xlink:href="#aJ"/><use transform="matrix(0.04938271604938272,0,0,0.04938271604938272,56.14814814814815,0)" xlink:href="#aY"/><use transform="matrix(0.04938271604938272,0,0,0.04938271604938272,66.96296296296296,0)" xlink:href="#aM"/></g><path fill="#333" d="M67-125c0 53 21 87 73 88 37 1 54-22 65-47l45 17C233-25 199 4 140 4 58 4 20-42 15-125 8-235 124-281 211-232c18 10 29 29 36 50l-46 12c-8-25-30-41-62-41-52 0-71 34-72 86" id="bj"/><path fill="#333" d="M24-248c120-7 223 5 221 122C244-46 201 0 124 0H24v-248zM76-40c74 7 117-18 117-86 0-67-45-88-117-82v168" id="bk"/><path fill="#333" d="M136-208V0H84v-208H4v-40h212v40h-80" id="bl"/><g id="y"><use transform="matrix(0.04938271604938272,0,0,0.04938271604938272,0,0)" xlink:href="#bj"/><use transform="matrix(0.04938271604938272,0,0,0.04938271604938272,12.790123456790125,0)" xlink:href="#aZ"/><use transform="matrix(0.04938271604938272,0,0,0.04938271604938272,25.58024691358025,0)" xlink:href="#aC"/><use transform="matrix(0.04938271604938272,0,0,0.04938271604938272,36.39506172839506,0)" xlink:href="#aC"/><use transform="matrix(0.04938271604938272,0,0,0.04938271604938272,47.20987654320988,0)" xlink:href="#bk"/><use transform="matrix(0.04938271604938272,0,0,0.04938271604938272,60.00000000000001,0)" xlink:href="#aZ"/><use transform="matrix(0.04938271604938272,0,0,0.04938271604938272,71.4567901234568,0)" xlink:href="#bl"/><use transform="matrix(0.04938271604938272,0,0,0.04938271604938272,80.93827160493828,0)" xlink:href="#aZ"/></g><use transform="matrix(0.04938271604938272,0,0,0.04938271604938272,0,0)" xlink:href="#be" id="z"/><use transform="matrix(0.04938271604938272,0,0,0.04938271604938272,0,0)" xlink:href="#bf" id="A"/><g id="B"><use transform="matrix(0.04938271604938272,0,0,0.04938271604938272,0,0)" xlink:href="#aI"/><use transform="matrix(0.04938271604938272,0,0,0.04938271604938272,5.8765432098765435,0)" xlink:href="#bf"/></g><path fill="#333" d="M88-194c31-1 46 15 58 34l-1-101h50l1 261h-48c-2-10 0-23-3-31C134-8 116 4 84 4 32 4 16-41 15-95c0-56 19-97 73-99zm17 164c33 0 40-30 41-66 1-37-9-64-41-64s-38 30-39 65c0 43 13 65 39 65" id="bm"/><g id="C"><use transform="matrix(0.04938271604938272,0,0,0.04938271604938272,0,0)" xlink:href="#bm"/><use transform="matrix(0.04938271604938272,0,0,0.04938271604938272,10.814814814814815,0)" xlink:href="#bc"/><use transform="matrix(0.04938271604938272,0,0,0.04938271604938272,20.69135802469136,0)" xlink:href="#aI"/><use transform="matrix(0.04938271604938272,0,0,0.04938271604938272,26.567901234567902,0)" xlink:href="#bc"/></g><path fill="#7ab648" d="M23 0v-37h61v-169l-59 37v-38l62-41h46v211h57V0H23" id="bn"/><use transform="matrix(0.04938271604938272,0,0,0.04938271604938272,0,0)" xlink:href="#bn" id="D"/><path fill="#7ab648" d="M144 0l-44-69L55 0H2l70-98-66-92h53l41 62 40-62h54l-67 91 71 99h-54" id="bo"/><use transform="matrix(0.04938271604938272,0,0,0.04938271604938272,0,0)" xlink:href="#bo" id="E"/><path fill="#7ab648" d="M133-34C117-15 103 5 69 4 32 3 11-16 11-54c-1-60 55-63 116-61 1-26-3-47-28-47-18 1-26 9-28 27l-52-2c7-38 36-58 82-57s74 22 75 68l1 82c-1 14 12 18 25 15v27c-30 8-71 5-69-32zm-48 3c29 0 43-24 42-57-32 0-66-3-65 30 0 17 8 27 23 27" id="bp"/><path fill="#7ab648" d="M195-6C206 82 75 100 31 46c-4-6-6-13-8-21l49-6c3 16 16 24 34 25 40 0 42-37 40-79-11 22-30 35-61 35-53 0-70-43-70-97 0-56 18-96 73-97 30 0 46 14 59 34l2-30h47zm-90-29c32 0 41-27 41-63 0-35-9-62-40-62-32 0-39 29-40 63 0 36 9 62 39 62" id="bq"/><path fill="#7ab648" d="M24 0v-54h51V0H24" id="br"/><g id="F"><use transform="matrix(0.04938271604938272,0,0,0.04938271604938272,0,0)" xlink:href="#bp"/><use transform="matrix(0.04938271604938272,0,0,0.04938271604938272,9.876543209876544,0)" xlink:href="#bq"/><use transform="matrix(0.04938271604938272,0,0,0.04938271604938272,20.69135802469136,0)" xlink:href="#bq"/><use transform="matrix(0.04938271604938272,0,0,0.04938271604938272,31.506172839506174,0)" xlink:href="#br"/></g><path fill="#7ab648" d="M182-130c37 4 62 22 62 59C244 23 116-4 24 0v-248c84 5 203-23 205 63 0 31-19 50-47 55zM76-148c40-3 101 13 101-30 0-44-60-28-101-31v61zm0 110c48-3 116 14 116-37 0-48-69-32-116-35v72" id="bs"/><path fill="#7ab648" d="M24 0v-248h52v208h133V0H24" id="bt"/><path fill="#7ab648" d="M169-182c-1-43-94-46-97-3 18 66 151 10 154 114 3 95-165 93-204 36-6-8-10-19-12-30l50-8c3 46 112 56 116 5-17-69-150-10-154-114-4-87 153-88 188-35 5 8 8 18 10 28" id="bu"/><path fill="#7ab648" d="M14-72v-43h91v43H14" id="bv"/><path fill="#7ab648" d="M137-138c1-29-70-34-71-4 15 46 118 7 119 86 1 83-164 76-172 9l43-7c4 19 20 25 44 25 33 8 57-30 24-41C81-84 22-81 20-136c-2-80 154-74 161-7" id="bw"/><path fill="#7ab648" d="M25-224v-37h50v37H25zM25 0v-190h50V0H25" id="bx"/><g id="G"><use transform="matrix(0.04938271604938272,0,0,0.04938271604938272,0,0)" xlink:href="#bs"/><use transform="matrix(0.04938271604938272,0,0,0.04938271604938272,12.790123456790125,0)" xlink:href="#bt"/><use transform="matrix(0.04938271604938272,0,0,0.04938271604938272,23.60493827160494,0)" xlink:href="#bu"/><use transform="matrix(0.04938271604938272,0,0,0.04938271604938272,35.45679012345679,0)" xlink:href="#bv"/><use transform="matrix(0.04938271604938272,0,0,0.04938271604938272,41.333333333333336,0)" xlink:href="#bw"/><use transform="matrix(0.04938271604938272,0,0,0.04938271604938272,51.20987654320988,0)" xlink:href="#bx"/><use transform="matrix(0.04938271604938272,0,0,0.04938271604938272,56.14814814814815,0)" xlink:href="#bq"/></g><path fill="#7ab648" d="M67-125c0 53 21 87 73 88 37 1 54-22 65-47l45 17C233-25 199 4 140 4 58 4 20-42 15-125 8-235 124-281 211-232c18 10 29 29 36 50l-46 12c-8-25-30-41-62-41-52 0-71 34-72 86" id="by"/><path fill="#7ab648" d="M199 0l-22-63H83L61 0H9l90-248h61L250 0h-51zm-33-102l-36-108c-10 38-24 72-36 108h72" id="bz"/><path fill="#7ab648" d="M24-248c120-7 223 5 221 122C244-46 201 0 124 0H24v-248zM76-40c74 7 117-18 117-86 0-67-45-88-117-82v168" id="bA"/><path fill="#7ab648" d="M136-208V0H84v-208H4v-40h212v40h-80" id="bB"/><g id="H"><use transform="matrix(0.061728395061728385,0,0,0.061728395061728385,0,0)" xlink:href="#by"/><use transform="matrix(0.061728395061728385,0,0,0.061728395061728385,15.987654320987652,0)" xlink:href="#bz"/><use transform="matrix(0.061728395061728385,0,0,0.061728395061728385,31.975308641975303,0)" xlink:href="#bt"/><use transform="matrix(0.061728395061728385,0,0,0.061728395061728385,45.49382716049382,0)" xlink:href="#bt"/><use transform="matrix(0.061728395061728385,0,0,0.061728395061728385,59.01234567901234,0)" xlink:href="#bA"/><use transform="matrix(0.061728395061728385,0,0,0.061728395061728385,75,0)" xlink:href="#bz"/><use transform="matrix(0.061728395061728385,0,0,0.061728395061728385,89.32098765432099,0)" xlink:href="#bB"/><use transform="matrix(0.061728395061728385,0,0,0.061728395061728385,101.17283950617283,0)" xlink:href="#bz"/></g><path fill="#7ab648" d="M275 0h-61l-44-196L126 0H64L0-248h53L97-49l45-199h58l43 199 44-199h52" id="bC"/><path fill="#7ab648" d="M24 0v-248h52V0H24" id="bD"/><path fill="#7ab648" d="M186 0v-106H76V0H24v-248h52v99h110v-99h50V0h-50" id="bE"/><g id="I"><use transform="matrix(0.061728395061728385,0,0,0.061728395061728385,0,0)" xlink:href="#bC"/><use transform="matrix(0.061728395061728385,0,0,0.061728395061728385,20.925925925925924,0)" xlink:href="#bD"/><use transform="matrix(0.061728395061728385,0,0,0.061728395061728385,27.098765432098762,0)" xlink:href="#bB"/><use transform="matrix(0.061728395061728385,0,0,0.061728395061728385,40.61728395061728,0)" xlink:href="#bE"/></g><path fill="#7ab648" d="M175 0L67-191c6 58 2 128 3 191H24v-248h59L193-55c-6-58-2-129-3-193h46V0h-61" id="bF"/><path fill="#7ab648" d="M67-125c0 54 23 88 75 88 28 0 53-7 68-21v-34h-60v-39h108v91C232-14 192 4 140 4 58 4 20-42 15-125 8-236 126-280 215-234c19 10 29 26 37 47l-47 15c-11-23-29-39-63-39-53 1-75 33-75 86" id="bG"/><path fill="#7ab648" d="M24 0v-248h195v40H76v63h132v40H76v65h150V0H24" id="bH"/><g id="J"><use transform="matrix(0.061728395061728385,0,0,0.061728395061728385,0,0)" xlink:href="#bu"/><use transform="matrix(0.061728395061728385,0,0,0.061728395061728385,14.814814814814813,0)" xlink:href="#bD"/><use transform="matrix(0.061728395061728385,0,0,0.061728395061728385,20.98765432098765,0)" xlink:href="#bF"/><use transform="matrix(0.061728395061728385,0,0,0.061728395061728385,36.9753086419753,0)" xlink:href="#bG"/><use transform="matrix(0.061728395061728385,0,0,0.061728395061728385,54.25925925925925,0)" xlink:href="#bt"/><use transform="matrix(0.061728395061728385,0,0,0.061728395061728385,67.77777777777777,0)" xlink:href="#bH"/></g><path fill="#7ab648" d="M238-95c0 69-44 99-111 99C63 4 22-25 22-93v-155h51v151c-1 38 19 59 55 60 90 1 49-130 58-211h52v153" id="bI"/><path fill="#7ab648" d="M240-174c0 40-23 61-54 70L253 0h-59l-57-94H76V0H24v-248c93 4 217-23 216 74zM76-134c48-2 112 12 112-38 0-48-66-32-112-35v73" id="bJ"/><g id="K"><use transform="matrix(0.061728395061728385,0,0,0.061728395061728385,0,0)" xlink:href="#bu"/><use transform="matrix(0.061728395061728385,0,0,0.061728395061728385,14.814814814814813,0)" xlink:href="#bD"/><use transform="matrix(0.061728395061728385,0,0,0.061728395061728385,20.98765432098765,0)" xlink:href="#bG"/><use transform="matrix(0.061728395061728385,0,0,0.061728395061728385,38.2716049382716,0)" xlink:href="#bF"/><use transform="matrix(0.061728395061728385,0,0,0.061728395061728385,54.25925925925925,0)" xlink:href="#bz"/><use transform="matrix(0.061728395061728385,0,0,0.061728395061728385,68.58024691358024,0)" xlink:href="#bB"/><use transform="matrix(0.061728395061728385,0,0,0.061728395061728385,82.09876543209876,0)" xlink:href="#bI"/><use transform="matrix(0.061728395061728385,0,0,0.061728395061728385,98.0864197530864,0)" xlink:href="#bJ"/><use transform="matrix(0.061728395061728385,0,0,0.061728395061728385,114.07407407407405,0)" xlink:href="#bH"/></g><path fill="#333" d="M275 0h-61l-44-196L126 0H64L0-248h53L97-49l45-199h58l43 199 44-199h52" id="bK"/><path fill="#333" d="M135-194c52 0 70 43 70 98 0 56-19 99-73 100-30 1-46-15-58-35L72 0H24l1-261h50v104c11-23 29-37 60-37zM114-30c31 0 40-27 40-66 0-37-7-63-39-63s-41 28-41 65c0 36 8 64 40 64" id="bL"/><path fill="#333" d="M24 0v-54h51V0H24" id="bM"/><path fill="#333" d="M101-251c68 0 84 54 84 127C185-50 166 4 99 4S15-52 14-124c-1-75 17-127 87-127zm-1 216c37-5 36-46 36-89s4-89-36-89c-39 0-36 45-36 89 0 43-3 85 36 89" id="bN"/><g id="L"><use transform="matrix(0.09259259259259256,0,0,0.09259259259259256,0,0)" xlink:href="#bK"/><use transform="matrix(0.09259259259259256,0,0,0.09259259259259256,30.74074074074073,0)" xlink:href="#bb"/><use transform="matrix(0.09259259259259256,0,0,0.09259259259259256,49.25925925925924,0)" xlink:href="#bL"/><use transform="matrix(0.09259259259259256,0,0,0.09259259259259256,69.53703703703701,0)" xlink:href="#aE"/><use transform="matrix(0.09259259259259256,0,0,0.09259259259259256,88.05555555555551,0)" xlink:href="#bM"/><use transform="matrix(0.09259259259259256,0,0,0.09259259259259256,97.31481481481475,0)" xlink:href="#bN"/></g><path fill="#333" d="M212-179c-10-28-35-45-73-45-59 0-87 40-87 99 0 60 29 101 89 101 43 0 62-24 78-52l27 14C228-24 195 4 139 4 59 4 22-46 18-125c-6-104 99-153 187-111 19 9 31 26 39 46" id="bO"/><g id="M"><use transform="matrix(0.06172839506172839,0,0,0.06172839506172839,0,0)" xlink:href="#bO"/><use transform="matrix(0.06172839506172839,0,0,0.06172839506172839,15.987654320987653,0)" xlink:href="#aw"/><use transform="matrix(0.06172839506172839,0,0,0.06172839506172839,28.333333333333332,0)" xlink:href="#ax"/><use transform="matrix(0.06172839506172839,0,0,0.06172839506172839,40.67901234567901,0)" xlink:href="#al"/><use transform="matrix(0.06172839506172839,0,0,0.06172839506172839,46.851851851851855,0)" xlink:href="#ar"/><use transform="matrix(0.06172839506172839,0,0,0.06172839506172839,54.19753086419753,0)" xlink:href="#ap"/><use transform="matrix(0.06172839506172839,0,0,0.06172839506172839,66.54320987654322,0)" xlink:href="#av"/><use transform="matrix(0.06172839506172839,0,0,0.06172839506172839,77.65432098765433,0)" xlink:href="#al"/></g><path fill="#333" d="M266 0h-40l-56-210L115 0H75L2-248h35L96-30l15-64 43-154h32l59 218 59-218h35" id="bP"/><g id="N"><use transform="matrix(0.06172839506172839,0,0,0.06172839506172839,0,0)" xlink:href="#bP"/><use transform="matrix(0.06172839506172839,0,0,0.06172839506172839,20.123456790123456,0)" xlink:href="#ap"/><use transform="matrix(0.06172839506172839,0,0,0.06172839506172839,32.46913580246913,0)" xlink:href="#ak"/><use transform="matrix(0.06172839506172839,0,0,0.06172839506172839,37.34567901234568,0)" xlink:href="#ak"/><use transform="matrix(0.06172839506172839,0,0,0.06172839506172839,42.22222222222222,0)" xlink:href="#ao"/><use transform="matrix(0.06172839506172839,0,0,0.06172839506172839,54.5679012345679,0)" xlink:href="#al"/><use transform="matrix(0.06172839506172839,0,0,0.06172839506172839,60.74074074074074,0)" xlink:href="#as"/></g><g id="O"><use transform="matrix(0.12345679012345674,0,0,0.12345679012345674,0,0)" xlink:href="#aW"/><use transform="matrix(0.12345679012345674,0,0,0.12345679012345674,31.975308641975296,0)" xlink:href="#aC"/><use transform="matrix(0.12345679012345674,0,0,0.12345679012345674,59.01234567901233,0)" xlink:href="#aX"/></g><path fill="#333" d="M85 4C-2 5 27-109 22-190h50c7 57-23 150 33 157 60-5 35-97 40-157h50l1 190h-47c-2-12 1-28-3-38-12 25-28 42-61 42" id="bQ"/><g id="P"><use transform="matrix(0.12345679012345674,0,0,0.12345679012345674,0,0)" xlink:href="#aX"/><use transform="matrix(0.12345679012345674,0,0,0.12345679012345674,29.62962962962962,0)" xlink:href="#aJ"/><use transform="matrix(0.12345679012345674,0,0,0.12345679012345674,41.97530864197529,0)" xlink:href="#aY"/><use transform="matrix(0.12345679012345674,0,0,0.12345679012345674,69.01234567901231,0)" xlink:href="#be"/><use transform="matrix(0.12345679012345674,0,0,0.12345679012345674,96.04938271604934,0)" xlink:href="#bc"/><use transform="matrix(0.12345679012345674,0,0,0.12345679012345674,120.74074074074068,0)" xlink:href="#aI"/><use transform="matrix(0.12345679012345674,0,0,0.12345679012345674,135.43209876543202,0)" xlink:href="#bQ"/><use transform="matrix(0.12345679012345674,0,0,0.12345679012345674,162.46913580246905,0)" xlink:href="#ba"/><use transform="matrix(0.12345679012345674,0,0,0.12345679012345674,179.753086419753,0)" xlink:href="#bb"/></g><g id="Q"><use transform="matrix(0.12345679012345674,0,0,0.12345679012345674,0,0)" xlink:href="#aZ"/><use transform="matrix(0.12345679012345674,0,0,0.12345679012345674,31.975308641975296,0)" xlink:href="#aY"/><use transform="matrix(0.12345679012345674,0,0,0.12345679012345674,59.01234567901233,0)" xlink:href="#aY"/><use transform="matrix(0.12345679012345674,0,0,0.12345679012345674,86.04938271604935,0)" xlink:href="#ba"/><use transform="matrix(0.12345679012345674,0,0,0.12345679012345674,103.33333333333329,0)" xlink:href="#bb"/><use transform="matrix(0.12345679012345674,0,0,0.12345679012345674,128.02469135802463,0)" xlink:href="#aY"/><use transform="matrix(0.12345679012345674,0,0,0.12345679012345674,155.06172839506166,0)" xlink:href="#bc"/><use transform="matrix(0.12345679012345674,0,0,0.12345679012345674,179.753086419753,0)" xlink:href="#aI"/><use transform="matrix(0.12345679012345674,0,0,0.12345679012345674,194.44444444444434,0)" xlink:href="#aJ"/><use transform="matrix(0.12345679012345674,0,0,0.12345679012345674,206.79012345679,0)" xlink:href="#bd"/><use transform="matrix(0.12345679012345674,0,0,0.12345679012345674,233.82716049382705,0)" xlink:href="#be"/></g><g id="R"><use transform="matrix(0.10493827160493824,0,0,0.10493827160493824,0,0)" xlink:href="#aC"/><use transform="matrix(0.10493827160493824,0,0,0.10493827160493824,22.981481481481474,0)" xlink:href="#aD"/></g><g id="S"><use transform="matrix(0.10493827160493824,0,0,0.10493827160493824,0,0)" xlink:href="#aL"/><use transform="matrix(0.10493827160493824,0,0,0.10493827160493824,20.987654320987648,0)" xlink:href="#aI"/><use transform="matrix(0.10493827160493824,0,0,0.10493827160493824,33.475308641975296,0)" xlink:href="#bd"/><use transform="matrix(0.10493827160493824,0,0,0.10493827160493824,56.45679012345677,0)" xlink:href="#ba"/><use transform="matrix(0.10493827160493824,0,0,0.10493827160493824,71.14814814814812,0)" xlink:href="#bb"/><use transform="matrix(0.10493827160493824,0,0,0.10493827160493824,92.13580246913577,0)" xlink:href="#aL"/></g><g id="T"><use transform="matrix(0.10493827160493824,0,0,0.10493827160493824,0,0)" xlink:href="#aC"/><use transform="matrix(0.10493827160493824,0,0,0.10493827160493824,22.981481481481474,0)" xlink:href="#aE"/></g><path fill="#333" d="M25 0v-261h50V0H25" id="bR"/><g id="U"><use transform="matrix(0.10493827160493824,0,0,0.10493827160493824,0,0)" xlink:href="#bj"/><use transform="matrix(0.10493827160493824,0,0,0.10493827160493824,27.179012345679002,0)" xlink:href="#bc"/><use transform="matrix(0.10493827160493824,0,0,0.10493827160493824,48.16666666666665,0)" xlink:href="#bR"/><use transform="matrix(0.10493827160493824,0,0,0.10493827160493824,58.66049382716047,0)" xlink:href="#bR"/><use transform="matrix(0.10493827160493824,0,0,0.10493827160493824,69.1543209876543,0)" xlink:href="#bm"/><use transform="matrix(0.10493827160493824,0,0,0.10493827160493824,92.13580246913577,0)" xlink:href="#bc"/><use transform="matrix(0.10493827160493824,0,0,0.10493827160493824,113.12345679012343,0)" xlink:href="#aI"/><use transform="matrix(0.10493827160493824,0,0,0.10493827160493824,125.61111111111104,0)" xlink:href="#bc"/></g><g id="W"><use transform="matrix(0.10493827160493824,0,0,0.10493827160493824,0,0)" xlink:href="#aF"/><use transform="matrix(0.10493827160493824,0,0,0.10493827160493824,12.48765432098765,0)" xlink:href="#bL"/><use transform="matrix(0.10493827160493824,0,0,0.10493827160493824,35.469135802469125,0)" xlink:href="#bQ"/><use transform="matrix(0.10493827160493824,0,0,0.10493827160493824,58.4506172839506,0)" xlink:href="#aI"/></g><path fill="#333" d="M123 10C108 53 80 86 19 72V37c35 8 53-11 59-39L3-190h52l48 148c12-52 28-100 44-148h51" id="bS"/><g id="X"><use transform="matrix(0.10493827160493824,0,0,0.10493827160493824,0,0)" xlink:href="#bd"/><use transform="matrix(0.10493827160493824,0,0,0.10493827160493824,22.981481481481474,0)" xlink:href="#be"/><use transform="matrix(0.10493827160493824,0,0,0.10493827160493824,45.96296296296295,0)" xlink:href="#bR"/><use transform="matrix(0.10493827160493824,0,0,0.10493827160493824,56.45679012345677,0)" xlink:href="#bS"/></g><g id="Y"><use transform="matrix(0.10493827160493824,0,0,0.10493827160493824,0,0)" xlink:href="#bd"/><use transform="matrix(0.10493827160493824,0,0,0.10493827160493824,22.981481481481474,0)" xlink:href="#be"/><use transform="matrix(0.10493827160493824,0,0,0.10493827160493824,45.96296296296295,0)" xlink:href="#bb"/></g><g id="Z"><use transform="matrix(0.10493827160493824,0,0,0.10493827160493824,0,0)" xlink:href="#aW"/><use transform="matrix(0.10493827160493824,0,0,0.10493827160493824,27.179012345679002,0)" xlink:href="#aC"/><use transform="matrix(0.10493827160493824,0,0,0.10493827160493824,50.16049382716048,0)" xlink:href="#aX"/><use transform="matrix(0.10493827160493824,0,0,0.10493827160493824,75.34567901234566,0)" xlink:href="#bi"/><use transform="matrix(0.10493827160493824,0,0,0.10493827160493824,87.8333333333333,0)" xlink:href="#aL"/><use transform="matrix(0.10493827160493824,0,0,0.10493827160493824,108.82098765432096,0)" xlink:href="#aJ"/><use transform="matrix(0.10493827160493824,0,0,0.10493827160493824,119.31481481481478,0)" xlink:href="#aY"/><use transform="matrix(0.10493827160493824,0,0,0.10493827160493824,142.29629629629625,0)" xlink:href="#be"/><use transform="matrix(0.10493827160493824,0,0,0.10493827160493824,165.27777777777771,0)" xlink:href="#bc"/><use transform="matrix(0.10493827160493824,0,0,0.10493827160493824,186.26543209876536,0)" xlink:href="#aI"/><use transform="matrix(0.10493827160493824,0,0,0.10493827160493824,198.753086419753,0)" xlink:href="#bQ"/><use transform="matrix(0.10493827160493824,0,0,0.10493827160493824,221.73456790123444,0)" xlink:href="#ba"/><use transform="matrix(0.10493827160493824,0,0,0.10493827160493824,236.4259259259258,0)" xlink:href="#bb"/></g><g id="aa"><use transform="matrix(0.10493827160493824,0,0,0.10493827160493824,0,0)" xlink:href="#bg"/><use transform="matrix(0.10493827160493824,0,0,0.10493827160493824,12.48765432098765,0)" xlink:href="#bd"/><use transform="matrix(0.10493827160493824,0,0,0.10493827160493824,35.469135802469125,0)" xlink:href="#ba"/></g><g id="ab"><use transform="matrix(0.10493827160493824,0,0,0.10493827160493824,0,0)" xlink:href="#bc"/><use transform="matrix(0.10493827160493824,0,0,0.10493827160493824,20.987654320987648,0)" xlink:href="#bR"/><use transform="matrix(0.10493827160493824,0,0,0.10493827160493824,31.48148148148147,0)" xlink:href="#bR"/></g><path fill="#333" d="M190-63c-7 42-38 67-86 67-59 0-84-38-90-98-12-110 154-137 174-36l-49 2c-2-19-15-32-35-32-30 0-35 28-38 64-6 74 65 87 74 30" id="bT"/><g id="ac"><use transform="matrix(0.10493827160493824,0,0,0.10493827160493824,0,0)" xlink:href="#aI"/><use transform="matrix(0.10493827160493824,0,0,0.10493827160493824,12.48765432098765,0)" xlink:href="#ba"/><use transform="matrix(0.10493827160493824,0,0,0.10493827160493824,27.179012345679002,0)" xlink:href="#bc"/><use transform="matrix(0.10493827160493824,0,0,0.10493827160493824,48.16666666666666,0)" xlink:href="#be"/><use transform="matrix(0.10493827160493824,0,0,0.10493827160493824,71.14814814814812,0)" xlink:href="#aL"/><use transform="matrix(0.10493827160493824,0,0,0.10493827160493824,92.13580246913577,0)" xlink:href="#bc"/><use transform="matrix(0.10493827160493824,0,0,0.10493827160493824,113.12345679012343,0)" xlink:href="#bT"/><use transform="matrix(0.10493827160493824,0,0,0.10493827160493824,134.11111111111106,0)" xlink:href="#aI"/><use transform="matrix(0.10493827160493824,0,0,0.10493827160493824,146.5987654320987,0)" xlink:href="#aJ"/><use transform="matrix(0.10493827160493824,0,0,0.10493827160493824,157.09259259259252,0)" xlink:href="#bd"/><use transform="matrix(0.10493827160493824,0,0,0.10493827160493824,180.074074074074,0)" xlink:href="#be"/><use transform="matrix(0.10493827160493824,0,0,0.10493827160493824,203.05555555555546,0)" xlink:href="#aL"/></g><g id="ad"><use transform="matrix(0.10493827160493824,0,0,0.10493827160493824,0,0)" xlink:href="#aJ"/><use transform="matrix(0.10493827160493824,0,0,0.10493827160493824,10.493827160493824,0)" xlink:href="#be"/></g><use transform="matrix(0.10493827160493824,0,0,0.10493827160493824,0,0)" xlink:href="#bc" id="ae"/><path fill="#333" d="M114-157C55-157 80-60 75 0H25v-261h50l-1 109c12-26 28-41 61-42 86-1 58 113 63 194h-50c-7-57 23-157-34-157" id="bU"/><g id="af"><use transform="matrix(0.10493827160493824,0,0,0.10493827160493824,0,0)" xlink:href="#bL"/><use transform="matrix(0.10493827160493824,0,0,0.10493827160493824,22.981481481481474,0)" xlink:href="#bc"/><use transform="matrix(0.10493827160493824,0,0,0.10493827160493824,43.969135802469125,0)" xlink:href="#aI"/><use transform="matrix(0.10493827160493824,0,0,0.10493827160493824,56.45679012345677,0)" xlink:href="#bT"/><use transform="matrix(0.10493827160493824,0,0,0.10493827160493824,77.44444444444443,0)" xlink:href="#bU"/><use transform="matrix(0.10493827160493824,0,0,0.10493827160493824,100.4259259259259,0)" xlink:href="#aM"/></g><path fill="#333" d="M127-220V0H93v-220H8v-28h204v28h-85" id="bV"/><g id="ag"><use transform="matrix(0.06172839506172839,0,0,0.06172839506172839,0,0)" xlink:href="#bV"/><use transform="matrix(0.06172839506172839,0,0,0.06172839506172839,11.049382716049381,0)" xlink:href="#ap"/><use transform="matrix(0.06172839506172839,0,0,0.06172839506172839,23.39506172839506,0)" xlink:href="#ar"/><use transform="matrix(0.06172839506172839,0,0,0.06172839506172839,30.74074074074074,0)" xlink:href="#aN"/><use transform="matrix(0.06172839506172839,0,0,0.06172839506172839,43.08641975308642,0)" xlink:href="#ao"/><use transform="matrix(0.06172839506172839,0,0,0.06172839506172839,55.432098765432094,0)" xlink:href="#al"/></g><g id="ah"><use transform="matrix(0.06172839506172839,0,0,0.06172839506172839,0,0)" xlink:href="#bO"/><use transform="matrix(0.06172839506172839,0,0,0.06172839506172839,15.987654320987653,0)" xlink:href="#aw"/><use transform="matrix(0.06172839506172839,0,0,0.06172839506172839,28.333333333333332,0)" xlink:href="#ax"/><use transform="matrix(0.06172839506172839,0,0,0.06172839506172839,40.67901234567901,0)" xlink:href="#al"/><use transform="matrix(0.06172839506172839,0,0,0.06172839506172839,46.851851851851855,0)" xlink:href="#ar"/><use transform="matrix(0.06172839506172839,0,0,0.06172839506172839,54.19753086419753,0)" xlink:href="#ap"/><use transform="matrix(0.06172839506172839,0,0,0.06172839506172839,66.54320987654322,0)" xlink:href="#av"/><use transform="matrix(0.06172839506172839,0,0,0.06172839506172839,77.65432098765433,0)" xlink:href="#al"/><use transform="matrix(0.06172839506172839,0,0,0.06172839506172839,83.82716049382717,0)" xlink:href="#as"/></g></defs></g></svg>