<svg xmlns="http://www.w3.org/2000/svg" xmlns:xlink="http://www.w3.org/1999/xlink" xmlns:lucid="lucid" width="1000" height="1026"><g transform="translate(20 20)" lucid:page-tab-id="0_0"><path d="M0 0h1870.87v1322.83H0z" fill="#fff"/><path d="M100 641c0-3.3 2.7-6 6-6h148c3.3 0 6 2.7 6 6v68c0 3.3-2.7 6-6 6H106c-3.3 0-6-2.7-6-6z" stroke="#5e5e5e" stroke-width="3" fill="#fff"/><use xlink:href="#a" transform="matrix(1,0,0,1,112,647) translate(42.72222222222223 17.77777777777778)"/><use xlink:href="#b" transform="matrix(1,0,0,1,112,647) translate(22.96913580246914 44.44444444444444)"/><path d="M240 903c0 6.63-26.86 12-60 12s-60-5.37-60-12v-96c0-6.63 26.86-12 60-12s60 5.37 60 12z" stroke="#5e5e5e" stroke-width="3" fill="#fff"/><path d="M240 807c0 6.63-26.86 12-60 12s-60-5.37-60-12" stroke="#5e5e5e" stroke-width="3" fill="none"/><use xlink:href="#c" transform="matrix(1,0,0,1,125,824) translate(13.672839506172842 17.77777777777778)"/><use xlink:href="#d" transform="matrix(1,0,0,1,125,824) translate(29.72222222222223 44.44444444444444)"/><use xlink:href="#e" transform="matrix(1,0,0,1,125,824) translate(2.8395061728395063 71.11111111111111)"/><path d="M60 286c0-3.3 2.7-6 6-6h228c3.3 0 6 2.7 6 6v48c0 3.3-2.7 6-6 6H66c-3.3 0-6-2.7-6-6z" stroke="#000" stroke-opacity="0" stroke-width="3" fill="#fff" fill-opacity="0"/><use xlink:href="#f" transform="matrix(1,0,0,1,65,285) translate(95.60185185185186 32.91666666666666)"/><path d="M400 286c0-3.3 2.7-6 6-6h288c3.3 0 6 2.7 6 6v48c0 3.3-2.7 6-6 6H406c-3.3 0-6-2.7-6-6z" stroke="#000" stroke-opacity="0" stroke-width="3" fill="#fff" fill-opacity="0"/><use xlink:href="#g" transform="matrix(1,0,0,1,405,285) translate(9.166666666666742 32.91666666666666)"/><use xlink:href="#h" transform="matrix(1,0,0,1,405,285) translate(57.222222222222285 32.91666666666666)"/><use xlink:href="#i" transform="matrix(1,0,0,1,405,285) translate(116.29629629629633 32.91666666666666)"/><path d="M360 346.76v19.6m0 19.62v39.23m0 19.62v39.23m0 19.6v39.24m0 19.6v39.23m0 19.6v39.24m0 19.6v39.24m0 19.62v39.23m0 19.62v39.22m0 19.6v39.23m0 19.62v39.22m0 19.62V994M360 346.78v-1.02M360 993.97V995" stroke="#b2b2b2" stroke-width="2" fill="none"/><path d="M120 132c0-3.3 2.7-6 6-6h508c3.3 0 6 2.7 6 6v134c0 3.3-2.7 6-6 6H126c-3.3 0-6-2.7-6-6z" stroke="#000" stroke-opacity="0" stroke-width="3" fill="#fff" fill-opacity="0"/><use xlink:href="#j" transform="matrix(1,0,0,1,125,130.99999999999997) translate(65.4290123456791 30.222222222222214)"/><use xlink:href="#k" transform="matrix(1,0,0,1,125,130.99999999999997) translate(119.89197530864205 30.222222222222214)"/><use xlink:href="#l" transform="matrix(1,0,0,1,125,130.99999999999997) translate(243.5092592592593 30.222222222222214)"/><use xlink:href="#m" transform="matrix(1,0,0,1,125,130.99999999999997) translate(297.97222222222223 30.222222222222214)"/><use xlink:href="#n" transform="matrix(1,0,0,1,125,130.99999999999997) translate(67.31790123456796 75.55555555555554)"/><use xlink:href="#o" transform="matrix(1,0,0,1,125,130.99999999999997) translate(257.67592592592587 75.55555555555554)"/><use xlink:href="#p" transform="matrix(1,0,0,1,125,130.99999999999997) translate(312.13888888888886 75.55555555555554)"/><use xlink:href="#q" transform="matrix(1,0,0,1,125,130.99999999999997) translate(22.61419753086429 120.88888888888886)"/><use xlink:href="#r" transform="matrix(1,0,0,1,125,130.99999999999997) translate(202.6882716049383 120.88888888888886)"/><use xlink:href="#s" transform="matrix(1,0,0,1,125,130.99999999999997) translate(271.8425925925926 120.88888888888886)"/><path d="M580 903c0 6.63-26.86 12-60 12s-60-5.37-60-12v-96c0-6.63 26.86-12 60-12s60 5.37 60 12z" stroke="#5e5e5e" stroke-width="3" fill="#fff"/><path d="M580 807c0 6.63-26.86 12-60 12s-60-5.37-60-12" stroke="#5e5e5e" stroke-width="3" fill="none"/><use xlink:href="#a" transform="matrix(1,0,0,1,465,824) translate(29.72222222222223 33.90277777777778)"/><use xlink:href="#e" transform="matrix(1,0,0,1,465,824) translate(2.8395061728395063 60.56944444444445)"/><path d="M280 766c0-3.3 2.7-6 6-6h68c3.3 0 6 2.7 6 6v51.33c0 3.32-2.7 6-6 6h-68c-3.3 0-6-2.68-6-6z" stroke="#000" stroke-opacity="0" stroke-width="3" fill="#fff" fill-opacity="0"/><use xlink:href="#t" transform="matrix(1,0,0,1,285,765) translate(13.395061728395063 31.27777777777778)"/><path d="M369 767.67c0-3.32 2.7-6 6-6h68c3.3 0 6 2.68 6 6V819c0 3.3-2.7 6-6 6h-68c-3.3 0-6-2.7-6-6z" stroke="#000" stroke-opacity="0" stroke-width="3" fill="#fff" fill-opacity="0"/><use xlink:href="#u" transform="matrix(1,0,0,1,374,766.6666666666666) translate(13.395061728395063 18.111111111111114)"/><use xlink:href="#v" transform="matrix(1,0,0,1,374,766.6666666666666) translate(-14.2283950617284 44.777777777777786)"/><path d="M41 760h19.33m19.34 0h38.66m19.34 0h38.66m19.34 0h38.66m19.34 0h38.66m19.34 0h38.66m19.34 0h38.66m19.34 0h38.66m19.34 0h38.66m19.34 0h38.66m19.34 0h38.66m19.34 0H679M41.03 760H40M678.97 760H680" stroke="#b2b2b2" stroke-width="2" fill="none"/><path d="M800 426.7c0-3.3 2.7-6 6-6h132c3.3 0 6 2.7 6 6v96c-24.05-17.03-39.02-17.03-48.1-17.03-14.4 0-33.55 17.04-47.95 17.04-8.93 0-24.05 0-47.95-17.03z" stroke="#5e5e5e" stroke-width="6" fill="#fff"/><path d="M808 435.7c0-3.3 2.7-6 6-6h132c3.3 0 6 2.7 6 6v96c-24.05-17.03-39.02-17.03-48.1-17.03-14.4 0-33.55 17.04-47.95 17.04-8.93 0-24.05 0-47.95-17.03z" stroke="#5e5e5e" stroke-width="6" fill="#fff"/><path d="M816 444.7c0-3.3 2.7-6 6-6h132c3.3 0 6 2.7 6 6v96c-24.05-17.03-39.02-17.03-48.1-17.03-14.4 0-33.55 17.04-47.95 17.04-8.93 0-24.05 0-47.95-17.03z" stroke="#5e5e5e" stroke-width="6" fill="#fff"/><use xlink:href="#w" transform="matrix(1,0,0,1,821,443.7061911367876) translate(23.351851851851848 17.77777777777778)"/><use xlink:href="#x" transform="matrix(1,0,0,1,821,443.7061911367876) translate(10.29629629629629 44.44444444444444)"/><path d="M795 441.63H625.74" stroke="#c92d39" stroke-width="4" fill="none"/><path d="M797 443.63h-2.05v-4H797z" fill="#c92d39"/><path d="M609.47 441.63l14.27-4.64v9.27z" stroke="#c92d39" stroke-width="4" fill="#c92d39"/><use xlink:href="#y" transform="matrix(1,0,0,1,641.4197530864197,410.96361490121177) translate(0.005000000000002558 17.77777777777778)"/><path d="M795 493.2H624.24" stroke="#c92d39" stroke-width="4" fill="none"/><path d="M797 495.2h-2.05v-4H797z" fill="#c92d39"/><path d="M607.97 493.2l14.27-4.63v9.27z" stroke="#c92d39" stroke-width="4" fill="#c92d39"/><use xlink:href="#z" transform="matrix(1,0,0,1,616.4722222222222,497.20148503768377) translate(0 17.77777777777778)"/><use xlink:href="#A" transform="matrix(1,0,0,1,616.4722222222222,497.20148503768377) translate(19.691358024691358 17.77777777777778)"/><use xlink:href="#B" transform="matrix(1,0,0,1,616.4722222222222,497.20148503768377) translate(38.20987654320987 17.77777777777778)"/><use xlink:href="#C" transform="matrix(1,0,0,1,616.4722222222222,497.20148503768377) translate(64.07407407407408 17.77777777777778)"/><use xlink:href="#D" transform="matrix(1,0,0,1,616.4722222222222,497.20148503768377) translate(0 44.44444444444444)"/><use xlink:href="#E" transform="matrix(1,0,0,1,616.4722222222222,497.20148503768377) translate(19.691358024691358 44.44444444444444)"/><use xlink:href="#F" transform="matrix(1,0,0,1,616.4722222222222,497.20148503768377) translate(38.20987654320987 44.44444444444444)"/><use xlink:href="#G" transform="matrix(1,0,0,1,616.4722222222222,497.20148503768377) translate(121.17283950617283 44.44444444444444)"/><path d="M436 452.25h-23.4c-3.32 0-6 2.7-6 6V741.5" stroke="#5e5e5e" stroke-width="2" fill="none"/><path d="M437 453.25h-1.03v-2H437z" fill="#5e5e5e"/><path d="M406.6 756.76l-4.65-14.26h9.28z" stroke="#5e5e5e" stroke-width="2" fill="#5e5e5e"/><path d="M377.32 756.67V681c0-3.3-2.68-6-6-6h-74.37" stroke="#c92d39" stroke-width="10" fill="none"/><path d="M382.32 761.67H375l-2.68.72v-5.86h10z" fill="#c92d39"/><path d="M277.68 675l14.27-4.64v9.28z" stroke="#c92d39" stroke-width="10" fill="#c92d39"/><g><use xlink:href="#H" transform="matrix(1,0,0,1,266.55045040884164,543) translate(0 21.333333333333332)"/><use xlink:href="#I" transform="matrix(1,0,0,1,266.55045040884164,543) translate(0 53.33333333333333)"/><use xlink:href="#J" transform="matrix(1,0,0,1,266.55045040884164,543) translate(7.4074074074074066 53.33333333333333)"/><use xlink:href="#K" transform="matrix(1,0,0,1,266.55045040884164,543) translate(0 85.33333333333333)"/><use xlink:href="#L" transform="matrix(1,0,0,1,266.55045040884164,543) translate(0 117.33333333333333)"/><use xlink:href="#M" transform="matrix(1,0,0,1,266.55045040884164,543) translate(7.4074074074074066 117.33333333333333)"/></g><path d="M0 6c0-3.3 2.7-6 6-6h408c3.3 0 6 2.7 6 6v88.67c0 3.3-2.7 6-6 6H6c-3.3 0-6-2.7-6-6z" stroke="#000" stroke-opacity="0" stroke-width="3" fill="#fff" fill-opacity="0"/><g><use xlink:href="#N" transform="matrix(1,0,0,1,5,5) translate(9.13580246913591 55.46180555555554)"/><use xlink:href="#O" transform="matrix(1,0,0,1,5,5) translate(238.39506172839504 55.46180555555554)"/></g><path d="M180 721.5v36.55" stroke="#c92d39" stroke-width="10" fill="none"/><path d="M185 721.63h-10v-5.13h10z" fill="#c92d39"/><path d="M180 777.32l-4.64-14.27h9.28z" stroke="#c92d39" stroke-width="10" fill="#c92d39"/><path d="M440 408.96c0-3.3 2.7-6 6-6h132c3.3 0 6 2.7 6 6v77.8c-24.05-14-39.02-14-48.1-14-14.4 0-33.55 14-47.95 14-8.93 0-24.05 0-47.95-14z" stroke="#5e5e5e" stroke-width="6" fill="#b2d6ef"/><path d="M448 416.35c0-3.3 2.7-6 6-6h132c3.3 0 6 2.7 6 6v77.8c-24.05-14-39.02-14-48.1-14-14.4 0-33.55 14-47.95 14-8.93 0-24.05 0-47.95-14z" stroke="#5e5e5e" stroke-width="6" fill="#b2d6ef"/><path d="M456 423.75c0-3.32 2.7-6 6-6h132c3.3 0 6 2.68 6 6v77.8c-24.05-14-39.02-14-48.1-14-14.4 0-33.55 14-47.95 14-8.93 0-24.05 0-47.95-14z" stroke="#5e5e5e" stroke-width="6" fill="#b2d6ef"/><g><use xlink:href="#P" transform="matrix(1,0,0,1,461,422.7467191601048) translate(36.19753086419753 21.111111111111114)"/><use xlink:href="#Q" transform="matrix(1,0,0,1,461,422.7467191601048) translate(19.53086419753086 47.777777777777786)"/></g><path d="M795 465.38H625.74" stroke="#c92d39" stroke-width="4" fill="none"/><path d="M797 467.38h-2.05v-4H797z" fill="#c92d39"/><path d="M609.47 465.38l14.27-4.63v9.27z" stroke="#c92d39" stroke-width="4" fill="#c92d39"/><defs><path fill="#333" d="M140-251c81 0 123 46 123 126C263-46 219 4 140 4 59 4 17-45 17-125s42-126 123-126zm0 227c63 0 89-41 89-101s-29-99-89-99c-61 0-89 39-89 99S79-25 140-24" id="R"/><path fill="#333" d="M137 0h-34L2-248h35l83 218 83-218h36" id="S"/><path fill="#333" d="M240 0l2-218c-23 76-54 145-80 218h-23L58-218 59 0H30v-248h44l77 211c21-75 51-140 76-211h43V0h-30" id="T"/><g id="a"><use transform="matrix(0.06172839506172839,0,0,0.06172839506172839,0,0)" xlink:href="#R"/><use transform="matrix(0.06172839506172839,0,0,0.06172839506172839,17.28395061728395,0)" xlink:href="#S"/><use transform="matrix(0.06172839506172839,0,0,0.06172839506172839,32.09876543209876,0)" xlink:href="#T"/></g><path fill="#333" d="M96-169c-40 0-48 33-48 73s9 75 48 75c24 0 41-14 43-38l32 2c-6 37-31 61-74 61-59 0-76-41-82-99-10-93 101-131 147-64 4 7 5 14 7 22l-32 3c-4-21-16-35-41-35" id="U"/><path fill="#333" d="M100-194c62-1 85 37 85 99 1 63-27 99-86 99S16-35 15-95c0-66 28-99 85-99zM99-20c44 1 53-31 53-75 0-43-8-75-51-75s-53 32-53 75 10 74 51 75" id="V"/><path fill="#333" d="M117-194c89-4 53 116 60 194h-32v-121c0-31-8-49-39-48C34-167 62-67 57 0H25l-1-190h30c1 10-1 24 2 32 11-22 29-35 61-36" id="W"/><path fill="#333" d="M59-47c-2 24 18 29 38 22v24C64 9 27 4 27-40v-127H5v-23h24l9-43h21v43h35v23H59v120" id="X"/><path fill="#333" d="M114-163C36-179 61-72 57 0H25l-1-190h30c1 12-1 29 2 39 6-27 23-49 58-41v29" id="Y"/><path fill="#333" d="M141-36C126-15 110 5 73 4 37 3 15-17 15-53c-1-64 63-63 125-63 3-35-9-54-41-54-24 1-41 7-42 31l-33-3c5-37 33-52 76-52 45 0 72 20 72 64v82c-1 20 7 32 28 27v20c-31 9-61-2-59-35zM48-53c0 20 12 33 32 33 41-3 63-29 60-74-43 2-92-5-92 41" id="Z"/><path fill="#333" d="M135-143c-3-34-86-38-87 0 15 53 115 12 119 90S17 21 10-45l28-5c4 36 97 45 98 0-10-56-113-15-118-90-4-57 82-63 122-42 12 7 21 19 24 35" id="aa"/><g id="b"><use transform="matrix(0.06172839506172839,0,0,0.06172839506172839,0,0)" xlink:href="#U"/><use transform="matrix(0.06172839506172839,0,0,0.06172839506172839,11.11111111111111,0)" xlink:href="#V"/><use transform="matrix(0.06172839506172839,0,0,0.06172839506172839,23.45679012345679,0)" xlink:href="#W"/><use transform="matrix(0.06172839506172839,0,0,0.06172839506172839,35.80246913580247,0)" xlink:href="#X"/><use transform="matrix(0.06172839506172839,0,0,0.06172839506172839,41.97530864197531,0)" xlink:href="#Y"/><use transform="matrix(0.06172839506172839,0,0,0.06172839506172839,49.32098765432099,0)" xlink:href="#Z"/><use transform="matrix(0.06172839506172839,0,0,0.06172839506172839,61.666666666666664,0)" xlink:href="#U"/><use transform="matrix(0.06172839506172839,0,0,0.06172839506172839,72.77777777777777,0)" xlink:href="#X"/><use transform="matrix(0.06172839506172839,0,0,0.06172839506172839,78.9506172839506,0)" xlink:href="#aa"/></g><path fill="#333" d="M33 0v-248h34V0H33" id="ab"/><path fill="#333" d="M24 0v-261h32V0H24" id="ac"/><path fill="#333" d="M84 4C-5 8 30-112 23-190h32v120c0 31 7 50 39 49 72-2 45-101 50-169h31l1 190h-30c-1-10 1-25-2-33-11 22-28 36-60 37" id="ad"/><path fill="#333" d="M85-194c31 0 48 13 60 33l-1-100h32l1 261h-30c-2-10 0-23-3-31C134-8 116 4 85 4 32 4 16-35 15-94c0-66 23-100 70-100zm9 24c-40 0-46 34-46 75 0 40 6 74 45 74 42 0 51-32 51-76 0-42-9-74-50-73" id="ae"/><path fill="#333" d="M100-194c63 0 86 42 84 106H49c0 40 14 67 53 68 26 1 43-12 49-29l28 8c-11 28-37 45-77 45C44 4 14-33 15-96c1-61 26-98 85-98zm52 81c6-60-76-77-97-28-3 7-6 17-6 28h103" id="af"/><g id="c"><use transform="matrix(0.06172839506172839,0,0,0.06172839506172839,0,0)" xlink:href="#ab"/><use transform="matrix(0.06172839506172839,0,0,0.06172839506172839,6.172839506172839,0)" xlink:href="#W"/><use transform="matrix(0.06172839506172839,0,0,0.06172839506172839,18.51851851851852,0)" xlink:href="#U"/><use transform="matrix(0.06172839506172839,0,0,0.06172839506172839,29.62962962962963,0)" xlink:href="#ac"/><use transform="matrix(0.06172839506172839,0,0,0.06172839506172839,34.50617283950617,0)" xlink:href="#ad"/><use transform="matrix(0.06172839506172839,0,0,0.06172839506172839,46.85185185185185,0)" xlink:href="#ae"/><use transform="matrix(0.06172839506172839,0,0,0.06172839506172839,59.197530864197525,0)" xlink:href="#af"/><use transform="matrix(0.06172839506172839,0,0,0.06172839506172839,71.5432098765432,0)" xlink:href="#aa"/></g><g id="d"><use transform="matrix(0.06172839506172839,0,0,0.06172839506172839,0,0)" xlink:href="#R"/><use transform="matrix(0.06172839506172839,0,0,0.06172839506172839,17.28395061728395,0)" xlink:href="#S"/><use transform="matrix(0.06172839506172839,0,0,0.06172839506172839,32.09876543209876,0)" xlink:href="#T"/></g><path fill="#333" d="M185-189c-5-48-123-54-124 2 14 75 158 14 163 119 3 78-121 87-175 55-17-10-28-26-33-46l33-7c5 56 141 63 141-1 0-78-155-14-162-118-5-82 145-84 179-34 5 7 8 16 11 25" id="ag"/><path fill="#333" d="M118-107v75H92v-75H18v-26h74v-75h26v75h74v26h-74" id="ah"/><path fill="#333" d="M141 0L90-78 38 0H4l68-98-65-92h35l48 74 47-74h35l-64 92 68 98h-35" id="ai"/><g id="e"><use transform="matrix(0.06172839506172839,0,0,0.06172839506172839,0,0)" xlink:href="#ag"/><use transform="matrix(0.06172839506172839,0,0,0.06172839506172839,14.814814814814813,0)" xlink:href="#X"/><use transform="matrix(0.06172839506172839,0,0,0.06172839506172839,20.98765432098765,0)" xlink:href="#Z"/><use transform="matrix(0.06172839506172839,0,0,0.06172839506172839,33.33333333333333,0)" xlink:href="#X"/><use transform="matrix(0.06172839506172839,0,0,0.06172839506172839,39.50617283950617,0)" xlink:href="#af"/><use transform="matrix(0.06172839506172839,0,0,0.06172839506172839,51.85185185185185,0)" xlink:href="#aa"/><use transform="matrix(0.06172839506172839,0,0,0.06172839506172839,62.96296296296296,0)" xlink:href="#ah"/><use transform="matrix(0.06172839506172839,0,0,0.06172839506172839,75.92592592592592,0)" xlink:href="#X"/><use transform="matrix(0.06172839506172839,0,0,0.06172839506172839,82.09876543209876,0)" xlink:href="#ai"/><use transform="matrix(0.06172839506172839,0,0,0.06172839506172839,93.20987654320987,0)" xlink:href="#aa"/></g><path fill="#333" d="M24 0v-248h52v208h133V0H24" id="aj"/><path fill="#333" d="M23 0v-37h61v-169l-59 37v-38l62-41h46v211h57V0H23" id="ak"/><g id="f"><use transform="matrix(0.09259259259259256,0,0,0.09259259259259256,0,0)" xlink:href="#aj"/><use transform="matrix(0.09259259259259256,0,0,0.09259259259259256,20.27777777777777,0)" xlink:href="#ak"/></g><path fill="#333" d="M182-182c0 78-84 86-111 141h115V0H12c-6-101 99-100 120-180 1-22-12-31-33-32-23 0-32 14-35 34l-49-3c5-45 32-70 84-70 51 0 83 22 83 69" id="al"/><g id="g"><use transform="matrix(0.09259259259259256,0,0,0.09259259259259256,0,0)" xlink:href="#aj"/><use transform="matrix(0.09259259259259256,0,0,0.09259259259259256,20.27777777777777,0)" xlink:href="#al"/></g><path fill="#333" d="M67-93c0 74 22 123 53 168H70C40 30 18-18 18-93s22-123 52-168h50c-32 44-53 94-53 168" id="am"/><path fill="#333" d="M185-48c-13 30-37 53-82 52C43 2 14-33 14-96s30-98 90-98c62 0 83 45 84 108H66c0 31 8 55 39 56 18 0 30-7 34-22zm-45-69c5-46-57-63-70-21-2 6-4 13-4 21h74" id="an"/><path fill="#333" d="M195-6C206 82 75 100 31 46c-4-6-6-13-8-21l49-6c3 16 16 24 34 25 40 0 42-37 40-79-11 22-30 35-61 35-53 0-70-43-70-97 0-56 18-96 73-97 30 0 46 14 59 34l2-30h47zm-90-29c32 0 41-27 41-63 0-35-9-62-40-62-32 0-39 29-40 63 0 36 9 62 39 62" id="ao"/><g id="h"><use transform="matrix(0.09259259259259256,0,0,0.09259259259259256,0,0)" xlink:href="#am"/><use transform="matrix(0.09259259259259256,0,0,0.09259259259259256,11.018518518518515,0)" xlink:href="#an"/><use transform="matrix(0.09259259259259256,0,0,0.09259259259259256,29.537037037037027,0)" xlink:href="#ao"/></g><path fill="#333" d="M140-251c80 0 125 45 125 126S219 4 139 4C58 4 15-44 15-125s44-126 125-126zm-1 214c52 0 73-35 73-88 0-50-21-86-72-86-52 0-73 35-73 86s22 88 72 88" id="ap"/><path fill="#333" d="M135-194c53 0 70 44 70 98 0 56-19 98-73 100-31 1-45-17-59-34 3 33 2 69 2 105H25l-1-265h48c2 10 0 23 3 31 11-24 29-35 60-35zM114-30c33 0 39-31 40-66 0-38-9-64-40-64-56 0-55 130 0 130" id="aq"/><path fill="#333" d="M115-3C79 11 28 4 28-45v-112H4v-33h27l15-45h31v45h36v33H77v99c-1 23 16 31 38 25v30" id="ar"/><path fill="#333" d="M25-224v-37h50v37H25zM25 0v-190h50V0H25" id="as"/><path fill="#333" d="M220-157c-53 9-28 100-34 157h-49v-107c1-27-5-49-29-50C55-147 81-57 75 0H25l-1-190h47c2 12-1 28 3 38 10-53 101-56 108 0 13-22 24-43 59-42 82 1 51 116 57 194h-49v-107c-1-25-5-48-29-50" id="at"/><path fill="#333" d="M137-138c1-29-70-34-71-4 15 46 118 7 119 86 1 83-164 76-172 9l43-7c4 19 20 25 44 25 33 8 57-30 24-41C81-84 22-81 20-136c-2-80 154-74 161-7" id="au"/><path fill="#333" d="M102-93c0 74-22 123-52 168H0C30 29 54-18 53-93c0-74-22-123-53-168h50c30 45 52 94 52 168" id="av"/><g id="i"><use transform="matrix(0.09259259259259256,0,0,0.09259259259259256,0,0)" xlink:href="#ap"/><use transform="matrix(0.09259259259259256,0,0,0.09259259259259256,25.925925925925917,0)" xlink:href="#aq"/><use transform="matrix(0.09259259259259256,0,0,0.09259259259259256,46.20370370370369,0)" xlink:href="#ar"/><use transform="matrix(0.09259259259259256,0,0,0.09259259259259256,57.2222222222222,0)" xlink:href="#as"/><use transform="matrix(0.09259259259259256,0,0,0.09259259259259256,66.48148148148145,0)" xlink:href="#at"/><use transform="matrix(0.09259259259259256,0,0,0.09259259259259256,96.11111111111107,0)" xlink:href="#as"/><use transform="matrix(0.09259259259259256,0,0,0.09259259259259256,105.37037037037034,0)" xlink:href="#au"/><use transform="matrix(0.09259259259259256,0,0,0.09259259259259256,123.88888888888883,0)" xlink:href="#at"/><use transform="matrix(0.09259259259259256,0,0,0.09259259259259256,153.51851851851845,0)" xlink:href="#av"/></g><g id="j"><use transform="matrix(0.10493827160493824,0,0,0.10493827160493824,0,0)" xlink:href="#aj"/><use transform="matrix(0.10493827160493824,0,0,0.10493827160493824,22.981481481481474,0)" xlink:href="#ak"/></g><path fill="#333" d="M110-194c64 0 96 36 96 99 0 64-35 99-97 99-61 0-95-36-95-99 0-62 34-99 96-99zm-1 164c35 0 45-28 45-65 0-40-10-65-43-65-34 0-45 26-45 65 0 36 10 65 43 65" id="aw"/><path fill="#333" d="M135-150c-39-12-60 13-60 57V0H25l-1-190h47c2 13-1 29 3 40 6-28 27-53 61-41v41" id="ax"/><g id="k"><use transform="matrix(0.10493827160493824,0,0,0.10493827160493824,0,0)" xlink:href="#au"/><use transform="matrix(0.10493827160493824,0,0,0.10493827160493824,20.987654320987648,0)" xlink:href="#ar"/><use transform="matrix(0.10493827160493824,0,0,0.10493827160493824,33.475308641975296,0)" xlink:href="#aw"/><use transform="matrix(0.10493827160493824,0,0,0.10493827160493824,56.45679012345677,0)" xlink:href="#ax"/><use transform="matrix(0.10493827160493824,0,0,0.10493827160493824,71.14814814814812,0)" xlink:href="#an"/><use transform="matrix(0.10493827160493824,0,0,0.10493827160493824,92.13580246913577,0)" xlink:href="#au"/></g><g id="l"><use transform="matrix(0.10493827160493824,0,0,0.10493827160493824,0,0)" xlink:href="#aj"/><use transform="matrix(0.10493827160493824,0,0,0.10493827160493824,22.981481481481474,0)" xlink:href="#al"/></g><path fill="#333" d="M67-125c0 53 21 87 73 88 37 1 54-22 65-47l45 17C233-25 199 4 140 4 58 4 20-42 15-125 8-235 124-281 211-232c18 10 29 29 36 50l-46 12c-8-25-30-41-62-41-52 0-71 34-72 86" id="ay"/><path fill="#333" d="M133-34C117-15 103 5 69 4 32 3 11-16 11-54c-1-60 55-63 116-61 1-26-3-47-28-47-18 1-26 9-28 27l-52-2c7-38 36-58 82-57s74 22 75 68l1 82c-1 14 12 18 25 15v27c-30 8-71 5-69-32zm-48 3c29 0 43-24 42-57-32 0-66-3-65 30 0 17 8 27 23 27" id="az"/><path fill="#333" d="M25 0v-261h50V0H25" id="aA"/><path fill="#333" d="M88-194c31-1 46 15 58 34l-1-101h50l1 261h-48c-2-10 0-23-3-31C134-8 116 4 84 4 32 4 16-41 15-95c0-56 19-97 73-99zm17 164c33 0 40-30 41-66 1-37-9-64-41-64s-38 30-39 65c0 43 13 65 39 65" id="aB"/><g id="m"><use transform="matrix(0.10493827160493824,0,0,0.10493827160493824,0,0)" xlink:href="#ay"/><use transform="matrix(0.10493827160493824,0,0,0.10493827160493824,27.179012345679002,0)" xlink:href="#az"/><use transform="matrix(0.10493827160493824,0,0,0.10493827160493824,48.16666666666665,0)" xlink:href="#aA"/><use transform="matrix(0.10493827160493824,0,0,0.10493827160493824,58.66049382716047,0)" xlink:href="#aA"/><use transform="matrix(0.10493827160493824,0,0,0.10493827160493824,69.1543209876543,0)" xlink:href="#aB"/><use transform="matrix(0.10493827160493824,0,0,0.10493827160493824,92.13580246913577,0)" xlink:href="#az"/><use transform="matrix(0.10493827160493824,0,0,0.10493827160493824,113.12345679012343,0)" xlink:href="#ar"/><use transform="matrix(0.10493827160493824,0,0,0.10493827160493824,125.61111111111104,0)" xlink:href="#az"/></g><path fill="#333" d="M135-194c87-1 58 113 63 194h-50c-7-57 23-157-34-157-59 0-34 97-39 157H25l-1-190h47c2 12-1 28 3 38 12-26 28-41 61-42" id="aC"/><path fill="#333" d="M190-63c-7 42-38 67-86 67-59 0-84-38-90-98-12-110 154-137 174-36l-49 2c-2-19-15-32-35-32-30 0-35 28-38 64-6 74 65 87 74 30" id="aD"/><path fill="#333" d="M85 4C-2 5 27-109 22-190h50c7 57-23 150 33 157 60-5 35-97 40-157h50l1 190h-47c-2-12 1-28-3-38-12 25-28 42-61 42" id="aE"/><g id="n"><use transform="matrix(0.10493827160493824,0,0,0.10493827160493824,0,0)" xlink:href="#am"/><use transform="matrix(0.10493827160493824,0,0,0.10493827160493824,12.48765432098765,0)" xlink:href="#as"/><use transform="matrix(0.10493827160493824,0,0,0.10493827160493824,22.981481481481474,0)" xlink:href="#aC"/><use transform="matrix(0.10493827160493824,0,0,0.10493827160493824,45.96296296296295,0)" xlink:href="#aD"/><use transform="matrix(0.10493827160493824,0,0,0.10493827160493824,66.95061728395059,0)" xlink:href="#aA"/><use transform="matrix(0.10493827160493824,0,0,0.10493827160493824,77.44444444444441,0)" xlink:href="#aE"/><use transform="matrix(0.10493827160493824,0,0,0.10493827160493824,100.4259259259259,0)" xlink:href="#aB"/><use transform="matrix(0.10493827160493824,0,0,0.10493827160493824,123.40740740740736,0)" xlink:href="#as"/><use transform="matrix(0.10493827160493824,0,0,0.10493827160493824,133.90123456790118,0)" xlink:href="#aC"/><use transform="matrix(0.10493827160493824,0,0,0.10493827160493824,156.88271604938265,0)" xlink:href="#ao"/></g><g id="o"><use transform="matrix(0.10493827160493824,0,0,0.10493827160493824,0,0)" xlink:href="#az"/><use transform="matrix(0.10493827160493824,0,0,0.10493827160493824,20.987654320987648,0)" xlink:href="#aC"/></g><path fill="#333" d="M24 0v-248h195v40H76v63h132v40H76v65h150V0H24" id="aF"/><path fill="#333" d="M24-248c120-7 223 5 221 122C244-46 201 0 124 0H24v-248zM76-40c74 7 117-18 117-86 0-67-45-88-117-82v168" id="aG"/><path fill="#333" d="M169-182c-1-43-94-46-97-3 18 66 151 10 154 114 3 95-165 93-204 36-6-8-10-19-12-30l50-8c3 46 112 56 116 5-17-69-150-10-154-114-4-87 153-88 188-35 5 8 8 18 10 28" id="aH"/><path fill="#333" d="M199 0l-22-63H83L61 0H9l90-248h61L250 0h-51zm-33-102l-36-108c-10 38-24 72-36 108h72" id="aI"/><g id="p"><use transform="matrix(0.10493827160493824,0,0,0.10493827160493824,0,0)" xlink:href="#aF"/><use transform="matrix(0.10493827160493824,0,0,0.10493827160493824,25.185185185185176,0)" xlink:href="#ay"/><use transform="matrix(0.10493827160493824,0,0,0.10493827160493824,52.364197530864175,0)" xlink:href="#aG"/><use transform="matrix(0.10493827160493824,0,0,0.10493827160493824,79.54320987654317,0)" xlink:href="#aH"/><use transform="matrix(0.10493827160493824,0,0,0.10493827160493824,104.72839506172835,0)" xlink:href="#aI"/></g><g id="q"><use transform="matrix(0.10493827160493824,0,0,0.10493827160493824,0,0)" xlink:href="#au"/><use transform="matrix(0.10493827160493824,0,0,0.10493827160493824,20.987654320987648,0)" xlink:href="#as"/><use transform="matrix(0.10493827160493824,0,0,0.10493827160493824,31.48148148148147,0)" xlink:href="#ao"/><use transform="matrix(0.10493827160493824,0,0,0.10493827160493824,54.46296296296295,0)" xlink:href="#aC"/><use transform="matrix(0.10493827160493824,0,0,0.10493827160493824,77.44444444444443,0)" xlink:href="#az"/><use transform="matrix(0.10493827160493824,0,0,0.10493827160493824,98.43209876543207,0)" xlink:href="#ar"/><use transform="matrix(0.10493827160493824,0,0,0.10493827160493824,110.91975308641972,0)" xlink:href="#aE"/><use transform="matrix(0.10493827160493824,0,0,0.10493827160493824,133.90123456790118,0)" xlink:href="#ax"/><use transform="matrix(0.10493827160493824,0,0,0.10493827160493824,148.59259259259255,0)" xlink:href="#an"/></g><g id="r"><use transform="matrix(0.10493827160493824,0,0,0.10493827160493824,0,0)" xlink:href="#aq"/><use transform="matrix(0.10493827160493824,0,0,0.10493827160493824,22.981481481481474,0)" xlink:href="#an"/><use transform="matrix(0.10493827160493824,0,0,0.10493827160493824,43.969135802469125,0)" xlink:href="#ax"/></g><g id="s"><use transform="matrix(0.10493827160493824,0,0,0.10493827160493824,0,0)" xlink:href="#ar"/><use transform="matrix(0.10493827160493824,0,0,0.10493827160493824,12.48765432098765,0)" xlink:href="#ax"/><use transform="matrix(0.10493827160493824,0,0,0.10493827160493824,27.179012345679002,0)" xlink:href="#az"/><use transform="matrix(0.10493827160493824,0,0,0.10493827160493824,48.16666666666666,0)" xlink:href="#aC"/><use transform="matrix(0.10493827160493824,0,0,0.10493827160493824,71.14814814814812,0)" xlink:href="#au"/><use transform="matrix(0.10493827160493824,0,0,0.10493827160493824,92.13580246913577,0)" xlink:href="#az"/><use transform="matrix(0.10493827160493824,0,0,0.10493827160493824,113.12345679012343,0)" xlink:href="#aD"/><use transform="matrix(0.10493827160493824,0,0,0.10493827160493824,134.11111111111106,0)" xlink:href="#ar"/><use transform="matrix(0.10493827160493824,0,0,0.10493827160493824,146.5987654320987,0)" xlink:href="#as"/><use transform="matrix(0.10493827160493824,0,0,0.10493827160493824,157.09259259259252,0)" xlink:href="#aw"/><use transform="matrix(0.10493827160493824,0,0,0.10493827160493824,180.074074074074,0)" xlink:href="#aC"/><use transform="matrix(0.10493827160493824,0,0,0.10493827160493824,203.05555555555546,0)" xlink:href="#av"/></g><path fill="#333" d="M177-190C167-65 218 103 67 71c-23-6-38-20-44-43l32-5c15 47 100 32 89-28v-30C133-14 115 1 83 1 29 1 15-40 15-95c0-56 16-97 71-98 29-1 48 16 59 35 1-10 0-23 2-32h30zM94-22c36 0 50-32 50-73 0-42-14-75-50-75-39 0-46 34-46 75s6 73 46 73" id="aJ"/><path fill="#333" d="M106-169C34-169 62-67 57 0H25v-261h32l-1 103c12-21 28-36 61-36 89 0 53 116 60 194h-32v-121c2-32-8-49-39-48" id="aK"/><g id="t"><use transform="matrix(0.06172839506172839,0,0,0.06172839506172839,0,0)" xlink:href="#aJ"/><use transform="matrix(0.06172839506172839,0,0,0.06172839506172839,12.345679012345679,0)" xlink:href="#af"/><use transform="matrix(0.06172839506172839,0,0,0.06172839506172839,24.691358024691358,0)" xlink:href="#X"/><use transform="matrix(0.06172839506172839,0,0,0.06172839506172839,30.864197530864196,0)" xlink:href="#aK"/></g><g id="u"><use transform="matrix(0.06172839506172839,0,0,0.06172839506172839,0,0)" xlink:href="#aJ"/><use transform="matrix(0.06172839506172839,0,0,0.06172839506172839,12.345679012345679,0)" xlink:href="#af"/><use transform="matrix(0.06172839506172839,0,0,0.06172839506172839,24.691358024691358,0)" xlink:href="#X"/><use transform="matrix(0.06172839506172839,0,0,0.06172839506172839,30.864197530864196,0)" xlink:href="#aK"/></g><path fill="#333" d="M87 75C49 33 22-17 22-94c0-76 28-126 65-167h31c-38 41-64 92-64 168S80 34 118 75H87" id="aL"/><path fill="#333" d="M210-169c-67 3-38 105-44 169h-31v-121c0-29-5-50-35-48C34-165 62-65 56 0H25l-1-190h30c1 10-1 24 2 32 10-44 99-50 107 0 11-21 27-35 58-36 85-2 47 119 55 194h-31v-121c0-29-5-49-35-48" id="aM"/><path fill="#333" d="M24-231v-30h32v30H24zM24 0v-190h32V0H24" id="aN"/><path fill="#333" d="M101-234c-31-9-42 10-38 44h38v23H63V0H32v-167H5v-23h27c-7-52 17-82 69-68v24" id="aO"/><path fill="#333" d="M33-261c38 41 65 92 65 168S71 34 33 75H2C39 34 66-17 66-93S39-220 2-261h31" id="aP"/><g id="v"><use transform="matrix(0.06172839506172839,0,0,0.06172839506172839,0,0)" xlink:href="#aL"/><use transform="matrix(0.06172839506172839,0,0,0.06172839506172839,7.345679012345679,0)" xlink:href="#aM"/><use transform="matrix(0.06172839506172839,0,0,0.06172839506172839,25.80246913580247,0)" xlink:href="#V"/><use transform="matrix(0.06172839506172839,0,0,0.06172839506172839,38.148148148148145,0)" xlink:href="#ae"/><use transform="matrix(0.06172839506172839,0,0,0.06172839506172839,50.49382716049382,0)" xlink:href="#aN"/><use transform="matrix(0.06172839506172839,0,0,0.06172839506172839,55.37037037037037,0)" xlink:href="#aO"/><use transform="matrix(0.06172839506172839,0,0,0.06172839506172839,61.54320987654321,0)" xlink:href="#aN"/><use transform="matrix(0.06172839506172839,0,0,0.06172839506172839,66.41975308641975,0)" xlink:href="#af"/><use transform="matrix(0.06172839506172839,0,0,0.06172839506172839,78.76543209876543,0)" xlink:href="#ae"/><use transform="matrix(0.06172839506172839,0,0,0.06172839506172839,91.11111111111111,0)" xlink:href="#aP"/></g><path fill="#333" d="M115-194c55 1 70 41 70 98S169 2 115 4C84 4 66-9 55-30l1 105H24l-1-265h31l2 30c10-21 28-34 59-34zm-8 174c40 0 45-34 45-75s-6-73-45-74c-42 0-51 32-51 76 0 43 10 73 51 73" id="aQ"/><g id="w"><use transform="matrix(0.06172839506172839,0,0,0.06172839506172839,0,0)" xlink:href="#T"/><use transform="matrix(0.06172839506172839,0,0,0.06172839506172839,18.456790123456788,0)" xlink:href="#ad"/><use transform="matrix(0.06172839506172839,0,0,0.06172839506172839,30.80246913580247,0)" xlink:href="#ac"/><use transform="matrix(0.06172839506172839,0,0,0.06172839506172839,35.67901234567901,0)" xlink:href="#X"/><use transform="matrix(0.06172839506172839,0,0,0.06172839506172839,41.851851851851855,0)" xlink:href="#aN"/><use transform="matrix(0.06172839506172839,0,0,0.06172839506172839,46.7283950617284,0)" xlink:href="#aQ"/><use transform="matrix(0.06172839506172839,0,0,0.06172839506172839,59.074074074074076,0)" xlink:href="#ac"/><use transform="matrix(0.06172839506172839,0,0,0.06172839506172839,63.95061728395061,0)" xlink:href="#af"/></g><g id="x"><use transform="matrix(0.06172839506172839,0,0,0.06172839506172839,0,0)" xlink:href="#Z"/><use transform="matrix(0.06172839506172839,0,0,0.06172839506172839,12.345679012345679,0)" xlink:href="#ae"/><use transform="matrix(0.06172839506172839,0,0,0.06172839506172839,24.691358024691358,0)" xlink:href="#ae"/><use transform="matrix(0.06172839506172839,0,0,0.06172839506172839,37.03703703703704,0)" xlink:href="#Y"/><use transform="matrix(0.06172839506172839,0,0,0.06172839506172839,44.382716049382715,0)" xlink:href="#af"/><use transform="matrix(0.06172839506172839,0,0,0.06172839506172839,56.72839506172839,0)" xlink:href="#aa"/><use transform="matrix(0.06172839506172839,0,0,0.06172839506172839,67.8395061728395,0)" xlink:href="#aa"/><use transform="matrix(0.06172839506172839,0,0,0.06172839506172839,78.95061728395062,0)" xlink:href="#af"/><use transform="matrix(0.06172839506172839,0,0,0.06172839506172839,91.2962962962963,0)" xlink:href="#aa"/></g><path fill="#333" d="M136-208V0H84v-208H4v-40h212v40h-80" id="aR"/><g id="y"><use transform="matrix(0.06172839506172839,0,0,0.06172839506172839,0,0)" xlink:href="#ay"/><use transform="matrix(0.06172839506172839,0,0,0.06172839506172839,15.987654320987653,0)" xlink:href="#aI"/><use transform="matrix(0.06172839506172839,0,0,0.06172839506172839,31.975308641975307,0)" xlink:href="#aj"/><use transform="matrix(0.06172839506172839,0,0,0.06172839506172839,45.49382716049382,0)" xlink:href="#aj"/><use transform="matrix(0.06172839506172839,0,0,0.06172839506172839,59.01234567901234,0)" xlink:href="#aG"/><use transform="matrix(0.06172839506172839,0,0,0.06172839506172839,75,0)" xlink:href="#aI"/><use transform="matrix(0.06172839506172839,0,0,0.06172839506172839,89.32098765432099,0)" xlink:href="#aR"/><use transform="matrix(0.06172839506172839,0,0,0.06172839506172839,101.17283950617283,0)" xlink:href="#aI"/></g><path fill="#c92d39" d="M135-194c87-1 58 113 63 194h-50c-7-57 23-157-34-157-59 0-34 97-39 157H25l-1-190h47c2 12-1 28 3 38 12-26 28-41 61-42" id="aS"/><use transform="matrix(0.06172839506172839,0,0,0.06172839506172839,0,0)" xlink:href="#aS" id="z"/><path fill="#c92d39" d="M144 0l-44-69L55 0H2l70-98-66-92h53l41 62 40-62h54l-67 91 71 99h-54" id="aT"/><use transform="matrix(0.06172839506172839,0,0,0.06172839506172839,0,0)" xlink:href="#aT" id="A"/><path fill="#c92d39" d="M115-3C79 11 28 4 28-45v-112H4v-33h27l15-45h31v45h36v33H77v99c-1 23 16 31 38 25v30" id="aU"/><g id="B"><use transform="matrix(0.06172839506172839,0,0,0.06172839506172839,0,0)" xlink:href="#aU"/><use transform="matrix(0.06172839506172839,0,0,0.06172839506172839,7.345679012345679,0)" xlink:href="#aT"/></g><path fill="#c92d39" d="M88-194c31-1 46 15 58 34l-1-101h50l1 261h-48c-2-10 0-23-3-31C134-8 116 4 84 4 32 4 16-41 15-95c0-56 19-97 73-99zm17 164c33 0 40-30 41-66 1-37-9-64-41-64s-38 30-39 65c0 43 13 65 39 65" id="aV"/><path fill="#c92d39" d="M133-34C117-15 103 5 69 4 32 3 11-16 11-54c-1-60 55-63 116-61 1-26-3-47-28-47-18 1-26 9-28 27l-52-2c7-38 36-58 82-57s74 22 75 68l1 82c-1 14 12 18 25 15v27c-30 8-71 5-69-32zm-48 3c29 0 43-24 42-57-32 0-66-3-65 30 0 17 8 27 23 27" id="aW"/><g id="C"><use transform="matrix(0.06172839506172839,0,0,0.06172839506172839,0,0)" xlink:href="#aV"/><use transform="matrix(0.06172839506172839,0,0,0.06172839506172839,13.518518518518517,0)" xlink:href="#aW"/><use transform="matrix(0.06172839506172839,0,0,0.06172839506172839,25.864197530864196,0)" xlink:href="#aU"/><use transform="matrix(0.06172839506172839,0,0,0.06172839506172839,33.20987654320987,0)" xlink:href="#aW"/></g><use transform="matrix(0.06172839506172839,0,0,0.06172839506172839,0,0)" xlink:href="#aS" id="D"/><use transform="matrix(0.06172839506172839,0,0,0.06172839506172839,0,0)" xlink:href="#aT" id="E"/><path fill="#c92d39" d="M24 0v-248h195v40H76v63h132v40H76v65h150V0H24" id="aX"/><path fill="#c92d39" d="M67-125c0 53 21 87 73 88 37 1 54-22 65-47l45 17C233-25 199 4 140 4 58 4 20-42 15-125 8-235 124-281 211-232c18 10 29 29 36 50l-46 12c-8-25-30-41-62-41-52 0-71 34-72 86" id="aY"/><path fill="#c92d39" d="M24-248c120-7 223 5 221 122C244-46 201 0 124 0H24v-248zM76-40c74 7 117-18 117-86 0-67-45-88-117-82v168" id="aZ"/><path fill="#c92d39" d="M169-182c-1-43-94-46-97-3 18 66 151 10 154 114 3 95-165 93-204 36-6-8-10-19-12-30l50-8c3 46 112 56 116 5-17-69-150-10-154-114-4-87 153-88 188-35 5 8 8 18 10 28" id="ba"/><path fill="#c92d39" d="M199 0l-22-63H83L61 0H9l90-248h61L250 0h-51zm-33-102l-36-108c-10 38-24 72-36 108h72" id="bb"/><g id="F"><use transform="matrix(0.06172839506172839,0,0,0.06172839506172839,0,0)" xlink:href="#aX"/><use transform="matrix(0.06172839506172839,0,0,0.06172839506172839,14.814814814814813,0)" xlink:href="#aY"/><use transform="matrix(0.06172839506172839,0,0,0.06172839506172839,30.80246913580247,0)" xlink:href="#aZ"/><use transform="matrix(0.06172839506172839,0,0,0.06172839506172839,46.79012345679012,0)" xlink:href="#ba"/><use transform="matrix(0.06172839506172839,0,0,0.06172839506172839,61.60493827160494,0)" xlink:href="#bb"/></g><path fill="#c92d39" d="M137-138c1-29-70-34-71-4 15 46 118 7 119 86 1 83-164 76-172 9l43-7c4 19 20 25 44 25 33 8 57-30 24-41C81-84 22-81 20-136c-2-80 154-74 161-7" id="bc"/><path fill="#c92d39" d="M25-224v-37h50v37H25zM25 0v-190h50V0H25" id="bd"/><path fill="#c92d39" d="M195-6C206 82 75 100 31 46c-4-6-6-13-8-21l49-6c3 16 16 24 34 25 40 0 42-37 40-79-11 22-30 35-61 35-53 0-70-43-70-97 0-56 18-96 73-97 30 0 46 14 59 34l2-30h47zm-90-29c32 0 41-27 41-63 0-35-9-62-40-62-32 0-39 29-40 63 0 36 9 62 39 62" id="be"/><g id="G"><use transform="matrix(0.06172839506172839,0,0,0.06172839506172839,0,0)" xlink:href="#bc"/><use transform="matrix(0.06172839506172839,0,0,0.06172839506172839,12.345679012345679,0)" xlink:href="#bd"/><use transform="matrix(0.06172839506172839,0,0,0.06172839506172839,18.51851851851852,0)" xlink:href="#be"/><use transform="matrix(0.06172839506172839,0,0,0.06172839506172839,32.03703703703704,0)" xlink:href="#bc"/></g><path fill="#c92d39" d="M24 0v-248h52v208h133V0H24" id="bf"/><path fill="#c92d39" d="M136-208V0H84v-208H4v-40h212v40h-80" id="bg"/><g id="H"><use transform="matrix(0.07407407407407407,0,0,0.07407407407407407,0,0)" xlink:href="#aY"/><use transform="matrix(0.07407407407407407,0,0,0.07407407407407407,19.185185185185183,0)" xlink:href="#bb"/><use transform="matrix(0.07407407407407407,0,0,0.07407407407407407,38.37037037037037,0)" xlink:href="#bf"/><use transform="matrix(0.07407407407407407,0,0,0.07407407407407407,54.59259259259259,0)" xlink:href="#bf"/><use transform="matrix(0.07407407407407407,0,0,0.07407407407407407,70.81481481481481,0)" xlink:href="#aZ"/><use transform="matrix(0.07407407407407407,0,0,0.07407407407407407,90,0)" xlink:href="#bb"/><use transform="matrix(0.07407407407407407,0,0,0.07407407407407407,107.18518518518519,0)" xlink:href="#bg"/><use transform="matrix(0.07407407407407407,0,0,0.07407407407407407,121.40740740740742,0)" xlink:href="#bb"/></g><path fill="#c92d39" d="M275 0h-61l-44-196L126 0H64L0-248h53L97-49l45-199h58l43 199 44-199h52" id="bh"/><path fill="#c92d39" d="M24 0v-248h52V0H24" id="bi"/><path fill="#c92d39" d="M186 0v-106H76V0H24v-248h52v99h110v-99h50V0h-50" id="bj"/><g id="J"><use transform="matrix(0.07407407407407407,0,0,0.07407407407407407,0,0)" xlink:href="#bh"/><use transform="matrix(0.07407407407407407,0,0,0.07407407407407407,25.11111111111111,0)" xlink:href="#bi"/><use transform="matrix(0.07407407407407407,0,0,0.07407407407407407,32.51851851851852,0)" xlink:href="#bg"/><use transform="matrix(0.07407407407407407,0,0,0.07407407407407407,48.74074074074074,0)" xlink:href="#bj"/></g><path fill="#c92d39" d="M230 0l2-204L168 0h-37L68-204 70 0H24v-248h70l56 185 57-185h69V0h-46" id="bk"/><path fill="#c92d39" d="M238-95c0 69-44 99-111 99C63 4 22-25 22-93v-155h51v151c-1 38 19 59 55 60 90 1 49-130 58-211h52v153" id="bl"/><path fill="#c92d39" d="M24-248c93 1 206-16 204 79-1 75-69 88-152 82V0H24v-248zm52 121c47 0 100 7 100-41 0-47-54-39-100-39v80" id="bm"/><g id="K"><use transform="matrix(0.07407407407407407,0,0,0.07407407407407407,0,0)" xlink:href="#bk"/><use transform="matrix(0.07407407407407407,0,0,0.07407407407407407,22.148148148148145,0)" xlink:href="#bl"/><use transform="matrix(0.07407407407407407,0,0,0.07407407407407407,41.33333333333333,0)" xlink:href="#bf"/><use transform="matrix(0.07407407407407407,0,0,0.07407407407407407,55.55555555555555,0)" xlink:href="#bg"/><use transform="matrix(0.07407407407407407,0,0,0.07407407407407407,71.77777777777777,0)" xlink:href="#bi"/><use transform="matrix(0.07407407407407407,0,0,0.07407407407407407,79.18518518518518,0)" xlink:href="#bm"/><use transform="matrix(0.07407407407407407,0,0,0.07407407407407407,96.96296296296296,0)" xlink:href="#bf"/><use transform="matrix(0.07407407407407407,0,0,0.07407407407407407,113.18518518518519,0)" xlink:href="#aX"/></g><path fill="#c92d39" d="M67-125c0 54 23 88 75 88 28 0 53-7 68-21v-34h-60v-39h108v91C232-14 192 4 140 4 58 4 20-42 15-125 8-236 126-280 215-234c19 10 29 26 37 47l-47 15c-11-23-29-39-63-39-53 1-75 33-75 86" id="bn"/><path fill="#c92d39" d="M175 0L67-191c6 58 2 128 3 191H24v-248h59L193-55c-6-58-2-129-3-193h46V0h-61" id="bo"/><path fill="#c92d39" d="M240-174c0 40-23 61-54 70L253 0h-59l-57-94H76V0H24v-248c93 4 217-23 216 74zM76-134c48-2 112 12 112-38 0-48-66-32-112-35v73" id="bp"/><g id="M"><use transform="matrix(0.07407407407407407,0,0,0.07407407407407407,0,0)" xlink:href="#ba"/><use transform="matrix(0.07407407407407407,0,0,0.07407407407407407,17.77777777777778,0)" xlink:href="#bi"/><use transform="matrix(0.07407407407407407,0,0,0.07407407407407407,25.185185185185183,0)" xlink:href="#bn"/><use transform="matrix(0.07407407407407407,0,0,0.07407407407407407,45.925925925925924,0)" xlink:href="#bo"/><use transform="matrix(0.07407407407407407,0,0,0.07407407407407407,65.11111111111111,0)" xlink:href="#bb"/><use transform="matrix(0.07407407407407407,0,0,0.07407407407407407,82.2962962962963,0)" xlink:href="#bg"/><use transform="matrix(0.07407407407407407,0,0,0.07407407407407407,98.51851851851853,0)" xlink:href="#bl"/><use transform="matrix(0.07407407407407407,0,0,0.07407407407407407,117.70370370370374,0)" xlink:href="#bp"/><use transform="matrix(0.07407407407407407,0,0,0.07407407407407407,136.8888888888889,0)" xlink:href="#aX"/><use transform="matrix(0.07407407407407407,0,0,0.07407407407407407,154.66666666666669,0)" xlink:href="#ba"/></g><g id="N"><use transform="matrix(0.12345679012345674,0,0,0.12345679012345674,0,0)" xlink:href="#ap"/><use transform="matrix(0.12345679012345674,0,0,0.12345679012345674,34.567901234567884,0)" xlink:href="#aq"/><use transform="matrix(0.12345679012345674,0,0,0.12345679012345674,61.60493827160491,0)" xlink:href="#ar"/><use transform="matrix(0.12345679012345674,0,0,0.12345679012345674,76.29629629629626,0)" xlink:href="#as"/><use transform="matrix(0.12345679012345674,0,0,0.12345679012345674,88.64197530864193,0)" xlink:href="#at"/><use transform="matrix(0.12345679012345674,0,0,0.12345679012345674,128.1481481481481,0)" xlink:href="#as"/><use transform="matrix(0.12345679012345674,0,0,0.12345679012345674,140.49382716049377,0)" xlink:href="#au"/><use transform="matrix(0.12345679012345674,0,0,0.12345679012345674,165.1851851851851,0)" xlink:href="#ar"/><use transform="matrix(0.12345679012345674,0,0,0.12345679012345674,179.87654320987644,0)" xlink:href="#as"/><use transform="matrix(0.12345679012345674,0,0,0.12345679012345674,192.22222222222211,0)" xlink:href="#aD"/></g><path fill="#333" d="M240-174c0 40-23 61-54 70L253 0h-59l-57-94H76V0H24v-248c93 4 217-23 216 74zM76-134c48-2 112 12 112-38 0-48-66-32-112-35v73" id="bq"/><g id="O"><use transform="matrix(0.12345679012345674,0,0,0.12345679012345674,0,0)" xlink:href="#bq"/><use transform="matrix(0.12345679012345674,0,0,0.12345679012345674,31.975308641975296,0)" xlink:href="#aw"/><use transform="matrix(0.12345679012345674,0,0,0.12345679012345674,59.01234567901233,0)" xlink:href="#aA"/><use transform="matrix(0.12345679012345674,0,0,0.12345679012345674,71.358024691358,0)" xlink:href="#aA"/><use transform="matrix(0.12345679012345674,0,0,0.12345679012345674,83.70370370370367,0)" xlink:href="#aE"/><use transform="matrix(0.12345679012345674,0,0,0.12345679012345674,110.74074074074069,0)" xlink:href="#aq"/><use transform="matrix(0.12345679012345674,0,0,0.12345679012345674,137.77777777777771,0)" xlink:href="#au"/></g><path fill="#333" d="M127-220V0H93v-220H8v-28h204v28h-85" id="br"/><g id="P"><use transform="matrix(0.06172839506172839,0,0,0.06172839506172839,0,0)" xlink:href="#br"/><use transform="matrix(0.06172839506172839,0,0,0.06172839506172839,11.049382716049381,0)" xlink:href="#Z"/><use transform="matrix(0.06172839506172839,0,0,0.06172839506172839,23.39506172839506,0)" xlink:href="#Y"/><use transform="matrix(0.06172839506172839,0,0,0.06172839506172839,30.74074074074074,0)" xlink:href="#aJ"/><use transform="matrix(0.06172839506172839,0,0,0.06172839506172839,43.08641975308642,0)" xlink:href="#af"/><use transform="matrix(0.06172839506172839,0,0,0.06172839506172839,55.432098765432094,0)" xlink:href="#X"/></g><path fill="#333" d="M212-179c-10-28-35-45-73-45-59 0-87 40-87 99 0 60 29 101 89 101 43 0 62-24 78-52l27 14C228-24 195 4 139 4 59 4 22-46 18-125c-6-104 99-153 187-111 19 9 31 26 39 46" id="bs"/><g id="Q"><use transform="matrix(0.06172839506172839,0,0,0.06172839506172839,0,0)" xlink:href="#bs"/><use transform="matrix(0.06172839506172839,0,0,0.06172839506172839,15.987654320987653,0)" xlink:href="#V"/><use transform="matrix(0.06172839506172839,0,0,0.06172839506172839,28.333333333333332,0)" xlink:href="#W"/><use transform="matrix(0.06172839506172839,0,0,0.06172839506172839,40.67901234567901,0)" xlink:href="#X"/><use transform="matrix(0.06172839506172839,0,0,0.06172839506172839,46.851851851851855,0)" xlink:href="#Y"/><use transform="matrix(0.06172839506172839,0,0,0.06172839506172839,54.19753086419753,0)" xlink:href="#Z"/><use transform="matrix(0.06172839506172839,0,0,0.06172839506172839,66.54320987654322,0)" xlink:href="#U"/><use transform="matrix(0.06172839506172839,0,0,0.06172839506172839,77.65432098765433,0)" xlink:href="#X"/><use transform="matrix(0.06172839506172839,0,0,0.06172839506172839,83.82716049382717,0)" xlink:href="#aa"/></g></defs></g></svg>