<svg width="1280" height="640" viewBox="0 0 1280 640" fill="none" xmlns="http://www.w3.org/2000/svg">
<rect width="1280" height="640" fill="#5A9DED"/>
<path d="M209 379.573V144.717H310.729C328.6 144.717 343.607 147.125 355.75 151.941C367.97 156.758 377.173 163.562 383.359 172.354C389.622 181.146 392.753 191.505 392.753 203.431C392.753 212.07 390.844 219.944 387.025 227.054C383.283 234.164 378.013 240.127 371.216 244.944C364.419 249.684 356.476 252.971 347.387 254.806V257.099C357.469 257.482 366.633 260.043 374.882 264.783C383.13 269.446 389.698 275.906 394.586 284.163C399.474 292.343 401.918 301.976 401.918 313.061C401.918 325.905 398.557 337.334 391.836 347.349C385.192 357.364 375.722 365.239 363.426 370.973C351.13 376.706 336.466 379.573 319.435 379.573H209ZM272.695 328.657H302.48C313.172 328.657 321.192 326.669 326.538 322.694C331.884 318.642 334.557 312.679 334.557 304.804C334.557 299.3 333.297 294.637 330.776 290.814C328.256 286.991 324.667 284.086 320.008 282.099C315.425 280.111 309.888 279.117 303.397 279.117H272.695V328.657ZM272.695 239.669H298.814C304.39 239.669 309.316 238.789 313.592 237.031C317.869 235.273 321.192 232.75 323.559 229.462C326.003 226.099 327.225 222.008 327.225 217.192C327.225 209.929 324.628 204.387 319.435 200.564C314.242 196.665 307.674 194.716 299.731 194.716H272.695V239.669Z" fill="#FCFCFC"/>
<path d="M424.486 379.573V144.717H488.181V328.198H575.049V379.573H424.486Z" fill="#FCFCFC"/>
<path d="M727.27 218.109C726.659 210.464 723.795 204.501 718.678 200.22C713.637 195.939 705.962 193.798 695.651 193.798C689.083 193.798 683.699 194.601 679.498 196.206C675.374 197.735 672.319 199.838 670.334 202.513C668.348 205.189 667.317 208.247 667.241 211.688C667.088 214.516 667.584 217.077 668.73 219.371C669.952 221.588 671.861 223.614 674.458 225.449C677.055 227.207 680.377 228.813 684.425 230.265C688.472 231.718 693.284 233.017 698.859 234.164L718.105 238.292C731.088 241.045 742.201 244.676 751.442 249.187C760.683 253.697 768.244 259.011 774.124 265.127C780.005 271.166 784.32 277.97 787.07 285.539C789.895 293.108 791.346 301.364 791.423 310.309C791.346 325.752 787.49 338.825 779.852 349.528C772.215 360.231 761.294 368.373 747.088 373.954C732.959 379.535 715.966 382.325 696.11 382.325C675.718 382.325 657.923 379.306 642.725 373.266C627.603 367.226 615.842 357.938 607.441 345.4C599.116 332.785 594.916 316.654 594.839 297.007H655.327C655.708 304.193 657.503 310.232 660.711 315.125C663.918 320.018 668.424 323.726 674.229 326.249C680.109 328.772 687.098 330.033 695.193 330.033C701.99 330.033 707.68 329.192 712.262 327.51C716.845 325.828 720.32 323.497 722.687 320.515C725.055 317.534 726.277 314.131 726.353 310.309C726.277 306.716 725.093 303.581 722.802 300.906C720.587 298.153 716.921 295.707 711.804 293.566C706.687 291.349 699.775 289.285 691.069 287.374L667.699 282.328C646.926 277.817 630.544 270.287 618.553 259.737C606.639 249.11 600.72 234.623 600.796 216.275C600.72 201.367 604.691 188.332 612.71 177.17C620.806 165.932 631.995 157.178 646.276 150.909C660.634 144.64 677.093 141.506 695.651 141.506C714.592 141.506 730.974 144.679 744.797 151.024C758.621 157.369 769.275 166.314 776.759 177.858C784.32 189.326 788.139 202.743 788.215 218.109H727.27Z" fill="#FCFCFC"/>
<path d="M1142.29 284.637C1095.4 234.764 1069.33 169.175 1069.33 101.059V89.1151C1069.34 87.6533 1068.9 86.2241 1068.07 85.0142C1067.24 83.8041 1066.06 82.8696 1064.69 82.3324C1009.11 60.7152 947.377 60.3857 891.565 81.4083C890.221 81.9288 889.063 82.83 888.235 83.999C887.407 85.1678 886.946 86.5525 886.91 87.9795L958.557 228.3C962.21 225.844 966.332 224.153 970.67 223.333C975.008 222.512 979.47 222.578 983.78 223.529C988.091 224.479 992.159 226.292 995.735 228.858C999.31 231.423 1002.32 234.684 1004.57 238.444C1006.82 242.202 1008.28 246.377 1008.84 250.712C1009.4 255.046 1009.05 259.448 1007.83 263.647C1006.61 267.845 1004.52 271.75 1001.72 275.124C998.909 278.497 995.433 281.265 991.503 283.259C990.178 283.913 989.06 284.918 988.278 286.162C987.495 287.406 987.077 288.842 987.07 290.308V531.664C987.07 532.603 987.265 533.531 987.644 534.392C988.023 535.254 988.578 536.027 989.274 536.666C989.969 537.304 990.791 537.795 991.686 538.106C992.583 538.416 993.533 538.54 994.479 538.47H994.559C995.922 538.369 997.224 537.873 998.303 537.044C999.383 536.215 1000.19 535.091 1000.63 533.81C1031.19 444.852 1084.54 362.552 1142.52 294.796C1143.75 293.367 1144.4 291.545 1144.36 289.674C1144.32 287.801 1143.58 286.009 1142.29 284.637Z" fill="url(#paint0_linear_912_2145)"/>
<path d="M1064.73 82.3345C1009.14 60.6942 947.382 60.3563 891.548 81.3868C890.205 81.9074 889.047 82.8085 888.219 83.9775C887.391 85.1463 886.93 86.531 886.894 87.958C884.519 160.899 864.991 233.535 811.653 286.393C810.236 287.81 809.441 289.723 809.441 291.716C809.441 293.708 810.236 295.621 811.653 297.038C877.664 363.932 923.267 446.53 953.973 533.631C954.449 534.981 955.313 536.165 956.462 537.032C957.611 537.9 958.991 538.414 960.433 538.51H960.511C961.514 538.577 962.518 538.439 963.464 538.106C964.41 537.773 965.276 537.25 966.01 536.571C966.742 535.893 967.327 535.072 967.727 534.161C968.127 533.25 968.332 532.267 968.332 531.274V295.15C968.545 256.478 977.308 218.323 994.007 183.358C1010.71 148.393 1034.93 117.468 1064.99 92.7512C1066.58 91.4747 1067.99 90.2606 1069.32 89.1172C1069.36 87.6569 1068.93 86.2226 1068.11 85.0091C1067.29 83.7956 1066.11 82.8618 1064.73 82.3345Z" fill="url(#paint1_linear_912_2145)"/>
<path d="M254.22 546.761L212.184 404.604H255.334L274.821 492.064H275.934L299.04 404.604H333.003L356.109 492.342H357.223L376.71 404.604H419.86L377.824 546.761H340.798L316.579 467.353H315.465L291.245 546.761H254.22Z" fill="#FCFCFC"/>
<path d="M452.762 546.761H411.004L458.051 404.604H510.945L557.992 546.761H516.234L485.055 443.752H483.941L452.762 546.761ZM444.967 490.676H523.472V519.551H444.967V490.676Z" fill="#FCFCFC"/>
<path d="M571.72 546.761V404.604H610.416V515.664H668.042V546.761H571.72Z" fill="#FCFCFC"/>
<path d="M683.684 546.761V404.604H722.379V515.664H780.005V546.761H683.684Z" fill="#FCFCFC"/>
<path d="M795.647 546.761V404.604H898.372V435.701H834.343V460.134H893.083V491.231H834.343V515.664H898.093V546.761H795.647Z" fill="#FCFCFC"/>
<path d="M913.666 435.701V404.604H1037.55V435.701H994.676V546.761H956.537V435.701H913.666Z" fill="#FCFCFC"/>
<defs>
<linearGradient id="paint0_linear_912_2145" x1="1015.62" y1="538.493" x2="1015.62" y2="65.885" gradientUnits="userSpaceOnUse">
<stop stop-color="#196DD2"/>
<stop offset="1" stop-color="#0D40A1"/>
</linearGradient>
<linearGradient id="paint1_linear_912_2145" x1="939.368" y1="65.8869" x2="939.368" y2="538.566" gradientUnits="userSpaceOnUse">
<stop stop-color="#1E7EE5"/>
<stop offset="1" stop-color="#196DD2"/>
</linearGradient>
</defs>
</svg>
