<svg xmlns="http://www.w3.org/2000/svg" xmlns:xlink="http://www.w3.org/1999/xlink" xmlns:lucid="lucid" width="1900" height="1116.33"><g transform="translate(20 20)" lucid:page-tab-id="0_0"><path d="M0 0h1870.87v1322.83H0z" fill="#fff"/><path d="M78.83 351.33c0-3.3 2.7-6 6-6h148c3.32 0 6 2.7 6 6v68c0 3.32-2.68 6-6 6h-148c-3.3 0-6-2.68-6-6z" stroke="#5e5e5e" stroke-width="3" fill="#fff"/><use xlink:href="#a" transform="matrix(1,0,0,1,90.83333333333326,357.33333333333337) translate(32.25925925925926 17.77777777777778)"/><use xlink:href="#b" transform="matrix(1,0,0,1,90.83333333333326,357.33333333333337) translate(38.40123456790124 44.44444444444444)"/><path d="M78.83 731.33c0-3.3 2.7-6 6-6h148c3.32 0 6 2.7 6 6v68c0 3.32-2.68 6-6 6h-148c-3.3 0-6-2.68-6-6z" stroke="#5e5e5e" stroke-width="3" fill="#fff"/><use xlink:href="#c" transform="matrix(1,0,0,1,90.83333333333326,737.3333333333335) translate(42.72222222222223 17.77777777777778)"/><use xlink:href="#d" transform="matrix(1,0,0,1,90.83333333333326,737.3333333333335) translate(22.96913580246914 44.44444444444444)"/><path d="M78.83 531.33c0-3.3 2.7-6 6-6h148c3.32 0 6 2.7 6 6v68c0 3.32-2.68 6-6 6h-148c-3.3 0-6-2.68-6-6z" stroke="#5e5e5e" stroke-width="3" fill="#fff"/><use xlink:href="#e" transform="matrix(1,0,0,1,90.83333333333326,537.3333333333335) translate(30.407407407407412 17.77777777777778)"/><use xlink:href="#f" transform="matrix(1,0,0,1,90.83333333333326,537.3333333333335) translate(26.086419753086417 44.44444444444444)"/><path d="M218.83 983c0 6.63-26.86 12-60 12-33.13 0-60-5.37-60-12v-96c0-6.63 26.87-12 60-12 33.14 0 60 5.37 60 12z" stroke="#5e5e5e" stroke-width="3" fill="#fff"/><path d="M218.83 887c0 6.63-26.86 12-60 12-33.13 0-60-5.37-60-12" stroke="#5e5e5e" stroke-width="3" fill="none"/><use xlink:href="#g" transform="matrix(1,0,0,1,103.83333333333326,904.0000000000002) translate(13.672839506172842 17.77777777777778)"/><use xlink:href="#h" transform="matrix(1,0,0,1,103.83333333333326,904.0000000000002) translate(29.72222222222223 44.44444444444444)"/><use xlink:href="#i" transform="matrix(1,0,0,1,103.83333333333326,904.0000000000002) translate(2.8395061728395063 71.11111111111111)"/><path d="M38.83 271.33c0-3.3 2.7-6 6-6h228c3.32 0 6 2.7 6 6v48c0 3.32-2.68 6-6 6h-228c-3.3 0-6-2.68-6-6z" stroke="#000" stroke-opacity="0" stroke-width="3" fill="#fff" fill-opacity="0"/><use xlink:href="#j" transform="matrix(1,0,0,1,43.83333333333326,270.33333333333337) translate(95.60185185185186 32.91666666666666)"/><path d="M378.83 271.33c0-3.3 2.7-6 6-6h228c3.32 0 6 2.7 6 6v48c0 3.32-2.68 6-6 6h-228c-3.3 0-6-2.68-6-6z" stroke="#000" stroke-opacity="0" stroke-width="3" fill="#fff" fill-opacity="0"/><use xlink:href="#k" transform="matrix(1,0,0,1,383.8333333333332,270.33333333333337) translate(3.1944444444444855 32.91666666666666)"/><use xlink:href="#l" transform="matrix(1,0,0,1,383.8333333333332,270.33333333333337) translate(51.25000000000003 32.91666666666666)"/><path d="M418.83 531.33c0-3.3 2.7-6 6-6h148c3.32 0 6 2.7 6 6v68c0 3.32-2.68 6-6 6h-148c-3.3 0-6-2.68-6-6z" stroke="#5e5e5e" stroke-width="3" fill="#c1e4f7"/><use xlink:href="#a" transform="matrix(1,0,0,1,430.8333333333332,537.3333333333335) translate(32.25925925925926 17.77777777777778)"/><use xlink:href="#b" transform="matrix(1,0,0,1,430.8333333333332,537.3333333333335) translate(38.40123456790124 44.44444444444444)"/><path d="M338.83 286.33v20.46m0 20.46v40.92m0 20.46v40.92m0 20.47v40.92m0 20.46v40.93m0 20.46v40.92m0 20.46v40.92m0 20.46v40.93m0 20.45v40.92m0 20.46v40.93m0 20.46v40.92m0 20.46v40.93m0 20.46v40.9m0 20.47v20.46M338.83 286.36v-1.03M338.83 1084.3v1.03" stroke="#b2b2b2" stroke-width="2" fill="none"/><path d="M38.83 165.67c0-3.32 2.7-6 6-6h610.34c3.3 0 6 2.68 6 6v93.66c0 3.32-2.7 6-6 6H44.83c-3.3 0-6-2.68-6-6z" stroke="#000" stroke-opacity="0" stroke-width="3" fill="#fff" fill-opacity="0"/><use xlink:href="#m" transform="matrix(1,0,0,1,43.83333333333326,164.66666666666669) translate(29.987654320987758 30.222222222222214)"/><use xlink:href="#n" transform="matrix(1,0,0,1,43.83333333333326,164.66666666666669) translate(185.0864197530865 30.222222222222214)"/><use xlink:href="#o" transform="matrix(1,0,0,1,43.83333333333326,164.66666666666669) translate(350.46913580246917 30.222222222222214)"/><use xlink:href="#p" transform="matrix(1,0,0,1,43.83333333333326,164.66666666666669) translate(398.6358024691358 30.222222222222214)"/><use xlink:href="#q" transform="matrix(1,0,0,1,43.83333333333326,164.66666666666669) translate(6.6913580246914535 75.55555555555554)"/><use xlink:href="#r" transform="matrix(1,0,0,1,43.83333333333326,164.66666666666669) translate(167.98148148148152 75.55555555555554)"/><use xlink:href="#s" transform="matrix(1,0,0,1,43.83333333333326,164.66666666666669) translate(222.44444444444446 75.55555555555554)"/><use xlink:href="#t" transform="matrix(1,0,0,1,43.83333333333326,164.66666666666669) translate(333.3641975308642 75.55555555555554)"/><use xlink:href="#u" transform="matrix(1,0,0,1,43.83333333333326,164.66666666666669) translate(410.80864197530866 75.55555555555554)"/><use xlink:href="#v" transform="matrix(1,0,0,1,43.83333333333326,164.66666666666669) translate(496.64814814814815 75.55555555555554)"/><path d="M558.83 983c0 6.63-26.86 12-60 12-33.13 0-60-5.37-60-12v-96c0-6.63 26.87-12 60-12 33.14 0 60 5.37 60 12z" stroke="#5e5e5e" stroke-width="3" fill="#fff"/><path d="M558.83 887c0 6.63-26.86 12-60 12-33.13 0-60-5.37-60-12" stroke="#5e5e5e" stroke-width="3" fill="none"/><use xlink:href="#c" transform="matrix(1,0,0,1,443.8333333333332,904.0000000000002) translate(29.72222222222223 33.90277777777778)"/><use xlink:href="#i" transform="matrix(1,0,0,1,443.8333333333332,904.0000000000002) translate(2.8395061728395063 60.56944444444445)"/><path d="M258.83 846c0-3.3 2.7-6 6-6h68c3.32 0 6 2.7 6 6v51.33c0 3.32-2.68 6-6 6h-68c-3.3 0-6-2.68-6-6z" stroke="#000" stroke-opacity="0" stroke-width="3" fill="#fff" fill-opacity="0"/><use xlink:href="#w" transform="matrix(1,0,0,1,263.83333333333326,845.0000000000001) translate(13.395061728395063 31.27777777777778)"/><path d="M347.83 847.67c0-3.32 2.7-6 6-6h68c3.32 0 6 2.68 6 6V899c0 3.3-2.68 6-6 6h-68c-3.3 0-6-2.7-6-6z" stroke="#000" stroke-opacity="0" stroke-width="3" fill="#fff" fill-opacity="0"/><use xlink:href="#x" transform="matrix(1,0,0,1,352.83333333333326,846.6666666666669) translate(13.395061728395063 18.111111111111114)"/><use xlink:href="#y" transform="matrix(1,0,0,1,352.83333333333326,846.6666666666669) translate(-14.2283950617284 44.777777777777786)"/><path d="M19.83 840h19.34m19.33 0h38.67m19.33 0h38.67m19.33 0h38.67m19.33 0h38.67m19.33 0h38.67m19.33 0h38.67m19.33 0h38.67m19.33 0h38.67m19.33 0h38.67m19.33 0h38.67m19.33 0h19.33M19.86 840h-1.03M657.8 840h1.03" stroke="#b2b2b2" stroke-width="2" fill="none"/><path d="M1700 406c0-3.3 2.7-6 6-6h132c3.3 0 6 2.7 6 6v96c-24.05-17.03-39.02-17.03-48.1-17.03-14.4 0-33.55 17.03-47.95 17.03-8.93 0-24.05 0-47.95-17.03z" stroke="#5e5e5e" stroke-width="6" fill="#fff"/><path d="M1708 415c0-3.3 2.7-6 6-6h132c3.3 0 6 2.7 6 6v96c-24.05-17.03-39.02-17.03-48.1-17.03-14.4 0-33.55 17.03-47.95 17.03-8.93 0-24.05 0-47.95-17.03z" stroke="#5e5e5e" stroke-width="6" fill="#fff"/><path d="M1716 424c0-3.3 2.7-6 6-6h132c3.3 0 6 2.7 6 6v96c-24.05-17.03-39.02-17.03-48.1-17.03-14.4 0-33.55 17.03-47.95 17.03-8.93 0-24.05 0-47.95-17.03z" stroke="#5e5e5e" stroke-width="6" fill="#fff"/><use xlink:href="#z" transform="matrix(1,0,0,1,1721,423) translate(23.351851851851848 17.77777777777778)"/><use xlink:href="#A" transform="matrix(1,0,0,1,1721,423) translate(10.29629629629629 44.44444444444444)"/><path d="M0 6c0-3.3 2.7-6 6-6h169.17c3.3 0 6 2.7 6 6v104.67c0 3.3-2.7 6-6 6H6c-3.3 0-6-2.7-6-6z" stroke="#000" stroke-opacity="0" stroke-width="3" fill="#fff" fill-opacity="0"/><use xlink:href="#B" transform="matrix(1,0,0,1,5,5) translate(41.67901234567903 35.72222222222223)"/><use xlink:href="#C" transform="matrix(1,0,0,1,5,5) translate(-0.2345679012345272 89.05555555555554)"/><path d="M418.83 731.33c0-3.3 2.7-6 6-6h148c3.32 0 6 2.7 6 6v68c0 3.32-2.68 6-6 6h-148c-3.3 0-6-2.68-6-6z" stroke="#5e5e5e" stroke-width="3" fill="#c7e8ac"/><use xlink:href="#D" transform="matrix(1,0,0,1,430.8333333333332,737.3333333333334) translate(16.641975308641975 31.77777777777778)"/><path d="M441 705.33h-2v-55.97h2zm0-77.3h-2v-20.2h2z" fill="#19967d"/><path d="M441 607.86h-2v-1.03h2zM440 720.6l-4.64-14.27h9.28z" fill="#19967d"/><path d="M440 723.83l-6-18.5h12zm-3.26-16.5l3.26 10.03 3.26-10.03z" fill="#19967d"/><use xlink:href="#E" transform="matrix(1,0,0,1,378.9382716049382,628.028273809524) translate(0 14.222222222222223)"/><path d="M559.83 722.83h-2v-56.75h2zm0-78.1h-2v-19.4h2z" fill="#ef8d22"/><path d="M559.83 723.83h-2v-1.02h2zM563.47 624.34h-9.27l4.63-14.27z" fill="#ef8d22"/><path d="M564.85 625.34h-12.03l6-18.5zm-9.28-2h6.52l-3.27-10.03z" fill="#ef8d22"/><use xlink:href="#F" transform="matrix(1,0,0,1,519.9444444444441,644.7425595238097) translate(0 14.222222222222223)"/><path d="M636 765.33h-20c-3.3 0-6-2.68-6-6v-8c0-3.3-2.7-6-6-6h-6.66" stroke="#19967d" stroke-width="2" fill="none"/><path d="M637 766.33h-1.03v-2H637z" fill="#19967d"/><path d="M582.07 745.33l14.27-4.63v9.27z" stroke="#19967d" stroke-width="2" fill="#19967d"/><use xlink:href="#G" transform="matrix(1,0,0,1,593.5255483606887,703.8756762556111) translate(0 17.77777777777778)"/><use xlink:href="#H" transform="matrix(1,0,0,1,593.5255483606887,703.8756762556111) translate(0 44.44444444444444)"/><path d="M636 765.33h-20c-3.3 0-6 2.7-6 6v12.38c0 3.32-2.7 6-6 6h-5.16" stroke="#ef8d22" stroke-width="2" fill="none"/><path d="M637 766.33h-1.03v-2H637z" fill="#ef8d22"/><path d="M583.57 789.7l14.27-4.63v9.27z" stroke="#ef8d22" stroke-width="2" fill="#ef8d22"/><use xlink:href="#I" transform="matrix(1,0,0,1,603.9105479945805,779.4936686030502) translate(0 17.77777777777778)"/><use xlink:href="#J" transform="matrix(1,0,0,1,603.9105479945805,779.4936686030502) translate(0 44.44444444444444)"/><path d="M640 740.08c0-3.3 2.7-6 6-6h128c3.3 0 6 2.7 6 6v56.5c-23.38-10.43-37.94-10.43-46.76-10.43-14 0-32.62 10.43-46.62 10.43-8.68 0-23.38 0-46.62-10.43z" stroke="#5e5e5e" stroke-width="6" fill="#fff"/><use xlink:href="#K" transform="matrix(1,0,0,1,645,739.0833333333335) translate(0.27777777777777146 25.84027777777778)"/><path d="M940 351.33c0-3.3 2.7-6 6-6h148c3.3 0 6 2.7 6 6v68c0 3.32-2.7 6-6 6H946c-3.3 0-6-2.68-6-6z" stroke="#5e5e5e" stroke-width="3" fill="#fff"/><use xlink:href="#a" transform="matrix(1,0,0,1,952,357.33333333333337) translate(32.25925925925926 17.77777777777778)"/><use xlink:href="#b" transform="matrix(1,0,0,1,952,357.33333333333337) translate(38.40123456790124 44.44444444444444)"/><path d="M940 731.33c0-3.3 2.7-6 6-6h148c3.3 0 6 2.7 6 6v68c0 3.32-2.7 6-6 6H946c-3.3 0-6-2.68-6-6z" stroke="#5e5e5e" stroke-width="3" fill="#fff"/><use xlink:href="#c" transform="matrix(1,0,0,1,952,737.3333333333335) translate(42.72222222222223 17.77777777777778)"/><use xlink:href="#d" transform="matrix(1,0,0,1,952,737.3333333333335) translate(22.96913580246914 44.44444444444444)"/><path d="M940 531.33c0-3.3 2.7-6 6-6h148c3.3 0 6 2.7 6 6v68c0 3.32-2.7 6-6 6H946c-3.3 0-6-2.68-6-6z" stroke="#5e5e5e" stroke-width="3" fill="#fff"/><use xlink:href="#e" transform="matrix(1,0,0,1,952,537.3333333333335) translate(30.407407407407412 17.77777777777778)"/><use xlink:href="#f" transform="matrix(1,0,0,1,952,537.3333333333335) translate(26.086419753086417 44.44444444444444)"/><path d="M1080 983c0 6.63-26.86 12-60 12s-60-5.37-60-12v-96c0-6.63 26.86-12 60-12s60 5.37 60 12z" stroke="#5e5e5e" stroke-width="3" fill="#fff"/><path d="M1080 887c0 6.63-26.86 12-60 12s-60-5.37-60-12" stroke="#5e5e5e" stroke-width="3" fill="none"/><use xlink:href="#g" transform="matrix(1,0,0,1,965.0000000000001,904.0000000000002) translate(13.672839506172842 17.77777777777778)"/><use xlink:href="#h" transform="matrix(1,0,0,1,965.0000000000001,904.0000000000002) translate(29.72222222222223 44.44444444444444)"/><use xlink:href="#i" transform="matrix(1,0,0,1,965.0000000000001,904.0000000000002) translate(2.8395061728395063 71.11111111111111)"/><path d="M900 271.33c0-3.3 2.7-6 6-6h228c3.3 0 6 2.7 6 6v48c0 3.32-2.7 6-6 6H906c-3.3 0-6-2.68-6-6z" stroke="#000" stroke-opacity="0" stroke-width="3" fill="#fff" fill-opacity="0"/><use xlink:href="#j" transform="matrix(1,0,0,1,905,270.33333333333337) translate(95.60185185185186 32.91666666666666)"/><path d="M1240 271.33c0-3.3 2.7-6 6-6h228c3.3 0 6 2.7 6 6v48c0 3.32-2.7 6-6 6h-228c-3.3 0-6-2.68-6-6z" stroke="#000" stroke-opacity="0" stroke-width="3" fill="#fff" fill-opacity="0"/><use xlink:href="#k" transform="matrix(1,0,0,1,1245,270.33333333333337) translate(3.1944444444444855 32.91666666666666)"/><use xlink:href="#l" transform="matrix(1,0,0,1,1245,270.33333333333337) translate(51.25000000000003 32.91666666666666)"/><path d="M1280 531.33c0-3.3 2.7-6 6-6h148c3.3 0 6 2.7 6 6v68c0 3.32-2.7 6-6 6h-148c-3.3 0-6-2.68-6-6z" stroke="#5e5e5e" stroke-width="3" fill="#c1e4f7"/><use xlink:href="#a" transform="matrix(1,0,0,1,1292,537.3333333333335) translate(32.25925925925926 17.77777777777778)"/><use xlink:href="#b" transform="matrix(1,0,0,1,1292,537.3333333333335) translate(38.40123456790124 44.44444444444444)"/><path d="M1200 286.33v20.46m0 20.46v40.92m0 20.46v40.92m0 20.47v40.92m0 20.46v40.93m0 20.46v40.92m0 20.46v40.92m0 20.46v40.93m0 20.45v40.92m0 20.46v40.93m0 20.46v40.92m0 20.46v40.93m0 20.46v40.9m0 20.47v20.46M1200 286.36v-1.03M1200 1084.3v1.03" stroke="#b2b2b2" stroke-width="2" fill="none"/><path d="M960 176.33c0-3.3 2.7-6 6-6h448c3.3 0 6 2.7 6 6V265c0 3.3-2.7 6-6 6H966c-3.3 0-6-2.7-6-6z" stroke="#000" stroke-opacity="0" stroke-width="3" fill="#fff" fill-opacity="0"/><use xlink:href="#L" transform="matrix(1,0,0,1,965,175.33333333333348) translate(40.72839506172846 52.972222222222214)"/><use xlink:href="#M" transform="matrix(1,0,0,1,965,175.33333333333348) translate(193.51851851851853 52.972222222222214)"/><use xlink:href="#N" transform="matrix(1,0,0,1,965,175.33333333333348) translate(247.98148148148147 52.972222222222214)"/><path d="M1420 983c0 6.63-26.86 12-60 12s-60-5.37-60-12v-96c0-6.63 26.86-12 60-12s60 5.37 60 12z" stroke="#5e5e5e" stroke-width="3" fill="#fff"/><path d="M1420 887c0 6.63-26.86 12-60 12s-60-5.37-60-12" stroke="#5e5e5e" stroke-width="3" fill="none"/><use xlink:href="#c" transform="matrix(1,0,0,1,1305,904.0000000000002) translate(29.72222222222223 33.90277777777778)"/><use xlink:href="#i" transform="matrix(1,0,0,1,1305,904.0000000000002) translate(2.8395061728395063 60.56944444444445)"/><path d="M1120 846c0-3.3 2.7-6 6-6h68c3.3 0 6 2.7 6 6v51.33c0 3.32-2.7 6-6 6h-68c-3.3 0-6-2.68-6-6z" stroke="#000" stroke-opacity="0" stroke-width="3" fill="#fff" fill-opacity="0"/><use xlink:href="#w" transform="matrix(1,0,0,1,1125,845.0000000000003) translate(13.395061728395063 31.27777777777778)"/><path d="M1209 847.67c0-3.32 2.7-6 6-6h68c3.3 0 6 2.68 6 6V899c0 3.3-2.7 6-6 6h-68c-3.3 0-6-2.7-6-6z" stroke="#000" stroke-opacity="0" stroke-width="3" fill="#fff" fill-opacity="0"/><use xlink:href="#x" transform="matrix(1,0,0,1,1214,846.6666666666669) translate(13.395061728395063 18.111111111111114)"/><use xlink:href="#y" transform="matrix(1,0,0,1,1214,846.6666666666669) translate(-14.2283950617284 44.777777777777786)"/><path d="M881 840h19.33m19.34 0h38.66m19.34 0h38.66m19.34 0h38.66m19.34 0h38.66m19.34 0h38.66m19.34 0h38.66m19.34 0h38.66m19.34 0h38.66m19.34 0h38.66m19.34 0h38.66m19.34 0H1519M881.03 840H880M1518.97 840h1.03" stroke="#b2b2b2" stroke-width="2" fill="none"/><path d="M1280 731.33c0-3.3 2.7-6 6-6h148c3.3 0 6 2.7 6 6v68c0 3.32-2.7 6-6 6h-148c-3.3 0-6-2.68-6-6z" stroke="#5e5e5e" stroke-width="3" fill="#c7e8ac"/><g><use xlink:href="#D" transform="matrix(1,0,0,1,1292,737.3333333333334) translate(16.641975308641975 31.77777777777778)"/></g><path d="M1520 281v20.46m0 20.46v40.93m0 20.46v40.93m0 20.46v40.92m0 20.46V547m0 20.46v40.92m0 20.47v40.92m0 20.46v40.92m0 20.47v40.92m0 20.46v40.92m0 20.46v40.93m0 20.47v40.92m0 20.45v40.93m0 20.46V1079M1520 281.03V280M1520 1078.97v1.03" stroke="#b2b2b2" stroke-width="2" fill="none"/><path d="M1589.18 610.63c1.56-2.93 5.5-5.3 8.82-5.3h84c3.3 0 7.26 2.37 8.82 5.3l26.36 49.4c1.56 2.93 1.56 7.67 0 10.6l-26.36 49.4c-1.56 2.93-5.5 5.3-8.82 5.3h-84c-3.3 0-7.26-2.37-8.82-5.3l-26.36-49.4c-1.56-2.93-1.56-7.67 0-10.6z" stroke="#5e5e5e" stroke-width="3" fill="#a3d977"/><g><use xlink:href="#O" transform="matrix(1,0,0,1,1565,610.3333333333335) translate(32.505 45.27777777777778)"/><use xlink:href="#P" transform="matrix(1,0,0,1,1565,610.3333333333335) translate(82.99882716049383 45.27777777777778)"/><use xlink:href="#Q" transform="matrix(1,0,0,1,1565,610.3333333333335) translate(9.788950617283954 71.94444444444446)"/></g><path d="M1696 421.33h-79.33c-3.32 0-6 2.7-6 6v158" stroke="#5e5e5e" stroke-width="2" fill="none"/><path d="M1697 422.33h-1.03v-2h1.03z" fill="#5e5e5e"/><path d="M1610.67 600.6l-4.64-14.27h9.27z" stroke="#5e5e5e" stroke-width="2" fill="#5e5e5e"/><g><use xlink:href="#R" transform="matrix(1,0,0,1,1574.1473644630616,374.66666666666725) translate(0 14.222222222222223)"/><use xlink:href="#S" transform="matrix(1,0,0,1,1574.1473644630616,374.66666666666725) translate(15.753086419753087 14.222222222222223)"/><use xlink:href="#T" transform="matrix(1,0,0,1,1574.1473644630616,374.66666666666725) translate(30.567901234567906 14.222222222222223)"/><use xlink:href="#U" transform="matrix(1,0,0,1,1574.1473644630616,374.66666666666725) translate(0 35.55555555555556)"/></g><path d="M1696 445.46h-50c-3.3 0-6 2.7-6 6v133.87" stroke="#5e5e5e" stroke-width="2" fill="none"/><path d="M1697 446.46h-1.03v-2h1.03z" fill="#5e5e5e"/><path d="M1640 600.6l-4.64-14.27h9.28z" stroke="#5e5e5e" stroke-width="2" fill="#5e5e5e"/><path d="M1696 469.76h-22.55c-3.3 0-6 2.7-6 6v109.57" stroke="#5e5e5e" stroke-width="2" fill="none"/><path d="M1697 470.76h-1.03v-2h1.03z" fill="#5e5e5e"/><path d="M1667.45 600.6l-4.64-14.27h9.28z" stroke="#5e5e5e" stroke-width="2" fill="#5e5e5e"/><path d="M1640 727.83v31.5c0 3.32-2.7 6-6 6h-174" stroke="#5e5e5e" stroke-width="2" fill="none"/><path d="M1641 727.86h-2v-1.03h2z" fill="#5e5e5e"/><path d="M1444.74 765.33l14.26-4.63v9.27z" stroke="#5e5e5e" stroke-width="2" fill="#5e5e5e"/><g><use xlink:href="#V" transform="matrix(1,0,0,1,1533.5515407401522,769.3333333333334) translate(0 14.222222222222223)"/></g><path d="M1277.5 765.33H1255c-3.3 0-6 2.7-6 6v51.83" stroke="#5e5e5e" stroke-width="2" fill="none"/><path d="M1278.5 766.33h-1.03v-2h1.03z" fill="#5e5e5e"/><path d="M1249 838.43l-4.64-14.27h9.28z" stroke="#5e5e5e" stroke-width="2" fill="#5e5e5e"/><path d="M1228 840.67v-69.34c0-3.3-2.7-6-6-6h-102" stroke="#7ab648" stroke-width="2" fill="none"/><path d="M1229 841.67h-2v-1.03h2z" fill="#7ab648"/><path d="M1104.74 765.33l14.26-4.63v9.27z" stroke="#7ab648" stroke-width="2" fill="#7ab648"/><g><use xlink:href="#W" transform="matrix(1,0,0,1,1121.1234567901254,708.0000000000001) translate(0 17.777777777777775)"/><use xlink:href="#X" transform="matrix(1,0,0,1,1121.1234567901254,708.0000000000001) translate(67.77777777777777 17.777777777777775)"/><use xlink:href="#Y" transform="matrix(1,0,0,1,1121.1234567901254,708.0000000000001) translate(0 44.44444444444444)"/></g><path d="M1020 807.83V855" stroke="#7ab648" stroke-width="2" fill="none"/><path d="M1021 807.86h-2v-1.03h2z" fill="#7ab648"/><path d="M1020 870.26l-4.64-14.26h9.28z" stroke="#7ab648" stroke-width="2" fill="#7ab648"/><path d="M1580 271.33c0-3.3 2.7-6 6-6h228c3.3 0 6 2.7 6 6v48c0 3.32-2.7 6-6 6h-228c-3.3 0-6-2.68-6-6z" stroke="#000" stroke-opacity="0" stroke-width="3" fill="#fff" fill-opacity="0"/><g><use xlink:href="#Z" transform="matrix(1,0,0,1,1585,270.33333333333337) translate(57.08333333333336 32.91666666666666)"/></g><defs><path fill="#333" d="M30 0v-248h187v28H63v79h144v27H63v87h162V0H30" id="aa"/><path fill="#333" d="M233-177c-1 41-23 64-60 70L243 0h-38l-65-103H63V0H30v-248c88 3 205-21 203 71zM63-129c60-2 137 13 137-47 0-61-80-42-137-45v92" id="ab"/><path fill="#333" d="M212-179c-10-28-35-45-73-45-59 0-87 40-87 99 0 60 29 101 89 101 43 0 62-24 78-52l27 14C228-24 195 4 139 4 59 4 22-46 18-125c-6-104 99-153 187-111 19 9 31 26 39 46" id="ac"/><path fill="#333" d="M101-251c82-7 93 87 43 132L82-64C71-53 59-42 53-27h129V0H18c2-99 128-94 128-182 0-28-16-43-45-43s-46 15-49 41l-32-3c6-41 34-60 81-64" id="ad"/><path fill="#333" d="M101-251c68 0 85 55 85 127S166 4 100 4C33 4 14-52 14-124c0-73 17-127 87-127zm-1 229c47 0 54-49 54-102s-4-102-53-102c-51 0-55 48-55 102 0 53 5 102 54 102" id="ae"/><g id="a"><use transform="matrix(0.06172839506172839,0,0,0.06172839506172839,0,0)" xlink:href="#aa"/><use transform="matrix(0.06172839506172839,0,0,0.06172839506172839,14.814814814814813,0)" xlink:href="#ab"/><use transform="matrix(0.06172839506172839,0,0,0.06172839506172839,30.80246913580247,0)" xlink:href="#ac"/><use transform="matrix(0.06172839506172839,0,0,0.06172839506172839,46.79012345679012,0)" xlink:href="#ad"/><use transform="matrix(0.06172839506172839,0,0,0.06172839506172839,59.1358024691358,0)" xlink:href="#ae"/></g><path fill="#333" d="M127-220V0H93v-220H8v-28h204v28h-85" id="af"/><path fill="#333" d="M100-194c62-1 85 37 85 99 1 63-27 99-86 99S16-35 15-95c0-66 28-99 85-99zM99-20c44 1 53-31 53-75 0-43-8-75-51-75s-53 32-53 75 10 74 51 75" id="ag"/><path fill="#333" d="M143 0L79-87 56-68V0H24v-261h32v163l83-92h37l-77 82L181 0h-38" id="ah"/><path fill="#333" d="M100-194c63 0 86 42 84 106H49c0 40 14 67 53 68 26 1 43-12 49-29l28 8c-11 28-37 45-77 45C44 4 14-33 15-96c1-61 26-98 85-98zm52 81c6-60-76-77-97-28-3 7-6 17-6 28h103" id="ai"/><path fill="#333" d="M117-194c89-4 53 116 60 194h-32v-121c0-31-8-49-39-48C34-167 62-67 57 0H25l-1-190h30c1 10-1 24 2 32 11-22 29-35 61-36" id="aj"/><g id="b"><use transform="matrix(0.06172839506172839,0,0,0.06172839506172839,0,0)" xlink:href="#af"/><use transform="matrix(0.06172839506172839,0,0,0.06172839506172839,11.049382716049381,0)" xlink:href="#ag"/><use transform="matrix(0.06172839506172839,0,0,0.06172839506172839,23.39506172839506,0)" xlink:href="#ah"/><use transform="matrix(0.06172839506172839,0,0,0.06172839506172839,34.50617283950617,0)" xlink:href="#ai"/><use transform="matrix(0.06172839506172839,0,0,0.06172839506172839,46.85185185185185,0)" xlink:href="#aj"/></g><path fill="#333" d="M140-251c81 0 123 46 123 126C263-46 219 4 140 4 59 4 17-45 17-125s42-126 123-126zm0 227c63 0 89-41 89-101s-29-99-89-99c-61 0-89 39-89 99S79-25 140-24" id="ak"/><path fill="#333" d="M137 0h-34L2-248h35l83 218 83-218h36" id="al"/><path fill="#333" d="M240 0l2-218c-23 76-54 145-80 218h-23L58-218 59 0H30v-248h44l77 211c21-75 51-140 76-211h43V0h-30" id="am"/><g id="c"><use transform="matrix(0.06172839506172839,0,0,0.06172839506172839,0,0)" xlink:href="#ak"/><use transform="matrix(0.06172839506172839,0,0,0.06172839506172839,17.28395061728395,0)" xlink:href="#al"/><use transform="matrix(0.06172839506172839,0,0,0.06172839506172839,32.09876543209876,0)" xlink:href="#am"/></g><path fill="#333" d="M96-169c-40 0-48 33-48 73s9 75 48 75c24 0 41-14 43-38l32 2c-6 37-31 61-74 61-59 0-76-41-82-99-10-93 101-131 147-64 4 7 5 14 7 22l-32 3c-4-21-16-35-41-35" id="an"/><path fill="#333" d="M59-47c-2 24 18 29 38 22v24C64 9 27 4 27-40v-127H5v-23h24l9-43h21v43h35v23H59v120" id="ao"/><path fill="#333" d="M114-163C36-179 61-72 57 0H25l-1-190h30c1 12-1 29 2 39 6-27 23-49 58-41v29" id="ap"/><path fill="#333" d="M141-36C126-15 110 5 73 4 37 3 15-17 15-53c-1-64 63-63 125-63 3-35-9-54-41-54-24 1-41 7-42 31l-33-3c5-37 33-52 76-52 45 0 72 20 72 64v82c-1 20 7 32 28 27v20c-31 9-61-2-59-35zM48-53c0 20 12 33 32 33 41-3 63-29 60-74-43 2-92-5-92 41" id="aq"/><path fill="#333" d="M135-143c-3-34-86-38-87 0 15 53 115 12 119 90S17 21 10-45l28-5c4 36 97 45 98 0-10-56-113-15-118-90-4-57 82-63 122-42 12 7 21 19 24 35" id="ar"/><g id="d"><use transform="matrix(0.06172839506172839,0,0,0.06172839506172839,0,0)" xlink:href="#an"/><use transform="matrix(0.06172839506172839,0,0,0.06172839506172839,11.11111111111111,0)" xlink:href="#ag"/><use transform="matrix(0.06172839506172839,0,0,0.06172839506172839,23.45679012345679,0)" xlink:href="#aj"/><use transform="matrix(0.06172839506172839,0,0,0.06172839506172839,35.80246913580247,0)" xlink:href="#ao"/><use transform="matrix(0.06172839506172839,0,0,0.06172839506172839,41.97530864197531,0)" xlink:href="#ap"/><use transform="matrix(0.06172839506172839,0,0,0.06172839506172839,49.32098765432099,0)" xlink:href="#aq"/><use transform="matrix(0.06172839506172839,0,0,0.06172839506172839,61.666666666666664,0)" xlink:href="#an"/><use transform="matrix(0.06172839506172839,0,0,0.06172839506172839,72.77777777777777,0)" xlink:href="#ao"/><use transform="matrix(0.06172839506172839,0,0,0.06172839506172839,78.9506172839506,0)" xlink:href="#ar"/></g><path fill="#333" d="M30-248c118-7 216 8 213 122C240-48 200 0 122 0H30v-248zM63-27c89 8 146-16 146-99s-60-101-146-95v194" id="as"/><path fill="#333" d="M115-194c55 1 70 41 70 98S169 2 115 4C84 4 66-9 55-30l1 105H24l-1-265h31l2 30c10-21 28-34 59-34zm-8 174c40 0 45-34 45-75s-6-73-45-74c-42 0-51 32-51 76 0 43 10 73 51 73" id="at"/><path fill="#333" d="M24-231v-30h32v30H24zM24 0v-190h32V0H24" id="au"/><g id="e"><use transform="matrix(0.06172839506172839,0,0,0.06172839506172839,0,0)" xlink:href="#as"/><use transform="matrix(0.06172839506172839,0,0,0.06172839506172839,15.987654320987653,0)" xlink:href="#ai"/><use transform="matrix(0.06172839506172839,0,0,0.06172839506172839,28.333333333333332,0)" xlink:href="#at"/><use transform="matrix(0.06172839506172839,0,0,0.06172839506172839,40.67901234567901,0)" xlink:href="#ag"/><use transform="matrix(0.06172839506172839,0,0,0.06172839506172839,53.02469135802469,0)" xlink:href="#ar"/><use transform="matrix(0.06172839506172839,0,0,0.06172839506172839,64.1358024691358,0)" xlink:href="#au"/><use transform="matrix(0.06172839506172839,0,0,0.06172839506172839,69.01234567901234,0)" xlink:href="#ao"/></g><g id="f"><use transform="matrix(0.06172839506172839,0,0,0.06172839506172839,0,0)" xlink:href="#ac"/><use transform="matrix(0.06172839506172839,0,0,0.06172839506172839,15.987654320987653,0)" xlink:href="#ag"/><use transform="matrix(0.06172839506172839,0,0,0.06172839506172839,28.333333333333332,0)" xlink:href="#aj"/><use transform="matrix(0.06172839506172839,0,0,0.06172839506172839,40.67901234567901,0)" xlink:href="#ao"/><use transform="matrix(0.06172839506172839,0,0,0.06172839506172839,46.851851851851855,0)" xlink:href="#ap"/><use transform="matrix(0.06172839506172839,0,0,0.06172839506172839,54.19753086419753,0)" xlink:href="#aq"/><use transform="matrix(0.06172839506172839,0,0,0.06172839506172839,66.54320987654322,0)" xlink:href="#an"/><use transform="matrix(0.06172839506172839,0,0,0.06172839506172839,77.65432098765433,0)" xlink:href="#ao"/></g><path fill="#333" d="M33 0v-248h34V0H33" id="av"/><path fill="#333" d="M24 0v-261h32V0H24" id="aw"/><path fill="#333" d="M84 4C-5 8 30-112 23-190h32v120c0 31 7 50 39 49 72-2 45-101 50-169h31l1 190h-30c-1-10 1-25-2-33-11 22-28 36-60 37" id="ax"/><path fill="#333" d="M85-194c31 0 48 13 60 33l-1-100h32l1 261h-30c-2-10 0-23-3-31C134-8 116 4 85 4 32 4 16-35 15-94c0-66 23-100 70-100zm9 24c-40 0-46 34-46 75 0 40 6 74 45 74 42 0 51-32 51-76 0-42-9-74-50-73" id="ay"/><g id="g"><use transform="matrix(0.06172839506172839,0,0,0.06172839506172839,0,0)" xlink:href="#av"/><use transform="matrix(0.06172839506172839,0,0,0.06172839506172839,6.172839506172839,0)" xlink:href="#aj"/><use transform="matrix(0.06172839506172839,0,0,0.06172839506172839,18.51851851851852,0)" xlink:href="#an"/><use transform="matrix(0.06172839506172839,0,0,0.06172839506172839,29.62962962962963,0)" xlink:href="#aw"/><use transform="matrix(0.06172839506172839,0,0,0.06172839506172839,34.50617283950617,0)" xlink:href="#ax"/><use transform="matrix(0.06172839506172839,0,0,0.06172839506172839,46.85185185185185,0)" xlink:href="#ay"/><use transform="matrix(0.06172839506172839,0,0,0.06172839506172839,59.197530864197525,0)" xlink:href="#ai"/><use transform="matrix(0.06172839506172839,0,0,0.06172839506172839,71.5432098765432,0)" xlink:href="#ar"/></g><g id="h"><use transform="matrix(0.06172839506172839,0,0,0.06172839506172839,0,0)" xlink:href="#ak"/><use transform="matrix(0.06172839506172839,0,0,0.06172839506172839,17.28395061728395,0)" xlink:href="#al"/><use transform="matrix(0.06172839506172839,0,0,0.06172839506172839,32.09876543209876,0)" xlink:href="#am"/></g><path fill="#333" d="M185-189c-5-48-123-54-124 2 14 75 158 14 163 119 3 78-121 87-175 55-17-10-28-26-33-46l33-7c5 56 141 63 141-1 0-78-155-14-162-118-5-82 145-84 179-34 5 7 8 16 11 25" id="az"/><path fill="#333" d="M118-107v75H92v-75H18v-26h74v-75h26v75h74v26h-74" id="aA"/><path fill="#333" d="M141 0L90-78 38 0H4l68-98-65-92h35l48 74 47-74h35l-64 92 68 98h-35" id="aB"/><g id="i"><use transform="matrix(0.06172839506172839,0,0,0.06172839506172839,0,0)" xlink:href="#az"/><use transform="matrix(0.06172839506172839,0,0,0.06172839506172839,14.814814814814813,0)" xlink:href="#ao"/><use transform="matrix(0.06172839506172839,0,0,0.06172839506172839,20.98765432098765,0)" xlink:href="#aq"/><use transform="matrix(0.06172839506172839,0,0,0.06172839506172839,33.33333333333333,0)" xlink:href="#ao"/><use transform="matrix(0.06172839506172839,0,0,0.06172839506172839,39.50617283950617,0)" xlink:href="#ai"/><use transform="matrix(0.06172839506172839,0,0,0.06172839506172839,51.85185185185185,0)" xlink:href="#ar"/><use transform="matrix(0.06172839506172839,0,0,0.06172839506172839,62.96296296296296,0)" xlink:href="#aA"/><use transform="matrix(0.06172839506172839,0,0,0.06172839506172839,75.92592592592592,0)" xlink:href="#ao"/><use transform="matrix(0.06172839506172839,0,0,0.06172839506172839,82.09876543209876,0)" xlink:href="#aB"/><use transform="matrix(0.06172839506172839,0,0,0.06172839506172839,93.20987654320987,0)" xlink:href="#ar"/></g><path fill="#333" d="M24 0v-248h52v208h133V0H24" id="aC"/><path fill="#333" d="M23 0v-37h61v-169l-59 37v-38l62-41h46v211h57V0H23" id="aD"/><g id="j"><use transform="matrix(0.09259259259259256,0,0,0.09259259259259256,0,0)" xlink:href="#aC"/><use transform="matrix(0.09259259259259256,0,0,0.09259259259259256,20.27777777777777,0)" xlink:href="#aD"/></g><path fill="#333" d="M182-182c0 78-84 86-111 141h115V0H12c-6-101 99-100 120-180 1-22-12-31-33-32-23 0-32 14-35 34l-49-3c5-45 32-70 84-70 51 0 83 22 83 69" id="aE"/><g id="k"><use transform="matrix(0.09259259259259256,0,0,0.09259259259259256,0,0)" xlink:href="#aC"/><use transform="matrix(0.09259259259259256,0,0,0.09259259259259256,20.27777777777777,0)" xlink:href="#aE"/></g><path fill="#333" d="M67-93c0 74 22 123 53 168H70C40 30 18-18 18-93s22-123 52-168h50c-32 44-53 94-53 168" id="aF"/><path fill="#333" d="M140-251c80 0 125 45 125 126S219 4 139 4C58 4 15-44 15-125s44-126 125-126zm-1 214c52 0 73-35 73-88 0-50-21-86-72-86-52 0-73 35-73 86s22 88 72 88" id="aG"/><path fill="#333" d="M135-194c53 0 70 44 70 98 0 56-19 98-73 100-31 1-45-17-59-34 3 33 2 69 2 105H25l-1-265h48c2 10 0 23 3 31 11-24 29-35 60-35zM114-30c33 0 39-31 40-66 0-38-9-64-40-64-56 0-55 130 0 130" id="aH"/><path fill="#333" d="M115-3C79 11 28 4 28-45v-112H4v-33h27l15-45h31v45h36v33H77v99c-1 23 16 31 38 25v30" id="aI"/><path fill="#333" d="M25-224v-37h50v37H25zM25 0v-190h50V0H25" id="aJ"/><path fill="#333" d="M220-157c-53 9-28 100-34 157h-49v-107c1-27-5-49-29-50C55-147 81-57 75 0H25l-1-190h47c2 12-1 28 3 38 10-53 101-56 108 0 13-22 24-43 59-42 82 1 51 116 57 194h-49v-107c-1-25-5-48-29-50" id="aK"/><path fill="#333" d="M137-138c1-29-70-34-71-4 15 46 118 7 119 86 1 83-164 76-172 9l43-7c4 19 20 25 44 25 33 8 57-30 24-41C81-84 22-81 20-136c-2-80 154-74 161-7" id="aL"/><path fill="#333" d="M102-93c0 74-22 123-52 168H0C30 29 54-18 53-93c0-74-22-123-53-168h50c30 45 52 94 52 168" id="aM"/><g id="l"><use transform="matrix(0.09259259259259256,0,0,0.09259259259259256,0,0)" xlink:href="#aF"/><use transform="matrix(0.09259259259259256,0,0,0.09259259259259256,11.018518518518515,0)" xlink:href="#aG"/><use transform="matrix(0.09259259259259256,0,0,0.09259259259259256,36.94444444444443,0)" xlink:href="#aH"/><use transform="matrix(0.09259259259259256,0,0,0.09259259259259256,57.2222222222222,0)" xlink:href="#aI"/><use transform="matrix(0.09259259259259256,0,0,0.09259259259259256,68.24074074074072,0)" xlink:href="#aJ"/><use transform="matrix(0.09259259259259256,0,0,0.09259259259259256,77.49999999999997,0)" xlink:href="#aK"/><use transform="matrix(0.09259259259259256,0,0,0.09259259259259256,107.12962962962959,0)" xlink:href="#aJ"/><use transform="matrix(0.09259259259259256,0,0,0.09259259259259256,116.38888888888884,0)" xlink:href="#aL"/><use transform="matrix(0.09259259259259256,0,0,0.09259259259259256,134.90740740740736,0)" xlink:href="#aK"/><use transform="matrix(0.09259259259259256,0,0,0.09259259259259256,164.53703703703698,0)" xlink:href="#aM"/></g><path fill="#333" d="M133-34C117-15 103 5 69 4 32 3 11-16 11-54c-1-60 55-63 116-61 1-26-3-47-28-47-18 1-26 9-28 27l-52-2c7-38 36-58 82-57s74 22 75 68l1 82c-1 14 12 18 25 15v27c-30 8-71 5-69-32zm-48 3c29 0 43-24 42-57-32 0-66-3-65 30 0 17 8 27 23 27" id="aN"/><path fill="#333" d="M88-194c31-1 46 15 58 34l-1-101h50l1 261h-48c-2-10 0-23-3-31C134-8 116 4 84 4 32 4 16-41 15-95c0-56 19-97 73-99zm17 164c33 0 40-30 41-66 1-37-9-64-41-64s-38 30-39 65c0 43 13 65 39 65" id="aO"/><path fill="#333" d="M135-150c-39-12-60 13-60 57V0H25l-1-190h47c2 13-1 29 3 40 6-28 27-53 61-41v41" id="aP"/><path fill="#333" d="M185-48c-13 30-37 53-82 52C43 2 14-33 14-96s30-98 90-98c62 0 83 45 84 108H66c0 31 8 55 39 56 18 0 30-7 34-22zm-45-69c5-46-57-63-70-21-2 6-4 13-4 21h74" id="aQ"/><g id="m"><use transform="matrix(0.10493827160493824,0,0,0.10493827160493824,0,0)" xlink:href="#aN"/><use transform="matrix(0.10493827160493824,0,0,0.10493827160493824,20.987654320987648,0)" xlink:href="#aO"/><use transform="matrix(0.10493827160493824,0,0,0.10493827160493824,43.969135802469125,0)" xlink:href="#aO"/><use transform="matrix(0.10493827160493824,0,0,0.10493827160493824,66.9506172839506,0)" xlink:href="#aP"/><use transform="matrix(0.10493827160493824,0,0,0.10493827160493824,81.64197530864196,0)" xlink:href="#aQ"/><use transform="matrix(0.10493827160493824,0,0,0.10493827160493824,102.6296296296296,0)" xlink:href="#aL"/><use transform="matrix(0.10493827160493824,0,0,0.10493827160493824,123.61728395061725,0)" xlink:href="#aL"/></g><path fill="#333" d="M110-194c64 0 96 36 96 99 0 64-35 99-97 99-61 0-95-36-95-99 0-62 34-99 96-99zm-1 164c35 0 45-28 45-65 0-40-10-65-43-65-34 0-45 26-45 65 0 36 10 65 43 65" id="aR"/><g id="n"><use transform="matrix(0.10493827160493824,0,0,0.10493827160493824,0,0)" xlink:href="#aO"/><use transform="matrix(0.10493827160493824,0,0,0.10493827160493824,22.981481481481474,0)" xlink:href="#aQ"/><use transform="matrix(0.10493827160493824,0,0,0.10493827160493824,43.969135802469125,0)" xlink:href="#aH"/><use transform="matrix(0.10493827160493824,0,0,0.10493827160493824,66.9506172839506,0)" xlink:href="#aR"/><use transform="matrix(0.10493827160493824,0,0,0.10493827160493824,89.93209876543207,0)" xlink:href="#aL"/><use transform="matrix(0.10493827160493824,0,0,0.10493827160493824,110.91975308641972,0)" xlink:href="#aJ"/><use transform="matrix(0.10493827160493824,0,0,0.10493827160493824,121.41358024691354,0)" xlink:href="#aI"/><use transform="matrix(0.10493827160493824,0,0,0.10493827160493824,133.90123456790118,0)" xlink:href="#aL"/></g><g id="o"><use transform="matrix(0.10493827160493824,0,0,0.10493827160493824,0,0)" xlink:href="#aR"/><use transform="matrix(0.10493827160493824,0,0,0.10493827160493824,22.981481481481474,0)" xlink:href="#aP"/></g><path fill="#333" d="M231 0h-52l-39-155L100 0H48L-1-190h46L77-45c9-52 24-97 36-145h53l37 145 32-145h46" id="aS"/><path fill="#333" d="M114-157C55-157 80-60 75 0H25v-261h50l-1 109c12-26 28-41 61-42 86-1 58 113 63 194h-50c-7-57 23-157-34-157" id="aT"/><g id="p"><use transform="matrix(0.10493827160493824,0,0,0.10493827160493824,0,0)" xlink:href="#aS"/><use transform="matrix(0.10493827160493824,0,0,0.10493827160493824,29.382716049382708,0)" xlink:href="#aJ"/><use transform="matrix(0.10493827160493824,0,0,0.10493827160493824,39.87654320987653,0)" xlink:href="#aI"/><use transform="matrix(0.10493827160493824,0,0,0.10493827160493824,52.36419753086418,0)" xlink:href="#aT"/><use transform="matrix(0.10493827160493824,0,0,0.10493827160493824,75.34567901234566,0)" xlink:href="#aO"/><use transform="matrix(0.10493827160493824,0,0,0.10493827160493824,98.32716049382714,0)" xlink:href="#aP"/><use transform="matrix(0.10493827160493824,0,0,0.10493827160493824,113.01851851851848,0)" xlink:href="#aN"/><use transform="matrix(0.10493827160493824,0,0,0.10493827160493824,134.00617283950615,0)" xlink:href="#aS"/><use transform="matrix(0.10493827160493824,0,0,0.10493827160493824,163.38888888888886,0)" xlink:href="#aL"/></g><path fill="#333" d="M135-194c52 0 70 43 70 98 0 56-19 99-73 100-30 1-46-15-58-35L72 0H24l1-261h50v104c11-23 29-37 60-37zM114-30c31 0 40-27 40-66 0-37-7-63-39-63s-41 28-41 65c0 36 8 64 40 64" id="aU"/><path fill="#333" d="M135-194c87-1 58 113 63 194h-50c-7-57 23-157-34-157-59 0-34 97-39 157H25l-1-190h47c2 12-1 28 3 38 12-26 28-41 61-42" id="aV"/><g id="q"><use transform="matrix(0.10493827160493824,0,0,0.10493827160493824,0,0)" xlink:href="#aU"/><use transform="matrix(0.10493827160493824,0,0,0.10493827160493824,22.981481481481474,0)" xlink:href="#aQ"/><use transform="matrix(0.10493827160493824,0,0,0.10493827160493824,43.969135802469125,0)" xlink:href="#aI"/><use transform="matrix(0.10493827160493824,0,0,0.10493827160493824,56.45679012345677,0)" xlink:href="#aS"/><use transform="matrix(0.10493827160493824,0,0,0.10493827160493824,85.83950617283949,0)" xlink:href="#aQ"/><use transform="matrix(0.10493827160493824,0,0,0.10493827160493824,106.82716049382714,0)" xlink:href="#aQ"/><use transform="matrix(0.10493827160493824,0,0,0.10493827160493824,127.81481481481477,0)" xlink:href="#aV"/></g><g id="r"><use transform="matrix(0.10493827160493824,0,0,0.10493827160493824,0,0)" xlink:href="#aC"/><use transform="matrix(0.10493827160493824,0,0,0.10493827160493824,22.981481481481474,0)" xlink:href="#aE"/></g><path fill="#333" d="M147 0L96-86 75-71V0H25v-261h50v150l67-79h53l-66 74L201 0h-54" id="aW"/><g id="s"><use transform="matrix(0.10493827160493824,0,0,0.10493827160493824,0,0)" xlink:href="#aI"/><use transform="matrix(0.10493827160493824,0,0,0.10493827160493824,12.48765432098765,0)" xlink:href="#aR"/><use transform="matrix(0.10493827160493824,0,0,0.10493827160493824,35.469135802469125,0)" xlink:href="#aW"/><use transform="matrix(0.10493827160493824,0,0,0.10493827160493824,56.45679012345677,0)" xlink:href="#aQ"/><use transform="matrix(0.10493827160493824,0,0,0.10493827160493824,77.44444444444441,0)" xlink:href="#aV"/></g><g id="t"><use transform="matrix(0.10493827160493824,0,0,0.10493827160493824,0,0)" xlink:href="#aN"/><use transform="matrix(0.10493827160493824,0,0,0.10493827160493824,20.987654320987648,0)" xlink:href="#aV"/><use transform="matrix(0.10493827160493824,0,0,0.10493827160493824,43.969135802469125,0)" xlink:href="#aO"/></g><path fill="#333" d="M182-130c37 4 62 22 62 59C244 23 116-4 24 0v-248c84 5 203-23 205 63 0 31-19 50-47 55zM76-148c40-3 101 13 101-30 0-44-60-28-101-31v61zm0 110c48-3 116 14 116-37 0-48-69-32-116-35v72" id="aX"/><path fill="#333" d="M169-182c-1-43-94-46-97-3 18 66 151 10 154 114 3 95-165 93-204 36-6-8-10-19-12-30l50-8c3 46 112 56 116 5-17-69-150-10-154-114-4-87 153-88 188-35 5 8 8 18 10 28" id="aY"/><g id="u"><use transform="matrix(0.10493827160493824,0,0,0.10493827160493824,0,0)" xlink:href="#aX"/><use transform="matrix(0.10493827160493824,0,0,0.10493827160493824,27.179012345679002,0)" xlink:href="#aC"/><use transform="matrix(0.10493827160493824,0,0,0.10493827160493824,50.16049382716048,0)" xlink:href="#aY"/></g><path fill="#333" d="M275 0h-61l-44-196L126 0H64L0-248h53L97-49l45-199h58l43 199 44-199h52" id="aZ"/><path fill="#333" d="M25 0v-261h50V0H25" id="ba"/><g id="v"><use transform="matrix(0.10493827160493824,0,0,0.10493827160493824,0,0)" xlink:href="#aZ"/><use transform="matrix(0.10493827160493824,0,0,0.10493827160493824,34.209876543209866,0)" xlink:href="#aN"/><use transform="matrix(0.10493827160493824,0,0,0.10493827160493824,55.19753086419751,0)" xlink:href="#ba"/><use transform="matrix(0.10493827160493824,0,0,0.10493827160493824,65.69135802469134,0)" xlink:href="#ba"/><use transform="matrix(0.10493827160493824,0,0,0.10493827160493824,76.18518518518516,0)" xlink:href="#aQ"/><use transform="matrix(0.10493827160493824,0,0,0.10493827160493824,97.1728395061728,0)" xlink:href="#aI"/></g><path fill="#333" d="M177-190C167-65 218 103 67 71c-23-6-38-20-44-43l32-5c15 47 100 32 89-28v-30C133-14 115 1 83 1 29 1 15-40 15-95c0-56 16-97 71-98 29-1 48 16 59 35 1-10 0-23 2-32h30zM94-22c36 0 50-32 50-73 0-42-14-75-50-75-39 0-46 34-46 75s6 73 46 73" id="bb"/><path fill="#333" d="M106-169C34-169 62-67 57 0H25v-261h32l-1 103c12-21 28-36 61-36 89 0 53 116 60 194h-32v-121c2-32-8-49-39-48" id="bc"/><g id="w"><use transform="matrix(0.06172839506172839,0,0,0.06172839506172839,0,0)" xlink:href="#bb"/><use transform="matrix(0.06172839506172839,0,0,0.06172839506172839,12.345679012345679,0)" xlink:href="#ai"/><use transform="matrix(0.06172839506172839,0,0,0.06172839506172839,24.691358024691358,0)" xlink:href="#ao"/><use transform="matrix(0.06172839506172839,0,0,0.06172839506172839,30.864197530864196,0)" xlink:href="#bc"/></g><g id="x"><use transform="matrix(0.06172839506172839,0,0,0.06172839506172839,0,0)" xlink:href="#bb"/><use transform="matrix(0.06172839506172839,0,0,0.06172839506172839,12.345679012345679,0)" xlink:href="#ai"/><use transform="matrix(0.06172839506172839,0,0,0.06172839506172839,24.691358024691358,0)" xlink:href="#ao"/><use transform="matrix(0.06172839506172839,0,0,0.06172839506172839,30.864197530864196,0)" xlink:href="#bc"/></g><path fill="#333" d="M87 75C49 33 22-17 22-94c0-76 28-126 65-167h31c-38 41-64 92-64 168S80 34 118 75H87" id="bd"/><path fill="#333" d="M210-169c-67 3-38 105-44 169h-31v-121c0-29-5-50-35-48C34-165 62-65 56 0H25l-1-190h30c1 10-1 24 2 32 10-44 99-50 107 0 11-21 27-35 58-36 85-2 47 119 55 194h-31v-121c0-29-5-49-35-48" id="be"/><path fill="#333" d="M101-234c-31-9-42 10-38 44h38v23H63V0H32v-167H5v-23h27c-7-52 17-82 69-68v24" id="bf"/><path fill="#333" d="M33-261c38 41 65 92 65 168S71 34 33 75H2C39 34 66-17 66-93S39-220 2-261h31" id="bg"/><g id="y"><use transform="matrix(0.06172839506172839,0,0,0.06172839506172839,0,0)" xlink:href="#bd"/><use transform="matrix(0.06172839506172839,0,0,0.06172839506172839,7.345679012345679,0)" xlink:href="#be"/><use transform="matrix(0.06172839506172839,0,0,0.06172839506172839,25.80246913580247,0)" xlink:href="#ag"/><use transform="matrix(0.06172839506172839,0,0,0.06172839506172839,38.148148148148145,0)" xlink:href="#ay"/><use transform="matrix(0.06172839506172839,0,0,0.06172839506172839,50.49382716049382,0)" xlink:href="#au"/><use transform="matrix(0.06172839506172839,0,0,0.06172839506172839,55.37037037037037,0)" xlink:href="#bf"/><use transform="matrix(0.06172839506172839,0,0,0.06172839506172839,61.54320987654321,0)" xlink:href="#au"/><use transform="matrix(0.06172839506172839,0,0,0.06172839506172839,66.41975308641975,0)" xlink:href="#ai"/><use transform="matrix(0.06172839506172839,0,0,0.06172839506172839,78.76543209876543,0)" xlink:href="#ay"/><use transform="matrix(0.06172839506172839,0,0,0.06172839506172839,91.11111111111111,0)" xlink:href="#bg"/></g><g id="z"><use transform="matrix(0.06172839506172839,0,0,0.06172839506172839,0,0)" xlink:href="#am"/><use transform="matrix(0.06172839506172839,0,0,0.06172839506172839,18.456790123456788,0)" xlink:href="#ax"/><use transform="matrix(0.06172839506172839,0,0,0.06172839506172839,30.80246913580247,0)" xlink:href="#aw"/><use transform="matrix(0.06172839506172839,0,0,0.06172839506172839,35.67901234567901,0)" xlink:href="#ao"/><use transform="matrix(0.06172839506172839,0,0,0.06172839506172839,41.851851851851855,0)" xlink:href="#au"/><use transform="matrix(0.06172839506172839,0,0,0.06172839506172839,46.7283950617284,0)" xlink:href="#at"/><use transform="matrix(0.06172839506172839,0,0,0.06172839506172839,59.074074074074076,0)" xlink:href="#aw"/><use transform="matrix(0.06172839506172839,0,0,0.06172839506172839,63.95061728395061,0)" xlink:href="#ai"/></g><g id="A"><use transform="matrix(0.06172839506172839,0,0,0.06172839506172839,0,0)" xlink:href="#aq"/><use transform="matrix(0.06172839506172839,0,0,0.06172839506172839,12.345679012345679,0)" xlink:href="#ay"/><use transform="matrix(0.06172839506172839,0,0,0.06172839506172839,24.691358024691358,0)" xlink:href="#ay"/><use transform="matrix(0.06172839506172839,0,0,0.06172839506172839,37.03703703703704,0)" xlink:href="#ap"/><use transform="matrix(0.06172839506172839,0,0,0.06172839506172839,44.382716049382715,0)" xlink:href="#ai"/><use transform="matrix(0.06172839506172839,0,0,0.06172839506172839,56.72839506172839,0)" xlink:href="#ar"/><use transform="matrix(0.06172839506172839,0,0,0.06172839506172839,67.8395061728395,0)" xlink:href="#ar"/><use transform="matrix(0.06172839506172839,0,0,0.06172839506172839,78.95061728395062,0)" xlink:href="#ai"/><use transform="matrix(0.06172839506172839,0,0,0.06172839506172839,91.2962962962963,0)" xlink:href="#ar"/></g><g id="B"><use transform="matrix(0.12345679012345674,0,0,0.12345679012345674,0,0)" xlink:href="#aX"/><use transform="matrix(0.12345679012345674,0,0,0.12345679012345674,31.975308641975296,0)" xlink:href="#aC"/><use transform="matrix(0.12345679012345674,0,0,0.12345679012345674,59.01234567901233,0)" xlink:href="#aY"/></g><path fill="#333" d="M190-63c-7 42-38 67-86 67-59 0-84-38-90-98-12-110 154-137 174-36l-49 2c-2-19-15-32-35-32-30 0-35 28-38 64-6 74 65 87 74 30" id="bh"/><g id="C"><use transform="matrix(0.12345679012345674,0,0,0.12345679012345674,0,0)" xlink:href="#aX"/><use transform="matrix(0.12345679012345674,0,0,0.12345679012345674,31.975308641975296,0)" xlink:href="#aN"/><use transform="matrix(0.12345679012345674,0,0,0.12345679012345674,56.66666666666664,0)" xlink:href="#aI"/><use transform="matrix(0.12345679012345674,0,0,0.12345679012345674,71.358024691358,0)" xlink:href="#bh"/><use transform="matrix(0.12345679012345674,0,0,0.12345679012345674,96.04938271604934,0)" xlink:href="#aT"/><use transform="matrix(0.12345679012345674,0,0,0.12345679012345674,123.08641975308636,0)" xlink:href="#aQ"/><use transform="matrix(0.12345679012345674,0,0,0.12345679012345674,147.77777777777771,0)" xlink:href="#aL"/></g><path fill="#333" d="M160-131c35 5 61 23 61 61C221 17 115-2 30 0v-248c76 3 177-17 177 60 0 33-19 50-47 57zm-97-11c50-1 110 9 110-42 0-47-63-36-110-37v79zm0 115c55-2 124 14 124-45 0-56-70-42-124-44v89" id="bi"/><path fill="#333" d="M30 0v-248h33v221h125V0H30" id="bj"/><path fill="#333" d="M266 0h-40l-56-210L115 0H75L2-248h35L96-30l15-64 43-154h32l59 218 59-218h35" id="bk"/><g id="D"><use transform="matrix(0.06172839506172839,0,0,0.06172839506172839,0,0)" xlink:href="#bi"/><use transform="matrix(0.06172839506172839,0,0,0.06172839506172839,14.814814814814813,0)" xlink:href="#bj"/><use transform="matrix(0.06172839506172839,0,0,0.06172839506172839,27.160493827160494,0)" xlink:href="#az"/><use transform="matrix(0.06172839506172839,0,0,0.06172839506172839,41.9753086419753,0)" xlink:href="#bk"/><use transform="matrix(0.06172839506172839,0,0,0.06172839506172839,62.09876543209876,0)" xlink:href="#aq"/><use transform="matrix(0.06172839506172839,0,0,0.06172839506172839,74.44444444444444,0)" xlink:href="#aw"/><use transform="matrix(0.06172839506172839,0,0,0.06172839506172839,79.32098765432099,0)" xlink:href="#aw"/><use transform="matrix(0.06172839506172839,0,0,0.06172839506172839,84.19753086419753,0)" xlink:href="#ai"/><use transform="matrix(0.06172839506172839,0,0,0.06172839506172839,96.54320987654322,0)" xlink:href="#ao"/></g><path fill="#333" d="M121-226c-27-7-43 5-38 36h38v33H83V0H34v-157H6v-33h28c-9-59 32-81 87-68v32" id="bl"/><path fill="#333" d="M76-208v77h127v40H76V0H24v-248h183v40H76" id="bm"/><g id="E"><use transform="matrix(0.04938271604938272,0,0,0.04938271604938272,0,0)" xlink:href="#aI"/><use transform="matrix(0.04938271604938272,0,0,0.04938271604938272,5.8765432098765435,0)" xlink:href="#aP"/><use transform="matrix(0.04938271604938272,0,0,0.04938271604938272,12.790123456790125,0)" xlink:href="#aN"/><use transform="matrix(0.04938271604938272,0,0,0.04938271604938272,22.666666666666668,0)" xlink:href="#aV"/><use transform="matrix(0.04938271604938272,0,0,0.04938271604938272,33.48148148148148,0)" xlink:href="#aL"/><use transform="matrix(0.04938271604938272,0,0,0.04938271604938272,43.358024691358025,0)" xlink:href="#bl"/><use transform="matrix(0.04938271604938272,0,0,0.04938271604938272,49.23456790123457,0)" xlink:href="#aQ"/><use transform="matrix(0.04938271604938272,0,0,0.04938271604938272,59.111111111111114,0)" xlink:href="#aP"/><use transform="matrix(0.04938271604938272,0,0,0.04938271604938272,66.0246913580247,0)" xlink:href="#bm"/><use transform="matrix(0.04938271604938272,0,0,0.04938271604938272,76.8395061728395,0)" xlink:href="#aP"/><use transform="matrix(0.04938271604938272,0,0,0.04938271604938272,83.75308641975309,0)" xlink:href="#aR"/><use transform="matrix(0.04938271604938272,0,0,0.04938271604938272,94.5679012345679,0)" xlink:href="#aK"/><use transform="matrix(0.04938271604938272,0,0,0.04938271604938272,110.37037037037035,0)" xlink:href="#aF"/><use transform="matrix(0.04938271604938272,0,0,0.04938271604938272,116.2469135802469,0)" xlink:href="#aM"/></g><g id="F"><use transform="matrix(0.04938271604938272,0,0,0.04938271604938272,0,0)" xlink:href="#aI"/><use transform="matrix(0.04938271604938272,0,0,0.04938271604938272,5.8765432098765435,0)" xlink:href="#aP"/><use transform="matrix(0.04938271604938272,0,0,0.04938271604938272,12.790123456790125,0)" xlink:href="#aN"/><use transform="matrix(0.04938271604938272,0,0,0.04938271604938272,22.666666666666668,0)" xlink:href="#aV"/><use transform="matrix(0.04938271604938272,0,0,0.04938271604938272,33.48148148148148,0)" xlink:href="#aL"/><use transform="matrix(0.04938271604938272,0,0,0.04938271604938272,43.358024691358025,0)" xlink:href="#bl"/><use transform="matrix(0.04938271604938272,0,0,0.04938271604938272,49.23456790123457,0)" xlink:href="#aQ"/><use transform="matrix(0.04938271604938272,0,0,0.04938271604938272,59.111111111111114,0)" xlink:href="#aP"/><use transform="matrix(0.04938271604938272,0,0,0.04938271604938272,66.0246913580247,0)" xlink:href="#aF"/><use transform="matrix(0.04938271604938272,0,0,0.04938271604938272,71.90123456790124,0)" xlink:href="#aM"/></g><path fill="#333" d="M76-54c-1 42 2 86-19 110H24C36 42 46 24 48 0H25v-54h51" id="bn"/><path fill="#333" d="M85 4C-2 5 27-109 22-190h50c7 57-23 150 33 157 60-5 35-97 40-157h50l1 190h-47c-2-12 1-28-3-38-12 25-28 42-61 42" id="bo"/><g id="G"><use transform="matrix(0.06172839506172839,0,0,0.06172839506172839,0,0)" xlink:href="#aO"/><use transform="matrix(0.06172839506172839,0,0,0.06172839506172839,13.518518518518517,0)" xlink:href="#aQ"/><use transform="matrix(0.06172839506172839,0,0,0.06172839506172839,25.864197530864196,0)" xlink:href="#aH"/><use transform="matrix(0.06172839506172839,0,0,0.06172839506172839,39.382716049382715,0)" xlink:href="#aR"/><use transform="matrix(0.06172839506172839,0,0,0.06172839506172839,52.901234567901234,0)" xlink:href="#aL"/><use transform="matrix(0.06172839506172839,0,0,0.06172839506172839,65.24691358024691,0)" xlink:href="#aJ"/><use transform="matrix(0.06172839506172839,0,0,0.06172839506172839,71.41975308641975,0)" xlink:href="#aI"/><use transform="matrix(0.06172839506172839,0,0,0.06172839506172839,78.76543209876543,0)" xlink:href="#aF"/><use transform="matrix(0.06172839506172839,0,0,0.06172839506172839,86.11111111111111,0)" xlink:href="#aN"/><use transform="matrix(0.06172839506172839,0,0,0.06172839506172839,98.4567901234568,0)" xlink:href="#ba"/><use transform="matrix(0.06172839506172839,0,0,0.06172839506172839,104.62962962962963,0)" xlink:href="#aJ"/><use transform="matrix(0.06172839506172839,0,0,0.06172839506172839,110.80246913580247,0)" xlink:href="#bh"/><use transform="matrix(0.06172839506172839,0,0,0.06172839506172839,123.14814814814815,0)" xlink:href="#aQ"/><use transform="matrix(0.06172839506172839,0,0,0.06172839506172839,135.49382716049382,0)" xlink:href="#bn"/><use transform="matrix(0.06172839506172839,0,0,0.06172839506172839,141.66666666666666,0)" xlink:href="#aN"/><use transform="matrix(0.06172839506172839,0,0,0.06172839506172839,154.01234567901233,0)" xlink:href="#aK"/><use transform="matrix(0.06172839506172839,0,0,0.06172839506172839,173.76543209876542,0)" xlink:href="#aR"/><use transform="matrix(0.06172839506172839,0,0,0.06172839506172839,187.28395061728392,0)" xlink:href="#bo"/><use transform="matrix(0.06172839506172839,0,0,0.06172839506172839,200.80246913580243,0)" xlink:href="#aV"/><use transform="matrix(0.06172839506172839,0,0,0.06172839506172839,214.32098765432093,0)" xlink:href="#aI"/><use transform="matrix(0.06172839506172839,0,0,0.06172839506172839,221.6666666666666,0)" xlink:href="#aM"/></g><g id="J"><use transform="matrix(0.06172839506172839,0,0,0.06172839506172839,0,0)" xlink:href="#aS"/><use transform="matrix(0.06172839506172839,0,0,0.06172839506172839,17.28395061728395,0)" xlink:href="#aJ"/><use transform="matrix(0.06172839506172839,0,0,0.06172839506172839,23.456790123456788,0)" xlink:href="#aI"/><use transform="matrix(0.06172839506172839,0,0,0.06172839506172839,30.80246913580247,0)" xlink:href="#aT"/><use transform="matrix(0.06172839506172839,0,0,0.06172839506172839,44.32098765432099,0)" xlink:href="#aO"/><use transform="matrix(0.06172839506172839,0,0,0.06172839506172839,57.839506172839506,0)" xlink:href="#aP"/><use transform="matrix(0.06172839506172839,0,0,0.06172839506172839,66.48148148148148,0)" xlink:href="#aN"/><use transform="matrix(0.06172839506172839,0,0,0.06172839506172839,78.82716049382717,0)" xlink:href="#aS"/><use transform="matrix(0.06172839506172839,0,0,0.06172839506172839,96.11111111111111,0)" xlink:href="#aF"/><use transform="matrix(0.06172839506172839,0,0,0.06172839506172839,103.4567901234568,0)" xlink:href="#aM"/></g><path fill="#333" d="M205 0l-28-72H64L36 0H1l101-248h38L239 0h-34zm-38-99l-47-123c-12 45-31 82-46 123h93" id="bp"/><g id="K"><use transform="matrix(0.06172839506172839,0,0,0.06172839506172839,0,0)" xlink:href="#bp"/><use transform="matrix(0.06172839506172839,0,0,0.06172839506172839,14.814814814814813,0)" xlink:href="#aw"/><use transform="matrix(0.06172839506172839,0,0,0.06172839506172839,19.691358024691354,0)" xlink:href="#au"/><use transform="matrix(0.06172839506172839,0,0,0.06172839506172839,24.5679012345679,0)" xlink:href="#an"/><use transform="matrix(0.06172839506172839,0,0,0.06172839506172839,35.67901234567901,0)" xlink:href="#ai"/><use transform="matrix(0.06172839506172839,0,0,0.06172839506172839,48.02469135802469,0)" xlink:href="#bp"/><use transform="matrix(0.06172839506172839,0,0,0.06172839506172839,62.839506172839506,0)" xlink:href="#ay"/><use transform="matrix(0.06172839506172839,0,0,0.06172839506172839,75.18518518518519,0)" xlink:href="#ay"/><use transform="matrix(0.06172839506172839,0,0,0.06172839506172839,87.53086419753087,0)" xlink:href="#ap"/><use transform="matrix(0.06172839506172839,0,0,0.06172839506172839,94.87654320987656,0)" xlink:href="#ai"/><use transform="matrix(0.06172839506172839,0,0,0.06172839506172839,107.22222222222224,0)" xlink:href="#ar"/><use transform="matrix(0.06172839506172839,0,0,0.06172839506172839,118.33333333333336,0)" xlink:href="#ar"/></g><path fill="#333" d="M230 0l2-204L168 0h-37L68-204 70 0H24v-248h70l56 185 57-185h69V0h-46" id="bq"/><g id="L"><use transform="matrix(0.10493827160493824,0,0,0.10493827160493824,0,0)" xlink:href="#bq"/><use transform="matrix(0.10493827160493824,0,0,0.10493827160493824,31.376543209876534,0)" xlink:href="#bo"/><use transform="matrix(0.10493827160493824,0,0,0.10493827160493824,54.358024691358004,0)" xlink:href="#ba"/><use transform="matrix(0.10493827160493824,0,0,0.10493827160493824,64.85185185185183,0)" xlink:href="#aI"/><use transform="matrix(0.10493827160493824,0,0,0.10493827160493824,77.33950617283948,0)" xlink:href="#aJ"/><use transform="matrix(0.10493827160493824,0,0,0.10493827160493824,87.8333333333333,0)" xlink:href="#aH"/><use transform="matrix(0.10493827160493824,0,0,0.10493827160493824,110.81481481481478,0)" xlink:href="#ba"/><use transform="matrix(0.10493827160493824,0,0,0.10493827160493824,121.3086419753086,0)" xlink:href="#aQ"/></g><g id="M"><use transform="matrix(0.10493827160493824,0,0,0.10493827160493824,0,0)" xlink:href="#aC"/><use transform="matrix(0.10493827160493824,0,0,0.10493827160493824,22.981481481481474,0)" xlink:href="#aE"/></g><g id="N"><use transform="matrix(0.10493827160493824,0,0,0.10493827160493824,0,0)" xlink:href="#aI"/><use transform="matrix(0.10493827160493824,0,0,0.10493827160493824,12.48765432098765,0)" xlink:href="#aP"/><use transform="matrix(0.10493827160493824,0,0,0.10493827160493824,27.179012345679002,0)" xlink:href="#aN"/><use transform="matrix(0.10493827160493824,0,0,0.10493827160493824,48.16666666666666,0)" xlink:href="#aV"/><use transform="matrix(0.10493827160493824,0,0,0.10493827160493824,71.14814814814812,0)" xlink:href="#aL"/><use transform="matrix(0.10493827160493824,0,0,0.10493827160493824,92.13580246913577,0)" xlink:href="#bl"/><use transform="matrix(0.10493827160493824,0,0,0.10493827160493824,104.62345679012341,0)" xlink:href="#aQ"/><use transform="matrix(0.10493827160493824,0,0,0.10493827160493824,125.61111111111104,0)" xlink:href="#aP"/><use transform="matrix(0.10493827160493824,0,0,0.10493827160493824,140.30246913580243,0)" xlink:href="#aL"/></g><g id="O"><use transform="matrix(0.06172839506172839,0,0,0.06172839506172839,0,0)" xlink:href="#aX"/><use transform="matrix(0.06172839506172839,0,0,0.06172839506172839,15.987654320987653,0)" xlink:href="#aC"/><use transform="matrix(0.06172839506172839,0,0,0.06172839506172839,29.50617283950617,0)" xlink:href="#aY"/></g><path fill="#333" d="M195-6C206 82 75 100 31 46c-4-6-6-13-8-21l49-6c3 16 16 24 34 25 40 0 42-37 40-79-11 22-30 35-61 35-53 0-70-43-70-97 0-56 18-96 73-97 30 0 46 14 59 34l2-30h47zm-90-29c32 0 41-27 41-63 0-35-9-62-40-62-32 0-39 29-40 63 0 36 9 62 39 62" id="br"/><g id="P"><use transform="matrix(0.06172839506172839,0,0,0.06172839506172839,0,0)" xlink:href="#aY"/><use transform="matrix(0.06172839506172839,0,0,0.06172839506172839,14.814814814814813,0)" xlink:href="#aJ"/><use transform="matrix(0.06172839506172839,0,0,0.06172839506172839,20.98765432098765,0)" xlink:href="#br"/></g><path fill="#333" d="M199 0l-22-63H83L61 0H9l90-248h61L250 0h-51zm-33-102l-36-108c-10 38-24 72-36 108h72" id="bs"/><g id="Q"><use transform="matrix(0.06172839506172839,0,0,0.06172839506172839,0,0)" xlink:href="#bs"/><use transform="matrix(0.06172839506172839,0,0,0.06172839506172839,15.987654320987653,0)" xlink:href="#br"/><use transform="matrix(0.06172839506172839,0,0,0.06172839506172839,29.50617283950617,0)" xlink:href="#br"/><use transform="matrix(0.06172839506172839,0,0,0.06172839506172839,43.02469135802469,0)" xlink:href="#aP"/><use transform="matrix(0.06172839506172839,0,0,0.06172839506172839,51.666666666666664,0)" xlink:href="#aQ"/><use transform="matrix(0.06172839506172839,0,0,0.06172839506172839,64.01234567901234,0)" xlink:href="#br"/><use transform="matrix(0.06172839506172839,0,0,0.06172839506172839,77.53086419753086,0)" xlink:href="#aN"/><use transform="matrix(0.06172839506172839,0,0,0.06172839506172839,89.87654320987654,0)" xlink:href="#aI"/><use transform="matrix(0.06172839506172839,0,0,0.06172839506172839,97.22222222222223,0)" xlink:href="#aJ"/><use transform="matrix(0.06172839506172839,0,0,0.06172839506172839,103.39506172839506,0)" xlink:href="#aR"/><use transform="matrix(0.06172839506172839,0,0,0.06172839506172839,116.91358024691358,0)" xlink:href="#aV"/></g><use transform="matrix(0.04938271604938272,0,0,0.04938271604938272,0,0)" xlink:href="#aV" id="R"/><path fill="#333" d="M144 0l-44-69L55 0H2l70-98-66-92h53l41 62 40-62h54l-67 91 71 99h-54" id="bt"/><use transform="matrix(0.04938271604938272,0,0,0.04938271604938272,0,0)" xlink:href="#bt" id="S"/><g id="T"><use transform="matrix(0.04938271604938272,0,0,0.04938271604938272,0,0)" xlink:href="#aI"/><use transform="matrix(0.04938271604938272,0,0,0.04938271604938272,5.8765432098765435,0)" xlink:href="#aP"/><use transform="matrix(0.04938271604938272,0,0,0.04938271604938272,12.790123456790125,0)" xlink:href="#aN"/><use transform="matrix(0.04938271604938272,0,0,0.04938271604938272,22.666666666666668,0)" xlink:href="#aV"/><use transform="matrix(0.04938271604938272,0,0,0.04938271604938272,33.48148148148148,0)" xlink:href="#aL"/><use transform="matrix(0.04938271604938272,0,0,0.04938271604938272,43.358024691358025,0)" xlink:href="#bl"/><use transform="matrix(0.04938271604938272,0,0,0.04938271604938272,49.23456790123457,0)" xlink:href="#aQ"/><use transform="matrix(0.04938271604938272,0,0,0.04938271604938272,59.111111111111114,0)" xlink:href="#aP"/><use transform="matrix(0.04938271604938272,0,0,0.04938271604938272,66.0246913580247,0)" xlink:href="#aF"/><use transform="matrix(0.04938271604938272,0,0,0.04938271604938272,71.90123456790124,0)" xlink:href="#aM"/></g><g id="U"><use transform="matrix(0.04938271604938272,0,0,0.04938271604938272,0,0)" xlink:href="#aI"/><use transform="matrix(0.04938271604938272,0,0,0.04938271604938272,5.8765432098765435,0)" xlink:href="#aP"/><use transform="matrix(0.04938271604938272,0,0,0.04938271604938272,12.790123456790125,0)" xlink:href="#aN"/><use transform="matrix(0.04938271604938272,0,0,0.04938271604938272,22.666666666666668,0)" xlink:href="#aV"/><use transform="matrix(0.04938271604938272,0,0,0.04938271604938272,33.48148148148148,0)" xlink:href="#aL"/><use transform="matrix(0.04938271604938272,0,0,0.04938271604938272,43.358024691358025,0)" xlink:href="#aN"/><use transform="matrix(0.04938271604938272,0,0,0.04938271604938272,53.23456790123457,0)" xlink:href="#bh"/><use transform="matrix(0.04938271604938272,0,0,0.04938271604938272,63.111111111111114,0)" xlink:href="#aI"/><use transform="matrix(0.04938271604938272,0,0,0.04938271604938272,68.98765432098766,0)" xlink:href="#aJ"/><use transform="matrix(0.04938271604938272,0,0,0.04938271604938272,73.92592592592592,0)" xlink:href="#aR"/><use transform="matrix(0.04938271604938272,0,0,0.04938271604938272,84.74074074074073,0)" xlink:href="#aV"/><use transform="matrix(0.04938271604938272,0,0,0.04938271604938272,95.55555555555554,0)" xlink:href="#aL"/></g><g id="V"><use transform="matrix(0.04938271604938272,0,0,0.04938271604938272,0,0)" xlink:href="#aI"/><use transform="matrix(0.04938271604938272,0,0,0.04938271604938272,5.8765432098765435,0)" xlink:href="#aP"/><use transform="matrix(0.04938271604938272,0,0,0.04938271604938272,12.790123456790125,0)" xlink:href="#aN"/><use transform="matrix(0.04938271604938272,0,0,0.04938271604938272,22.666666666666668,0)" xlink:href="#aV"/><use transform="matrix(0.04938271604938272,0,0,0.04938271604938272,33.48148148148148,0)" xlink:href="#aL"/><use transform="matrix(0.04938271604938272,0,0,0.04938271604938272,43.358024691358025,0)" xlink:href="#bl"/><use transform="matrix(0.04938271604938272,0,0,0.04938271604938272,49.23456790123457,0)" xlink:href="#aQ"/><use transform="matrix(0.04938271604938272,0,0,0.04938271604938272,59.111111111111114,0)" xlink:href="#aP"/><use transform="matrix(0.04938271604938272,0,0,0.04938271604938272,66.0246913580247,0)" xlink:href="#aX"/><use transform="matrix(0.04938271604938272,0,0,0.04938271604938272,78.81481481481482,0)" xlink:href="#aN"/><use transform="matrix(0.04938271604938272,0,0,0.04938271604938272,88.69135802469137,0)" xlink:href="#aI"/><use transform="matrix(0.04938271604938272,0,0,0.04938271604938272,94.56790123456791,0)" xlink:href="#bh"/><use transform="matrix(0.04938271604938272,0,0,0.04938271604938272,104.44444444444446,0)" xlink:href="#aT"/><use transform="matrix(0.04938271604938272,0,0,0.04938271604938272,115.25925925925927,0)" xlink:href="#aF"/><use transform="matrix(0.04938271604938272,0,0,0.04938271604938272,121.13580246913581,0)" xlink:href="#aM"/></g><path fill="#7ab648" d="M185-189c-5-48-123-54-124 2 14 75 158 14 163 119 3 78-121 87-175 55-17-10-28-26-33-46l33-7c5 56 141 63 141-1 0-78-155-14-162-118-5-82 145-84 179-34 5 7 8 16 11 25" id="bu"/><path fill="#7ab648" d="M24-231v-30h32v30H24zM24 0v-190h32V0H24" id="bv"/><path fill="#7ab648" d="M117-194c89-4 53 116 60 194h-32v-121c0-31-8-49-39-48C34-167 62-67 57 0H25l-1-190h30c1 10-1 24 2 32 11-22 29-35 61-36" id="bw"/><path fill="#7ab648" d="M177-190C167-65 218 103 67 71c-23-6-38-20-44-43l32-5c15 47 100 32 89-28v-30C133-14 115 1 83 1 29 1 15-40 15-95c0-56 16-97 71-98 29-1 48 16 59 35 1-10 0-23 2-32h30zM94-22c36 0 50-32 50-73 0-42-14-75-50-75-39 0-46 34-46 75s6 73 46 73" id="bx"/><path fill="#7ab648" d="M24 0v-261h32V0H24" id="by"/><path fill="#7ab648" d="M100-194c63 0 86 42 84 106H49c0 40 14 67 53 68 26 1 43-12 49-29l28 8c-11 28-37 45-77 45C44 4 14-33 15-96c1-61 26-98 85-98zm52 81c6-60-76-77-97-28-3 7-6 17-6 28h103" id="bz"/><g id="W"><use transform="matrix(0.061728395061728385,0,0,0.061728395061728385,0,0)" xlink:href="#bu"/><use transform="matrix(0.061728395061728385,0,0,0.061728395061728385,14.814814814814813,0)" xlink:href="#bv"/><use transform="matrix(0.061728395061728385,0,0,0.061728395061728385,19.691358024691354,0)" xlink:href="#bw"/><use transform="matrix(0.061728395061728385,0,0,0.061728395061728385,32.03703703703703,0)" xlink:href="#bx"/><use transform="matrix(0.061728395061728385,0,0,0.061728395061728385,44.38271604938271,0)" xlink:href="#by"/><use transform="matrix(0.061728395061728385,0,0,0.061728395061728385,49.25925925925925,0)" xlink:href="#bz"/></g><path fill="#7ab648" d="M160-131c35 5 61 23 61 61C221 17 115-2 30 0v-248c76 3 177-17 177 60 0 33-19 50-47 57zm-97-11c50-1 110 9 110-42 0-47-63-36-110-37v79zm0 115c55-2 124 14 124-45 0-56-70-42-124-44v89" id="bA"/><path fill="#7ab648" d="M30 0v-248h33v221h125V0H30" id="bB"/><g id="X"><use transform="matrix(0.061728395061728385,0,0,0.061728395061728385,0,0)" xlink:href="#bA"/><use transform="matrix(0.061728395061728385,0,0,0.061728395061728385,14.814814814814813,0)" xlink:href="#bB"/><use transform="matrix(0.061728395061728385,0,0,0.061728395061728385,27.16049382716049,0)" xlink:href="#bu"/></g><path fill="#7ab648" d="M141-36C126-15 110 5 73 4 37 3 15-17 15-53c-1-64 63-63 125-63 3-35-9-54-41-54-24 1-41 7-42 31l-33-3c5-37 33-52 76-52 45 0 72 20 72 64v82c-1 20 7 32 28 27v20c-31 9-61-2-59-35zM48-53c0 20 12 33 32 33 41-3 63-29 60-74-43 2-92-5-92 41" id="bC"/><path fill="#7ab648" d="M59-47c-2 24 18 29 38 22v24C64 9 27 4 27-40v-127H5v-23h24l9-43h21v43h35v23H59v120" id="bD"/><path fill="#7ab648" d="M84 4C-5 8 30-112 23-190h32v120c0 31 7 50 39 49 72-2 45-101 50-169h31l1 190h-30c-1-10 1-25-2-33-11 22-28 36-60 37" id="bE"/><path fill="#7ab648" d="M114-163C36-179 61-72 57 0H25l-1-190h30c1 12-1 29 2 39 6-27 23-49 58-41v29" id="bF"/><g id="Y"><use transform="matrix(0.061728395061728385,0,0,0.061728395061728385,0,0)" xlink:href="#bu"/><use transform="matrix(0.061728395061728385,0,0,0.061728395061728385,14.814814814814813,0)" xlink:href="#bv"/><use transform="matrix(0.061728395061728385,0,0,0.061728395061728385,19.691358024691354,0)" xlink:href="#bx"/><use transform="matrix(0.061728395061728385,0,0,0.061728395061728385,32.03703703703703,0)" xlink:href="#bw"/><use transform="matrix(0.061728395061728385,0,0,0.061728395061728385,44.38271604938271,0)" xlink:href="#bC"/><use transform="matrix(0.061728395061728385,0,0,0.061728395061728385,56.728395061728385,0)" xlink:href="#bD"/><use transform="matrix(0.061728395061728385,0,0,0.061728395061728385,62.90123456790123,0)" xlink:href="#bE"/><use transform="matrix(0.061728395061728385,0,0,0.061728395061728385,75.24691358024691,0)" xlink:href="#bF"/><use transform="matrix(0.061728395061728385,0,0,0.061728395061728385,82.5925925925926,0)" xlink:href="#bz"/></g><path fill="#333" d="M24 0v-54h51V0H24" id="bG"/><path fill="#333" d="M101-251c68 0 84 54 84 127C185-50 166 4 99 4S15-52 14-124c-1-75 17-127 87-127zm-1 216c37-5 36-46 36-89s4-89-36-89c-39 0-36 45-36 89 0 43-3 85 36 89" id="bH"/><g id="Z"><use transform="matrix(0.09259259259259256,0,0,0.09259259259259256,0,0)" xlink:href="#aZ"/><use transform="matrix(0.09259259259259256,0,0,0.09259259259259256,30.74074074074073,0)" xlink:href="#aQ"/><use transform="matrix(0.09259259259259256,0,0,0.09259259259259256,49.25925925925924,0)" xlink:href="#aU"/><use transform="matrix(0.09259259259259256,0,0,0.09259259259259256,69.53703703703701,0)" xlink:href="#aE"/><use transform="matrix(0.09259259259259256,0,0,0.09259259259259256,88.05555555555551,0)" xlink:href="#bG"/><use transform="matrix(0.09259259259259256,0,0,0.09259259259259256,97.31481481481475,0)" xlink:href="#bH"/></g></defs></g></svg>