<svg xmlns="http://www.w3.org/2000/svg" xmlns:xlink="http://www.w3.org/1999/xlink" xmlns:lucid="lucid" width="1880" height="1046"><g transform="translate(20 20)" lucid:page-tab-id="0_0"><path d="M0 0h1870.87v1322.83H0z" fill="#fff"/><path d="M300 266c0-3.3 2.7-6 6-6h148c3.3 0 6 2.7 6 6v68c0 3.3-2.7 6-6 6H306c-3.3 0-6-2.7-6-6z" stroke="#5e5e5e" stroke-width="3" fill="#c1e4f7"/><use xlink:href="#a" transform="matrix(1,0,0,1,312,272) translate(32.25925925925926 17.77777777777778)"/><use xlink:href="#b" transform="matrix(1,0,0,1,312,272) translate(38.40123456790124 44.44444444444444)"/><path d="M300 661c0-3.3 2.7-6 6-6h148c3.3 0 6 2.7 6 6v68c0 3.3-2.7 6-6 6H306c-3.3 0-6-2.7-6-6z" stroke="#5e5e5e" stroke-width="3" fill="#fff"/><use xlink:href="#c" transform="matrix(1,0,0,1,312,666.9999999999999) translate(7.598765432098773 17.77777777777778)"/><use xlink:href="#d" transform="matrix(1,0,0,1,312,666.9999999999999) translate(64.32716049382717 17.77777777777778)"/><use xlink:href="#e" transform="matrix(1,0,0,1,312,666.9999999999999) translate(26.086419753086417 44.44444444444444)"/><path d="M300 461c0-3.3 2.7-6 6-6h148c3.3 0 6 2.7 6 6v68c0 3.3-2.7 6-6 6H306c-3.3 0-6-2.7-6-6z" stroke="#5e5e5e" stroke-width="3" fill="#ffeca9"/><use xlink:href="#f" transform="matrix(1,0,0,1,312,466.9999999999999) translate(30.407407407407412 17.77777777777778)"/><use xlink:href="#e" transform="matrix(1,0,0,1,312,466.9999999999999) translate(26.086419753086417 44.44444444444444)"/><path d="M440 923c0 6.63-26.86 12-60 12s-60-5.37-60-12v-96c0-6.63 26.86-12 60-12s60 5.37 60 12z" stroke="#5e5e5e" stroke-width="3" fill="#fff"/><path d="M440 827c0 6.63-26.86 12-60 12s-60-5.37-60-12" stroke="#5e5e5e" stroke-width="3" fill="none"/><use xlink:href="#g" transform="matrix(1,0,0,1,325,843.9999999999999) translate(13.672839506172842 17.77777777777778)"/><use xlink:href="#h" transform="matrix(1,0,0,1,325,843.9999999999999) translate(29.72222222222223 44.44444444444444)"/><use xlink:href="#i" transform="matrix(1,0,0,1,325,843.9999999999999) translate(2.8395061728395063 71.11111111111111)"/><path d="M260 201c0-3.3 2.7-6 6-6h228c3.3 0 6 2.7 6 6v48c0 3.3-2.7 6-6 6H266c-3.3 0-6-2.7-6-6z" stroke="#000" stroke-opacity="0" stroke-width="3" fill="#fff" fill-opacity="0"/><use xlink:href="#j" transform="matrix(1,0,0,1,265,199.9999999999999) translate(95.60185185185186 32.91666666666666)"/><path d="M600 201c0-3.3 2.7-6 6-6h228c3.3 0 6 2.7 6 6v48c0 3.3-2.7 6-6 6H606c-3.3 0-6-2.7-6-6z" stroke="#000" stroke-opacity="0" stroke-width="3" fill="#fff" fill-opacity="0"/><use xlink:href="#k" transform="matrix(1,0,0,1,605,199.9999999999999) translate(3.1944444444444855 32.91666666666666)"/><use xlink:href="#l" transform="matrix(1,0,0,1,605,199.9999999999999) translate(51.25000000000003 32.91666666666666)"/><path d="M640 461c0-3.3 2.7-6 6-6h148c3.3 0 6 2.7 6 6v68c0 3.3-2.7 6-6 6H646c-3.3 0-6-2.7-6-6z" stroke="#5e5e5e" stroke-width="3" fill="#ffeca9"/><use xlink:href="#a" transform="matrix(1,0,0,1,652,466.9999999999999) translate(32.25925925925926 17.77777777777778)"/><use xlink:href="#b" transform="matrix(1,0,0,1,652,466.9999999999999) translate(38.40123456790124 44.44444444444444)"/><path d="M640 661c0-3.3 2.7-6 6-6h148c3.3 0 6 2.7 6 6v68c0 3.3-2.7 6-6 6H646c-3.3 0-6-2.7-6-6z" stroke="#5e5e5e" stroke-width="3" fill="#fff"/><use xlink:href="#c" transform="matrix(1,0,0,1,652,666.9999999999999) translate(7.598765432098773 17.77777777777778)"/><use xlink:href="#d" transform="matrix(1,0,0,1,652,666.9999999999999) translate(64.32716049382717 17.77777777777778)"/><use xlink:href="#e" transform="matrix(1,0,0,1,652,666.9999999999999) translate(26.086419753086417 44.44444444444444)"/><path d="M560 216v20.46m0 20.46v40.93m0 20.46v40.93m0 20.46v40.92m0 20.46V482m0 20.46v40.92m0 20.47v40.92m0 20.46v40.92m0 20.47v40.92m0 20.46v40.92m0 20.46v40.93m0 20.47v40.92m0 20.45v40.93m0 20.46V1014M560 216.03V215M560 1013.97v1.03" stroke="#b2b2b2" stroke-width="2" fill="none"/><path d="M330.33 435h-2v-52.33h2zm0-73.67h-2V342.5h2z" fill="#19967d"/><path d="M330.33 342.53h-2v-1.03h2zM329.33 450.26L324.7 436h9.27z" fill="#19967d"/><path d="M329.33 453.5l-6-18.5h12.02zm-3.26-16.5l3.26 10.03L332.6 437z" fill="#19967d"/><use xlink:href="#m" transform="matrix(1,0,0,1,268.2716049382716,361.3333333333333) translate(0 14.222222222222223)"/><path d="M329 635h-2v-40h2zm0-61.33h-2V537.5h2z" fill="#19967d"/><path d="M329 537.53h-2v-1.03h2zM328 650.26L323.36 636h9.28z" fill="#19967d"/><path d="M328 653.5l-6-18.5h12zm-3.26-16.5l3.26 10.03 3.26-10.03z" fill="#19967d"/><use xlink:href="#n" transform="matrix(1,0,0,1,242.71604938271605,573.6666666666666) translate(0.0049999999999954525 14.222222222222223)"/><use xlink:href="#o" transform="matrix(1,0,0,1,242.71604938271605,573.6666666666666) translate(42.37537037037037 14.222222222222223)"/><use xlink:href="#p" transform="matrix(1,0,0,1,242.71604938271605,573.6666666666666) translate(72.005 14.222222222222223)"/><use xlink:href="#q" transform="matrix(1,0,0,1,242.71604938271605,573.6666666666666) translate(134.07907407407407 14.222222222222223)"/><path d="M433 452.5h-2v-53.83h2zm0-75.17h-2V360h2z" fill="#ef8d22"/><path d="M433 453.5h-2v-1.03h2zM436.64 359h-9.28l4.64-14.26z" fill="#ef8d22"/><path d="M438 360h-12l6-18.5zm-9.26-2h6.52L432 347.97z" fill="#ef8d22"/><use xlink:href="#r" transform="matrix(1,0,0,1,393.1111111111111,377.3333333333333) translate(0 14.222222222222223)"/><path d="M429.33 652.5v-115" stroke="#ef8d22" stroke-width="2" fill="none"/><path d="M430.33 653.5h-2v-1.03h2zM430.33 537.53h-2v-1.03h2z" fill="#ef8d22"/><path d="M462.5 673.6H620" stroke="#19967d" stroke-width="2" fill="none"/><path d="M462.53 674.6h-1.03v-2h1.03z" fill="#19967d"/><path d="M635.26 673.6L621 678.26v-9.28z" stroke="#19967d" stroke-width="2" fill="#19967d"/><path d="M637.5 719.9h-175" stroke="#ef8d22" stroke-width="2" fill="none"/><path d="M638.5 720.9h-1.03v-2h1.03zM462.53 720.9h-1.03v-2h1.03z" fill="#ef8d22"/><path d="M670.07 652.5h-2v-45h2zm0-87.68h-2V555h2z" fill="#19967d"/><path d="M670.07 653.5h-2v-1.03h2zM673.7 554h-9.27l4.64-14.26z" fill="#19967d"/><path d="M675.08 555h-12.02l6-18.5zm-9.27-2h6.53l-3.26-10.03z" fill="#19967d"/><use xlink:href="#s" transform="matrix(1,0,0,1,590.2533353484633,564.8213058419243) translate(0.0049999999999954525 14.222222222222223)"/><use xlink:href="#t" transform="matrix(1,0,0,1,590.2533353484633,564.8213058419243) translate(27.066728395061702 35.55555555555556)"/><use xlink:href="#u" transform="matrix(1,0,0,1,590.2533353484633,564.8213058419243) translate(32.004999999999974 35.55555555555556)"/><path d="M772.93 537.5v115" stroke="#ef8d22" stroke-width="2" fill="none"/><path d="M773.93 537.53h-2v-1.03h2zM773.93 653.5h-2v-1.03h2z" fill="#ef8d22"/><use xlink:href="#v" transform="matrix(1,0,0,1,780.9256138105874,546.6666666666683) translate(0 14.222222222222223)"/><use xlink:href="#w" transform="matrix(1,0,0,1,780.9256138105874,546.6666666666683) translate(0 35.55555555555556)"/><path d="M280 476h-73.87l-2.64.7-1.8 1.8-.7 2.63v8l-.92 3.42-2.53 2.53-3.42.92H164v-2h29.87l2.64-.7 1.8-1.8.7-2.63v-8l.92-3.42 2.53-2.53 3.42-.92H280z" fill="#19967d"/><path d="M164.03 496H163v-2h1.03zM295.26 475L281 479.64v-9.28z" fill="#19967d"/><path d="M298.5 475l-18.5 6v-12zm-16.5 3.26l10.03-3.26-10.03-3.26z" fill="#19967d"/><use xlink:href="#x" transform="matrix(1,0,0,1,185.66582808005924,390.9999999999999) translate(0 17.77777777777778)"/><use xlink:href="#y" transform="matrix(1,0,0,1,185.66582808005924,390.9999999999999) translate(0 44.44444444444444)"/><use xlink:href="#z" transform="matrix(1,0,0,1,185.66582808005924,390.9999999999999) translate(0 71.11111111111111)"/><path d="M164 495h30c3.3 0 6 2.7 6 6v8c0 3.3 2.7 6 6 6h74" stroke="#ef8d22" stroke-width="2" fill="none"/><path d="M164.03 496H163v-2h1.03z" fill="#ef8d22"/><path d="M295.26 515L281 519.64v-9.28z" stroke="#ef8d22" stroke-width="2" fill="#ef8d22"/><use xlink:href="#A" transform="matrix(1,0,0,1,178.7224716198635,518.9999999999998) translate(0 17.77777777777778)"/><path d="M220 106c0-3.3 2.7-6 6-6h668c3.3 0 6 2.7 6 6v88.67c0 3.3-2.7 6-6 6H226c-3.3 0-6-2.7-6-6z" stroke="#000" stroke-opacity="0" stroke-width="3" fill="#fff" fill-opacity="0"/><use xlink:href="#B" transform="matrix(1,0,0,1,225,104.99999999999999) translate(58.48765432098776 30.222222222222214)"/><use xlink:href="#C" transform="matrix(1,0,0,1,225,104.99999999999999) translate(213.5864197530865 30.222222222222214)"/><use xlink:href="#D" transform="matrix(1,0,0,1,225,104.99999999999999) translate(378.96913580246917 30.222222222222214)"/><use xlink:href="#E" transform="matrix(1,0,0,1,225,104.99999999999999) translate(427.1358024691358 30.222222222222214)"/><use xlink:href="#F" transform="matrix(1,0,0,1,225,104.99999999999999) translate(100.46296296296302 75.55555555555554)"/><use xlink:href="#G" transform="matrix(1,0,0,1,225,104.99999999999999) translate(232.37037037037038 75.55555555555554)"/><use xlink:href="#H" transform="matrix(1,0,0,1,225,104.99999999999999) translate(393.6604938271605 75.55555555555554)"/><use xlink:href="#I" transform="matrix(1,0,0,1,225,104.99999999999999) translate(448.12345679012344 75.55555555555554)"/><use xlink:href="#J" transform="matrix(1,0,0,1,225,104.99999999999999) translate(525.5679012345679 75.55555555555554)"/><path d="M1040 281c0-3.3 2.7-6 6-6h148c3.3 0 6 2.7 6 6v68c0 3.3-2.7 6-6 6h-148c-3.3 0-6-2.7-6-6z" stroke="#5e5e5e" stroke-width="3" fill="#c1e4f7"/><use xlink:href="#a" transform="matrix(1,0,0,1,1052,286.9999999999999) translate(32.25925925925926 17.77777777777778)"/><use xlink:href="#b" transform="matrix(1,0,0,1,1052,286.9999999999999) translate(38.40123456790124 44.44444444444444)"/><path d="M1040 661c0-3.3 2.7-6 6-6h148c3.3 0 6 2.7 6 6v68c0 3.3-2.7 6-6 6h-148c-3.3 0-6-2.7-6-6z" stroke="#5e5e5e" stroke-width="3" fill="#fff"/><use xlink:href="#K" transform="matrix(1,0,0,1,1052,667) translate(42.72222222222223 17.77777777777778)"/><use xlink:href="#L" transform="matrix(1,0,0,1,1052,667) translate(22.96913580246914 44.44444444444444)"/><path d="M1040 461c0-3.3 2.7-6 6-6h148c3.3 0 6 2.7 6 6v68c0 3.3-2.7 6-6 6h-148c-3.3 0-6-2.7-6-6z" stroke="#5e5e5e" stroke-width="3" fill="#ffeca9"/><use xlink:href="#f" transform="matrix(1,0,0,1,1052,466.9999999999999) translate(30.407407407407412 17.77777777777778)"/><use xlink:href="#e" transform="matrix(1,0,0,1,1052,466.9999999999999) translate(26.086419753086417 44.44444444444444)"/><path d="M1180 923c0 6.63-26.86 12-60 12s-60-5.37-60-12v-96c0-6.63 26.86-12 60-12s60 5.37 60 12z" stroke="#5e5e5e" stroke-width="3" fill="#fff"/><path d="M1180 827c0 6.63-26.86 12-60 12s-60-5.37-60-12" stroke="#5e5e5e" stroke-width="3" fill="none"/><use xlink:href="#g" transform="matrix(1,0,0,1,1065,844) translate(13.672839506172842 17.77777777777778)"/><use xlink:href="#h" transform="matrix(1,0,0,1,1065,844) translate(29.72222222222223 44.44444444444444)"/><use xlink:href="#i" transform="matrix(1,0,0,1,1065,844) translate(2.8395061728395063 71.11111111111111)"/><path d="M1000 201c0-3.3 2.7-6 6-6h228c3.3 0 6 2.7 6 6v48c0 3.3-2.7 6-6 6h-228c-3.3 0-6-2.7-6-6z" stroke="#000" stroke-opacity="0" stroke-width="3" fill="#fff" fill-opacity="0"/><use xlink:href="#j" transform="matrix(1,0,0,1,1005,199.9999999999999) translate(95.60185185185186 32.91666666666666)"/><path d="M1340 201c0-3.3 2.7-6 6-6h228c3.3 0 6 2.7 6 6v48c0 3.3-2.7 6-6 6h-228c-3.3 0-6-2.7-6-6z" stroke="#000" stroke-opacity="0" stroke-width="3" fill="#fff" fill-opacity="0"/><use xlink:href="#k" transform="matrix(1,0,0,1,1345,199.9999999999999) translate(3.1944444444444855 32.91666666666666)"/><use xlink:href="#l" transform="matrix(1,0,0,1,1345,199.9999999999999) translate(51.25000000000003 32.91666666666666)"/><path d="M1380 461c0-3.3 2.7-6 6-6h148c3.3 0 6 2.7 6 6v68c0 3.3-2.7 6-6 6h-148c-3.3 0-6-2.7-6-6z" stroke="#5e5e5e" stroke-width="3" fill="#ffeca9"/><use xlink:href="#a" transform="matrix(1,0,0,1,1392,466.9999999999999) translate(32.25925925925926 17.77777777777778)"/><use xlink:href="#b" transform="matrix(1,0,0,1,1392,466.9999999999999) translate(38.40123456790124 44.44444444444444)"/><path d="M1300 216v20.46m0 20.46v40.93m0 20.46v40.93m0 20.46v40.92m0 20.46V482m0 20.46v40.92m0 20.47v40.92m0 20.46v40.92m0 20.47v40.92m0 20.46v40.92m0 20.46v40.93m0 20.47v40.92m0 20.45v40.93m0 20.46V1014M1300 216.03V215M1300 1013.97v1.03" stroke="#b2b2b2" stroke-width="2" fill="none"/><path d="M1060 106c0-3.3 2.7-6 6-6h448c3.3 0 6 2.7 6 6v88.67c0 3.3-2.7 6-6 6h-448c-3.3 0-6-2.7-6-6z" stroke="#000" stroke-opacity="0" stroke-width="3" fill="#fff" fill-opacity="0"/><use xlink:href="#M" transform="matrix(1,0,0,1,1065,104.99999999999999) translate(40.72839506172846 52.972222222222214)"/><use xlink:href="#N" transform="matrix(1,0,0,1,1065,104.99999999999999) translate(193.51851851851853 52.972222222222214)"/><use xlink:href="#O" transform="matrix(1,0,0,1,1065,104.99999999999999) translate(247.98148148148147 52.972222222222214)"/><path d="M780 923c0 6.63-26.86 12-60 12s-60-5.37-60-12v-96c0-6.63 26.86-12 60-12s60 5.37 60 12z" stroke="#5e5e5e" stroke-width="3" fill="#fff"/><path d="M780 827c0 6.63-26.86 12-60 12s-60-5.37-60-12" stroke="#5e5e5e" stroke-width="3" fill="none"/><use xlink:href="#K" transform="matrix(1,0,0,1,665,843.9999999999999) translate(29.72222222222223 33.90277777777778)"/><use xlink:href="#i" transform="matrix(1,0,0,1,665,843.9999999999999) translate(2.8395061728395063 60.56944444444445)"/><path d="M1520 923c0 6.63-26.86 12-60 12s-60-5.37-60-12v-96c0-6.63 26.86-12 60-12s60 5.37 60 12z" stroke="#5e5e5e" stroke-width="3" fill="#fff"/><path d="M1520 827c0 6.63-26.86 12-60 12s-60-5.37-60-12" stroke="#5e5e5e" stroke-width="3" fill="none"/><use xlink:href="#K" transform="matrix(1,0,0,1,1405,844) translate(29.72222222222223 33.90277777777778)"/><use xlink:href="#i" transform="matrix(1,0,0,1,1405,844) translate(2.8395061728395063 60.56944444444445)"/><path d="M241 780h19.33m19.34 0h38.66m19.34 0h38.66m19.34 0h38.66m19.34 0h38.66m19.34 0h38.66m19.34 0h38.66m19.34 0h38.66m19.34 0h38.66m19.34 0h38.66m19.34 0h38.66m19.34 0H879M241.03 780H240M878.97 780H880" stroke="#b2b2b2" stroke-width="2" fill="none"/><path d="M480 784.33c0-3.3 2.7-6 6-6h68c3.3 0 6 2.7 6 6v51.34c0 3.3-2.7 6-6 6h-68c-3.3 0-6-2.7-6-6z" stroke="#000" stroke-opacity="0" stroke-width="3" fill="#fff" fill-opacity="0"/><use xlink:href="#P" transform="matrix(1,0,0,1,485,783.3333333333334) translate(13.395061728395063 31.27777777777778)"/><path d="M569 786c0-3.3 2.7-6 6-6h68c3.3 0 6 2.7 6 6v51.33c0 3.32-2.7 6-6 6h-68c-3.3 0-6-2.68-6-6z" stroke="#000" stroke-opacity="0" stroke-width="3" fill="#fff" fill-opacity="0"/><use xlink:href="#Q" transform="matrix(1,0,0,1,574,785) translate(13.395061728395063 18.111111111111114)"/><use xlink:href="#R" transform="matrix(1,0,0,1,574,785) translate(-14.2283950617284 44.777777777777786)"/><path d="M1220 786c0-3.3 2.7-6 6-6h68c3.3 0 6 2.7 6 6v51.33c0 3.32-2.7 6-6 6h-68c-3.3 0-6-2.68-6-6z" stroke="#000" stroke-opacity="0" stroke-width="3" fill="#fff" fill-opacity="0"/><use xlink:href="#P" transform="matrix(1,0,0,1,1225,785) translate(13.395061728395063 31.27777777777778)"/><path d="M1309 787.67c0-3.32 2.7-6 6-6h68c3.3 0 6 2.68 6 6V839c0 3.3-2.7 6-6 6h-68c-3.3 0-6-2.7-6-6z" stroke="#000" stroke-opacity="0" stroke-width="3" fill="#fff" fill-opacity="0"/><use xlink:href="#Q" transform="matrix(1,0,0,1,1314,786.6666666666666) translate(13.395061728395063 18.111111111111114)"/><use xlink:href="#R" transform="matrix(1,0,0,1,1314,786.6666666666666) translate(-14.2283950617284 44.777777777777786)"/><path d="M981 780h19.33m19.34 0h38.66m19.34 0h38.66m19.34 0h38.66m19.34 0h38.66m19.34 0h38.66m19.34 0h38.66m19.34 0h38.66m19.34 0h38.66m19.34 0h38.66m19.34 0h38.66m19.34 0H1619M981.03 780H980M1618.97 780h1.03" stroke="#b2b2b2" stroke-width="2" fill="none"/><path d="M1680 451c0-3.3 2.7-6 6-6h132c3.3 0 6 2.7 6 6v96c-24.05-17.03-39.02-17.03-48.1-17.03-14.4 0-33.55 17.03-47.95 17.03-8.93 0-24.05 0-47.95-17.03z" stroke="#5e5e5e" stroke-width="6" fill="#fff"/><path d="M1688 460c0-3.3 2.7-6 6-6h132c3.3 0 6 2.7 6 6v96c-24.05-17.03-39.02-17.03-48.1-17.03-14.4 0-33.55 17.03-47.95 17.03-8.93 0-24.05 0-47.95-17.03z" stroke="#5e5e5e" stroke-width="6" fill="#fff"/><path d="M1696 469c0-3.3 2.7-6 6-6h132c3.3 0 6 2.7 6 6v96c-24.05-17.03-39.02-17.03-48.1-17.03-14.4 0-33.55 17.03-47.95 17.03-8.93 0-24.05 0-47.95-17.03z" stroke="#5e5e5e" stroke-width="6" fill="#fff"/><g><use xlink:href="#S" transform="matrix(1,0,0,1,1701,468.00421986414807) translate(23.351851851851848 17.77777777777778)"/><use xlink:href="#T" transform="matrix(1,0,0,1,1701,468.00421986414807) translate(10.29629629629629 44.44444444444444)"/></g><path d="M1676 465.93h-66.4c-.2 0-.35.16-.35.35 0 .2-.16.35-.35.35H1560" stroke="#5e5e5e" stroke-width="2" fill="none"/><path d="M1677 466.93h-1.03v-2h1.03z" fill="#5e5e5e"/><path d="M1544.74 466.63L1559 462v9.27z" stroke="#5e5e5e" stroke-width="2" fill="#5e5e5e"/><g><use xlink:href="#U" transform="matrix(1,0,0,1,1570.3230256919944,419.27016688294407) translate(26.07907407407408 14.222222222222223)"/><use xlink:href="#V" transform="matrix(1,0,0,1,1570.3230256919944,419.27016688294407) translate(41.83216049382717 14.222222222222223)"/><use xlink:href="#W" transform="matrix(1,0,0,1,1570.3230256919944,419.27016688294407) translate(0.005000000000002558 35.55555555555556)"/></g><path d="M1676 518.45h-66.63c-.07 0-.12-.06-.12-.12 0-.07-.05-.12-.12-.12H1560" stroke="#5e5e5e" stroke-width="2" fill="none"/><path d="M1677 519.45h-1.03v-2h1.03z" fill="#5e5e5e"/><path d="M1544.74 518.2l14.26-4.63v9.27z" stroke="#5e5e5e" stroke-width="2" fill="#5e5e5e"/><path d="M1676 491.4h-66.63c-.06 0-.12.05-.12.12 0 .06-.06.12-.12.12H1560" stroke="#5e5e5e" stroke-width="2" fill="none"/><path d="M1677 492.4h-1.03v-2h1.03z" fill="#5e5e5e"/><path d="M1544.74 491.64L1559 487v9.27z" stroke="#5e5e5e" stroke-width="2" fill="#5e5e5e"/><path d="M1401.8 537.5V614c0 3.3-2.7 6-6 6h-58.33c-3.3 0-6 2.7-6 6v137.16" stroke="#5e5e5e" stroke-width="2" fill="none"/><path d="M1402.8 537.53h-2v-1.03h2z" fill="#5e5e5e"/><path d="M1331.47 778.43l-4.63-14.27h9.27z" stroke="#5e5e5e" stroke-width="2" fill="#5e5e5e"/><path d="M1425.24 537.5V634c0 3.3-2.7 6-6 6h-63c-3.33 0-6 2.7-6 6v115.5" stroke="#5e5e5e" stroke-width="2" fill="none"/><path d="M1426.24 537.53h-2v-1.03h2z" fill="#5e5e5e"/><path d="M1350.23 776.76l-4.64-14.26h9.26z" stroke="#5e5e5e" stroke-width="2" fill="#5e5e5e"/><path d="M1447.13 537.5v114.75c0 3.3-2.7 6-6 6h-63.02c-3.3 0-6 2.7-6 6v97.25" stroke="#5e5e5e" stroke-width="2" fill="none"/><path d="M1448.13 537.53h-2v-1.03h2z" fill="#5e5e5e"/><path d="M1372.1 776.76l-4.63-14.26h9.27z" stroke="#5e5e5e" stroke-width="2" fill="#5e5e5e"/><path d="M1317.32 776.67V701c0-3.3-2.68-6-6-6h-74.37" stroke="#c92d39" stroke-width="10" fill="none"/><path d="M1322.32 781.67H1315l-2.68.72v-5.86h10z" fill="#c92d39"/><path d="M1217.68 695l14.27-4.64v9.28z" stroke="#c92d39" stroke-width="10" fill="#c92d39"/><g><use xlink:href="#X" transform="matrix(1,0,0,1,1243.1934312690232,629.405193773713) translate(0 21.333333333333332)"/><use xlink:href="#Y" transform="matrix(1,0,0,1,1243.1934312690232,629.405193773713) translate(0 53.33333333333333)"/><use xlink:href="#Z" transform="matrix(1,0,0,1,1243.1934312690232,629.405193773713) translate(7.4074074074074066 53.33333333333333)"/></g><path d="M0 6c0-3.3 2.7-6 6-6h228c3.3 0 6 2.7 6 6v104.67c0 3.3-2.7 6-6 6H6c-3.3 0-6-2.7-6-6z" stroke="#000" stroke-opacity="0" stroke-width="3" fill="#fff" fill-opacity="0"/><g><use xlink:href="#aa" transform="matrix(1,0,0,1,5,5) translate(6.543209876543273 35.55555555555554)"/><use xlink:href="#ab" transform="matrix(1,0,0,1,5,5) translate(33.76543209876547 88.88888888888886)"/></g><path d="M20 469.75c0-3.3 2.7-6 6-6h128c3.3 0 6 2.7 6 6v56.5c-23.38-10.44-37.94-10.44-46.76-10.44-14 0-32.62 10.45-46.62 10.45-8.68 0-23.38 0-46.62-10.44z" stroke="#5e5e5e" stroke-width="6" fill="#fff"/><g><use xlink:href="#ac" transform="matrix(1,0,0,1,25,468.7499999999999) translate(0.27777777777777146 25.84027777777778)"/></g><path d="M1120 741.5v36.55" stroke="#c92d39" stroke-width="10" fill="none"/><path d="M1125 741.63h-10v-5.13h10z" fill="#c92d39"/><path d="M1120 797.32l-4.64-14.27h9.28z" stroke="#c92d39" stroke-width="10" fill="#c92d39"/><path d="M330.33 435h-2v-52.33h2zm0-73.67h-2V342.5h2z" fill="#19967d"/><path d="M330.33 342.53h-2v-1.03h2zM329.33 450.26L324.7 436h9.27z" fill="#19967d"/><path d="M329.33 453.5l-6-18.5h12.02zm-3.26-16.5l3.26 10.03L332.6 437z" fill="#19967d"/><g><use xlink:href="#m" transform="matrix(1,0,0,1,268.2716049382716,361.3333333333333) translate(0 14.222222222222223)"/></g><defs><path fill="#333" d="M30 0v-248h187v28H63v79h144v27H63v87h162V0H30" id="ad"/><path fill="#333" d="M233-177c-1 41-23 64-60 70L243 0h-38l-65-103H63V0H30v-248c88 3 205-21 203 71zM63-129c60-2 137 13 137-47 0-61-80-42-137-45v92" id="ae"/><path fill="#333" d="M212-179c-10-28-35-45-73-45-59 0-87 40-87 99 0 60 29 101 89 101 43 0 62-24 78-52l27 14C228-24 195 4 139 4 59 4 22-46 18-125c-6-104 99-153 187-111 19 9 31 26 39 46" id="af"/><path fill="#333" d="M101-251c82-7 93 87 43 132L82-64C71-53 59-42 53-27h129V0H18c2-99 128-94 128-182 0-28-16-43-45-43s-46 15-49 41l-32-3c6-41 34-60 81-64" id="ag"/><path fill="#333" d="M101-251c68 0 85 55 85 127S166 4 100 4C33 4 14-52 14-124c0-73 17-127 87-127zm-1 229c47 0 54-49 54-102s-4-102-53-102c-51 0-55 48-55 102 0 53 5 102 54 102" id="ah"/><g id="a"><use transform="matrix(0.06172839506172839,0,0,0.06172839506172839,0,0)" xlink:href="#ad"/><use transform="matrix(0.06172839506172839,0,0,0.06172839506172839,14.814814814814813,0)" xlink:href="#ae"/><use transform="matrix(0.06172839506172839,0,0,0.06172839506172839,30.80246913580247,0)" xlink:href="#af"/><use transform="matrix(0.06172839506172839,0,0,0.06172839506172839,46.79012345679012,0)" xlink:href="#ag"/><use transform="matrix(0.06172839506172839,0,0,0.06172839506172839,59.1358024691358,0)" xlink:href="#ah"/></g><path fill="#333" d="M127-220V0H93v-220H8v-28h204v28h-85" id="ai"/><path fill="#333" d="M100-194c62-1 85 37 85 99 1 63-27 99-86 99S16-35 15-95c0-66 28-99 85-99zM99-20c44 1 53-31 53-75 0-43-8-75-51-75s-53 32-53 75 10 74 51 75" id="aj"/><path fill="#333" d="M143 0L79-87 56-68V0H24v-261h32v163l83-92h37l-77 82L181 0h-38" id="ak"/><path fill="#333" d="M100-194c63 0 86 42 84 106H49c0 40 14 67 53 68 26 1 43-12 49-29l28 8c-11 28-37 45-77 45C44 4 14-33 15-96c1-61 26-98 85-98zm52 81c6-60-76-77-97-28-3 7-6 17-6 28h103" id="al"/><path fill="#333" d="M117-194c89-4 53 116 60 194h-32v-121c0-31-8-49-39-48C34-167 62-67 57 0H25l-1-190h30c1 10-1 24 2 32 11-22 29-35 61-36" id="am"/><g id="b"><use transform="matrix(0.06172839506172839,0,0,0.06172839506172839,0,0)" xlink:href="#ai"/><use transform="matrix(0.06172839506172839,0,0,0.06172839506172839,11.049382716049381,0)" xlink:href="#aj"/><use transform="matrix(0.06172839506172839,0,0,0.06172839506172839,23.39506172839506,0)" xlink:href="#ak"/><use transform="matrix(0.06172839506172839,0,0,0.06172839506172839,34.50617283950617,0)" xlink:href="#al"/><use transform="matrix(0.06172839506172839,0,0,0.06172839506172839,46.85185185185185,0)" xlink:href="#am"/></g><path fill="#333" d="M140-251c81 0 123 46 123 126C263-46 219 4 140 4 59 4 17-45 17-125s42-126 123-126zm0 227c63 0 89-41 89-101s-29-99-89-99c-61 0-89 39-89 99S79-25 140-24" id="an"/><path fill="#333" d="M137 0h-34L2-248h35l83 218 83-218h36" id="ao"/><path fill="#333" d="M240 0l2-218c-23 76-54 145-80 218h-23L58-218 59 0H30v-248h44l77 211c21-75 51-140 76-211h43V0h-30" id="ap"/><g id="c"><use transform="matrix(0.06172839506172839,0,0,0.06172839506172839,0,0)" xlink:href="#an"/><use transform="matrix(0.06172839506172839,0,0,0.06172839506172839,17.28395061728395,0)" xlink:href="#ao"/><use transform="matrix(0.06172839506172839,0,0,0.06172839506172839,32.09876543209876,0)" xlink:href="#ap"/></g><path fill="#333" d="M160-131c35 5 61 23 61 61C221 17 115-2 30 0v-248c76 3 177-17 177 60 0 33-19 50-47 57zm-97-11c50-1 110 9 110-42 0-47-63-36-110-37v79zm0 115c55-2 124 14 124-45 0-56-70-42-124-44v89" id="aq"/><path fill="#333" d="M114-163C36-179 61-72 57 0H25l-1-190h30c1 12-1 29 2 39 6-27 23-49 58-41v29" id="ar"/><path fill="#333" d="M24-231v-30h32v30H24zM24 0v-190h32V0H24" id="as"/><path fill="#333" d="M85-194c31 0 48 13 60 33l-1-100h32l1 261h-30c-2-10 0-23-3-31C134-8 116 4 85 4 32 4 16-35 15-94c0-66 23-100 70-100zm9 24c-40 0-46 34-46 75 0 40 6 74 45 74 42 0 51-32 51-76 0-42-9-74-50-73" id="at"/><path fill="#333" d="M177-190C167-65 218 103 67 71c-23-6-38-20-44-43l32-5c15 47 100 32 89-28v-30C133-14 115 1 83 1 29 1 15-40 15-95c0-56 16-97 71-98 29-1 48 16 59 35 1-10 0-23 2-32h30zM94-22c36 0 50-32 50-73 0-42-14-75-50-75-39 0-46 34-46 75s6 73 46 73" id="au"/><g id="d"><use transform="matrix(0.06172839506172839,0,0,0.06172839506172839,0,0)" xlink:href="#aq"/><use transform="matrix(0.06172839506172839,0,0,0.06172839506172839,14.814814814814813,0)" xlink:href="#ar"/><use transform="matrix(0.06172839506172839,0,0,0.06172839506172839,22.160493827160494,0)" xlink:href="#as"/><use transform="matrix(0.06172839506172839,0,0,0.06172839506172839,27.037037037037038,0)" xlink:href="#at"/><use transform="matrix(0.06172839506172839,0,0,0.06172839506172839,39.382716049382715,0)" xlink:href="#au"/><use transform="matrix(0.06172839506172839,0,0,0.06172839506172839,51.72839506172839,0)" xlink:href="#al"/></g><path fill="#333" d="M59-47c-2 24 18 29 38 22v24C64 9 27 4 27-40v-127H5v-23h24l9-43h21v43h35v23H59v120" id="av"/><path fill="#333" d="M141-36C126-15 110 5 73 4 37 3 15-17 15-53c-1-64 63-63 125-63 3-35-9-54-41-54-24 1-41 7-42 31l-33-3c5-37 33-52 76-52 45 0 72 20 72 64v82c-1 20 7 32 28 27v20c-31 9-61-2-59-35zM48-53c0 20 12 33 32 33 41-3 63-29 60-74-43 2-92-5-92 41" id="aw"/><path fill="#333" d="M96-169c-40 0-48 33-48 73s9 75 48 75c24 0 41-14 43-38l32 2c-6 37-31 61-74 61-59 0-76-41-82-99-10-93 101-131 147-64 4 7 5 14 7 22l-32 3c-4-21-16-35-41-35" id="ax"/><g id="e"><use transform="matrix(0.06172839506172839,0,0,0.06172839506172839,0,0)" xlink:href="#af"/><use transform="matrix(0.06172839506172839,0,0,0.06172839506172839,15.987654320987653,0)" xlink:href="#aj"/><use transform="matrix(0.06172839506172839,0,0,0.06172839506172839,28.333333333333332,0)" xlink:href="#am"/><use transform="matrix(0.06172839506172839,0,0,0.06172839506172839,40.67901234567901,0)" xlink:href="#av"/><use transform="matrix(0.06172839506172839,0,0,0.06172839506172839,46.851851851851855,0)" xlink:href="#ar"/><use transform="matrix(0.06172839506172839,0,0,0.06172839506172839,54.19753086419753,0)" xlink:href="#aw"/><use transform="matrix(0.06172839506172839,0,0,0.06172839506172839,66.54320987654322,0)" xlink:href="#ax"/><use transform="matrix(0.06172839506172839,0,0,0.06172839506172839,77.65432098765433,0)" xlink:href="#av"/></g><path fill="#333" d="M30-248c118-7 216 8 213 122C240-48 200 0 122 0H30v-248zM63-27c89 8 146-16 146-99s-60-101-146-95v194" id="ay"/><path fill="#333" d="M115-194c55 1 70 41 70 98S169 2 115 4C84 4 66-9 55-30l1 105H24l-1-265h31l2 30c10-21 28-34 59-34zm-8 174c40 0 45-34 45-75s-6-73-45-74c-42 0-51 32-51 76 0 43 10 73 51 73" id="az"/><path fill="#333" d="M135-143c-3-34-86-38-87 0 15 53 115 12 119 90S17 21 10-45l28-5c4 36 97 45 98 0-10-56-113-15-118-90-4-57 82-63 122-42 12 7 21 19 24 35" id="aA"/><g id="f"><use transform="matrix(0.06172839506172839,0,0,0.06172839506172839,0,0)" xlink:href="#ay"/><use transform="matrix(0.06172839506172839,0,0,0.06172839506172839,15.987654320987653,0)" xlink:href="#al"/><use transform="matrix(0.06172839506172839,0,0,0.06172839506172839,28.333333333333332,0)" xlink:href="#az"/><use transform="matrix(0.06172839506172839,0,0,0.06172839506172839,40.67901234567901,0)" xlink:href="#aj"/><use transform="matrix(0.06172839506172839,0,0,0.06172839506172839,53.02469135802469,0)" xlink:href="#aA"/><use transform="matrix(0.06172839506172839,0,0,0.06172839506172839,64.1358024691358,0)" xlink:href="#as"/><use transform="matrix(0.06172839506172839,0,0,0.06172839506172839,69.01234567901234,0)" xlink:href="#av"/></g><path fill="#333" d="M33 0v-248h34V0H33" id="aB"/><path fill="#333" d="M24 0v-261h32V0H24" id="aC"/><path fill="#333" d="M84 4C-5 8 30-112 23-190h32v120c0 31 7 50 39 49 72-2 45-101 50-169h31l1 190h-30c-1-10 1-25-2-33-11 22-28 36-60 37" id="aD"/><g id="g"><use transform="matrix(0.06172839506172839,0,0,0.06172839506172839,0,0)" xlink:href="#aB"/><use transform="matrix(0.06172839506172839,0,0,0.06172839506172839,6.172839506172839,0)" xlink:href="#am"/><use transform="matrix(0.06172839506172839,0,0,0.06172839506172839,18.51851851851852,0)" xlink:href="#ax"/><use transform="matrix(0.06172839506172839,0,0,0.06172839506172839,29.62962962962963,0)" xlink:href="#aC"/><use transform="matrix(0.06172839506172839,0,0,0.06172839506172839,34.50617283950617,0)" xlink:href="#aD"/><use transform="matrix(0.06172839506172839,0,0,0.06172839506172839,46.85185185185185,0)" xlink:href="#at"/><use transform="matrix(0.06172839506172839,0,0,0.06172839506172839,59.197530864197525,0)" xlink:href="#al"/><use transform="matrix(0.06172839506172839,0,0,0.06172839506172839,71.5432098765432,0)" xlink:href="#aA"/></g><g id="h"><use transform="matrix(0.06172839506172839,0,0,0.06172839506172839,0,0)" xlink:href="#an"/><use transform="matrix(0.06172839506172839,0,0,0.06172839506172839,17.28395061728395,0)" xlink:href="#ao"/><use transform="matrix(0.06172839506172839,0,0,0.06172839506172839,32.09876543209876,0)" xlink:href="#ap"/></g><path fill="#333" d="M185-189c-5-48-123-54-124 2 14 75 158 14 163 119 3 78-121 87-175 55-17-10-28-26-33-46l33-7c5 56 141 63 141-1 0-78-155-14-162-118-5-82 145-84 179-34 5 7 8 16 11 25" id="aE"/><path fill="#333" d="M118-107v75H92v-75H18v-26h74v-75h26v75h74v26h-74" id="aF"/><path fill="#333" d="M141 0L90-78 38 0H4l68-98-65-92h35l48 74 47-74h35l-64 92 68 98h-35" id="aG"/><g id="i"><use transform="matrix(0.06172839506172839,0,0,0.06172839506172839,0,0)" xlink:href="#aE"/><use transform="matrix(0.06172839506172839,0,0,0.06172839506172839,14.814814814814813,0)" xlink:href="#av"/><use transform="matrix(0.06172839506172839,0,0,0.06172839506172839,20.98765432098765,0)" xlink:href="#aw"/><use transform="matrix(0.06172839506172839,0,0,0.06172839506172839,33.33333333333333,0)" xlink:href="#av"/><use transform="matrix(0.06172839506172839,0,0,0.06172839506172839,39.50617283950617,0)" xlink:href="#al"/><use transform="matrix(0.06172839506172839,0,0,0.06172839506172839,51.85185185185185,0)" xlink:href="#aA"/><use transform="matrix(0.06172839506172839,0,0,0.06172839506172839,62.96296296296296,0)" xlink:href="#aF"/><use transform="matrix(0.06172839506172839,0,0,0.06172839506172839,75.92592592592592,0)" xlink:href="#av"/><use transform="matrix(0.06172839506172839,0,0,0.06172839506172839,82.09876543209876,0)" xlink:href="#aG"/><use transform="matrix(0.06172839506172839,0,0,0.06172839506172839,93.20987654320987,0)" xlink:href="#aA"/></g><path fill="#333" d="M24 0v-248h52v208h133V0H24" id="aH"/><path fill="#333" d="M23 0v-37h61v-169l-59 37v-38l62-41h46v211h57V0H23" id="aI"/><g id="j"><use transform="matrix(0.09259259259259256,0,0,0.09259259259259256,0,0)" xlink:href="#aH"/><use transform="matrix(0.09259259259259256,0,0,0.09259259259259256,20.27777777777777,0)" xlink:href="#aI"/></g><path fill="#333" d="M182-182c0 78-84 86-111 141h115V0H12c-6-101 99-100 120-180 1-22-12-31-33-32-23 0-32 14-35 34l-49-3c5-45 32-70 84-70 51 0 83 22 83 69" id="aJ"/><g id="k"><use transform="matrix(0.09259259259259256,0,0,0.09259259259259256,0,0)" xlink:href="#aH"/><use transform="matrix(0.09259259259259256,0,0,0.09259259259259256,20.27777777777777,0)" xlink:href="#aJ"/></g><path fill="#333" d="M67-93c0 74 22 123 53 168H70C40 30 18-18 18-93s22-123 52-168h50c-32 44-53 94-53 168" id="aK"/><path fill="#333" d="M140-251c80 0 125 45 125 126S219 4 139 4C58 4 15-44 15-125s44-126 125-126zm-1 214c52 0 73-35 73-88 0-50-21-86-72-86-52 0-73 35-73 86s22 88 72 88" id="aL"/><path fill="#333" d="M135-194c53 0 70 44 70 98 0 56-19 98-73 100-31 1-45-17-59-34 3 33 2 69 2 105H25l-1-265h48c2 10 0 23 3 31 11-24 29-35 60-35zM114-30c33 0 39-31 40-66 0-38-9-64-40-64-56 0-55 130 0 130" id="aM"/><path fill="#333" d="M115-3C79 11 28 4 28-45v-112H4v-33h27l15-45h31v45h36v33H77v99c-1 23 16 31 38 25v30" id="aN"/><path fill="#333" d="M25-224v-37h50v37H25zM25 0v-190h50V0H25" id="aO"/><path fill="#333" d="M220-157c-53 9-28 100-34 157h-49v-107c1-27-5-49-29-50C55-147 81-57 75 0H25l-1-190h47c2 12-1 28 3 38 10-53 101-56 108 0 13-22 24-43 59-42 82 1 51 116 57 194h-49v-107c-1-25-5-48-29-50" id="aP"/><path fill="#333" d="M137-138c1-29-70-34-71-4 15 46 118 7 119 86 1 83-164 76-172 9l43-7c4 19 20 25 44 25 33 8 57-30 24-41C81-84 22-81 20-136c-2-80 154-74 161-7" id="aQ"/><path fill="#333" d="M102-93c0 74-22 123-52 168H0C30 29 54-18 53-93c0-74-22-123-53-168h50c30 45 52 94 52 168" id="aR"/><g id="l"><use transform="matrix(0.09259259259259256,0,0,0.09259259259259256,0,0)" xlink:href="#aK"/><use transform="matrix(0.09259259259259256,0,0,0.09259259259259256,11.018518518518515,0)" xlink:href="#aL"/><use transform="matrix(0.09259259259259256,0,0,0.09259259259259256,36.94444444444443,0)" xlink:href="#aM"/><use transform="matrix(0.09259259259259256,0,0,0.09259259259259256,57.2222222222222,0)" xlink:href="#aN"/><use transform="matrix(0.09259259259259256,0,0,0.09259259259259256,68.24074074074072,0)" xlink:href="#aO"/><use transform="matrix(0.09259259259259256,0,0,0.09259259259259256,77.49999999999997,0)" xlink:href="#aP"/><use transform="matrix(0.09259259259259256,0,0,0.09259259259259256,107.12962962962959,0)" xlink:href="#aO"/><use transform="matrix(0.09259259259259256,0,0,0.09259259259259256,116.38888888888884,0)" xlink:href="#aQ"/><use transform="matrix(0.09259259259259256,0,0,0.09259259259259256,134.90740740740736,0)" xlink:href="#aP"/><use transform="matrix(0.09259259259259256,0,0,0.09259259259259256,164.53703703703698,0)" xlink:href="#aR"/></g><path fill="#333" d="M135-150c-39-12-60 13-60 57V0H25l-1-190h47c2 13-1 29 3 40 6-28 27-53 61-41v41" id="aS"/><path fill="#333" d="M133-34C117-15 103 5 69 4 32 3 11-16 11-54c-1-60 55-63 116-61 1-26-3-47-28-47-18 1-26 9-28 27l-52-2c7-38 36-58 82-57s74 22 75 68l1 82c-1 14 12 18 25 15v27c-30 8-71 5-69-32zm-48 3c29 0 43-24 42-57-32 0-66-3-65 30 0 17 8 27 23 27" id="aT"/><path fill="#333" d="M135-194c87-1 58 113 63 194h-50c-7-57 23-157-34-157-59 0-34 97-39 157H25l-1-190h47c2 12-1 28 3 38 12-26 28-41 61-42" id="aU"/><path fill="#333" d="M121-226c-27-7-43 5-38 36h38v33H83V0H34v-157H6v-33h28c-9-59 32-81 87-68v32" id="aV"/><path fill="#333" d="M185-48c-13 30-37 53-82 52C43 2 14-33 14-96s30-98 90-98c62 0 83 45 84 108H66c0 31 8 55 39 56 18 0 30-7 34-22zm-45-69c5-46-57-63-70-21-2 6-4 13-4 21h74" id="aW"/><path fill="#333" d="M76-208v77h127v40H76V0H24v-248h183v40H76" id="aX"/><path fill="#333" d="M110-194c64 0 96 36 96 99 0 64-35 99-97 99-61 0-95-36-95-99 0-62 34-99 96-99zm-1 164c35 0 45-28 45-65 0-40-10-65-43-65-34 0-45 26-45 65 0 36 10 65 43 65" id="aY"/><g id="m"><use transform="matrix(0.04938271604938272,0,0,0.04938271604938272,0,0)" xlink:href="#aN"/><use transform="matrix(0.04938271604938272,0,0,0.04938271604938272,5.8765432098765435,0)" xlink:href="#aS"/><use transform="matrix(0.04938271604938272,0,0,0.04938271604938272,12.790123456790125,0)" xlink:href="#aT"/><use transform="matrix(0.04938271604938272,0,0,0.04938271604938272,22.666666666666668,0)" xlink:href="#aU"/><use transform="matrix(0.04938271604938272,0,0,0.04938271604938272,33.48148148148148,0)" xlink:href="#aQ"/><use transform="matrix(0.04938271604938272,0,0,0.04938271604938272,43.358024691358025,0)" xlink:href="#aV"/><use transform="matrix(0.04938271604938272,0,0,0.04938271604938272,49.23456790123457,0)" xlink:href="#aW"/><use transform="matrix(0.04938271604938272,0,0,0.04938271604938272,59.111111111111114,0)" xlink:href="#aS"/><use transform="matrix(0.04938271604938272,0,0,0.04938271604938272,66.0246913580247,0)" xlink:href="#aX"/><use transform="matrix(0.04938271604938272,0,0,0.04938271604938272,76.8395061728395,0)" xlink:href="#aS"/><use transform="matrix(0.04938271604938272,0,0,0.04938271604938272,83.75308641975309,0)" xlink:href="#aY"/><use transform="matrix(0.04938271604938272,0,0,0.04938271604938272,94.5679012345679,0)" xlink:href="#aP"/><use transform="matrix(0.04938271604938272,0,0,0.04938271604938272,110.37037037037035,0)" xlink:href="#aK"/><use transform="matrix(0.04938271604938272,0,0,0.04938271604938272,116.2469135802469,0)" xlink:href="#aR"/></g><g id="n"><use transform="matrix(0.04938271604938272,0,0,0.04938271604938272,0,0)" xlink:href="#aP"/><use transform="matrix(0.04938271604938272,0,0,0.04938271604938272,15.80246913580247,0)" xlink:href="#aO"/><use transform="matrix(0.04938271604938272,0,0,0.04938271604938272,20.74074074074074,0)" xlink:href="#aU"/><use transform="matrix(0.04938271604938272,0,0,0.04938271604938272,31.555555555555557,0)" xlink:href="#aN"/></g><path fill="#333" d="M128 0H69L1-190h53L99-40l48-150h52" id="aZ"/><g id="o"><use transform="matrix(0.04938271604938272,0,0,0.04938271604938272,0,0)" xlink:href="#aZ"/><use transform="matrix(0.04938271604938272,0,0,0.04938271604938272,9.876543209876544,0)" xlink:href="#aO"/><use transform="matrix(0.04938271604938272,0,0,0.04938271604938272,14.814814814814817,0)" xlink:href="#aT"/></g><path fill="#333" d="M195-6C206 82 75 100 31 46c-4-6-6-13-8-21l49-6c3 16 16 24 34 25 40 0 42-37 40-79-11 22-30 35-61 35-53 0-70-43-70-97 0-56 18-96 73-97 30 0 46 14 59 34l2-30h47zm-90-29c32 0 41-27 41-63 0-35-9-62-40-62-32 0-39 29-40 63 0 36 9 62 39 62" id="ba"/><path fill="#333" d="M88-194c31-1 46 15 58 34l-1-101h50l1 261h-48c-2-10 0-23-3-31C134-8 116 4 84 4 32 4 16-41 15-95c0-56 19-97 73-99zm17 164c33 0 40-30 41-66 1-37-9-64-41-64s-38 30-39 65c0 43 13 65 39 65" id="bb"/><g id="p"><use transform="matrix(0.04938271604938272,0,0,0.04938271604938272,0,0)" xlink:href="#aQ"/><use transform="matrix(0.04938271604938272,0,0,0.04938271604938272,9.876543209876544,0)" xlink:href="#aO"/><use transform="matrix(0.04938271604938272,0,0,0.04938271604938272,14.814814814814817,0)" xlink:href="#ba"/><use transform="matrix(0.04938271604938272,0,0,0.04938271604938272,25.629629629629633,0)" xlink:href="#aU"/><use transform="matrix(0.04938271604938272,0,0,0.04938271604938272,36.44444444444445,0)" xlink:href="#aW"/><use transform="matrix(0.04938271604938272,0,0,0.04938271604938272,46.320987654320994,0)" xlink:href="#bb"/></g><g id="q"><use transform="matrix(0.04938271604938272,0,0,0.04938271604938272,0,0)" xlink:href="#aP"/><use transform="matrix(0.04938271604938272,0,0,0.04938271604938272,15.80246913580247,0)" xlink:href="#aQ"/><use transform="matrix(0.04938271604938272,0,0,0.04938271604938272,25.679012345679016,0)" xlink:href="#ba"/></g><g id="r"><use transform="matrix(0.04938271604938272,0,0,0.04938271604938272,0,0)" xlink:href="#aN"/><use transform="matrix(0.04938271604938272,0,0,0.04938271604938272,5.8765432098765435,0)" xlink:href="#aS"/><use transform="matrix(0.04938271604938272,0,0,0.04938271604938272,12.790123456790125,0)" xlink:href="#aT"/><use transform="matrix(0.04938271604938272,0,0,0.04938271604938272,22.666666666666668,0)" xlink:href="#aU"/><use transform="matrix(0.04938271604938272,0,0,0.04938271604938272,33.48148148148148,0)" xlink:href="#aQ"/><use transform="matrix(0.04938271604938272,0,0,0.04938271604938272,43.358024691358025,0)" xlink:href="#aV"/><use transform="matrix(0.04938271604938272,0,0,0.04938271604938272,49.23456790123457,0)" xlink:href="#aW"/><use transform="matrix(0.04938271604938272,0,0,0.04938271604938272,59.111111111111114,0)" xlink:href="#aS"/><use transform="matrix(0.04938271604938272,0,0,0.04938271604938272,66.0246913580247,0)" xlink:href="#aK"/><use transform="matrix(0.04938271604938272,0,0,0.04938271604938272,71.90123456790124,0)" xlink:href="#aR"/></g><path fill="#333" d="M25 0v-261h50V0H25" id="bc"/><path fill="#333" d="M190-63c-7 42-38 67-86 67-59 0-84-38-90-98-12-110 154-137 174-36l-49 2c-2-19-15-32-35-32-30 0-35 28-38 64-6 74 65 87 74 30" id="bd"/><path fill="#333" d="M76-54c-1 42 2 86-19 110H24C36 42 46 24 48 0H25v-54h51" id="be"/><path fill="#333" d="M85 4C-2 5 27-109 22-190h50c7 57-23 150 33 157 60-5 35-97 40-157h50l1 190h-47c-2-12 1-28-3-38-12 25-28 42-61 42" id="bf"/><g id="s"><use transform="matrix(0.04938271604938272,0,0,0.04938271604938272,0,0)" xlink:href="#aP"/><use transform="matrix(0.04938271604938272,0,0,0.04938271604938272,15.80246913580247,0)" xlink:href="#aO"/><use transform="matrix(0.04938271604938272,0,0,0.04938271604938272,20.74074074074074,0)" xlink:href="#aU"/><use transform="matrix(0.04938271604938272,0,0,0.04938271604938272,31.555555555555557,0)" xlink:href="#aN"/><use transform="matrix(0.04938271604938272,0,0,0.04938271604938272,37.4320987654321,0)" xlink:href="#aK"/><use transform="matrix(0.04938271604938272,0,0,0.04938271604938272,43.308641975308646,0)" xlink:href="#aT"/><use transform="matrix(0.04938271604938272,0,0,0.04938271604938272,53.18518518518519,0)" xlink:href="#bc"/><use transform="matrix(0.04938271604938272,0,0,0.04938271604938272,58.12345679012346,0)" xlink:href="#aO"/><use transform="matrix(0.04938271604938272,0,0,0.04938271604938272,63.061728395061735,0)" xlink:href="#bd"/><use transform="matrix(0.04938271604938272,0,0,0.04938271604938272,72.93827160493828,0)" xlink:href="#aW"/><use transform="matrix(0.04938271604938272,0,0,0.04938271604938272,82.81481481481482,0)" xlink:href="#be"/><use transform="matrix(0.04938271604938272,0,0,0.04938271604938272,87.75308641975309,0)" xlink:href="#aT"/><use transform="matrix(0.04938271604938272,0,0,0.04938271604938272,97.62962962962963,0)" xlink:href="#aP"/><use transform="matrix(0.04938271604938272,0,0,0.04938271604938272,113.4320987654321,0)" xlink:href="#aY"/><use transform="matrix(0.04938271604938272,0,0,0.04938271604938272,124.2469135802469,0)" xlink:href="#bf"/><use transform="matrix(0.04938271604938272,0,0,0.04938271604938272,135.06172839506172,0)" xlink:href="#aU"/><use transform="matrix(0.04938271604938272,0,0,0.04938271604938272,145.87654320987653,0)" xlink:href="#aN"/><use transform="matrix(0.04938271604938272,0,0,0.04938271604938272,151.75308641975306,0)" xlink:href="#aR"/></g><path fill="#333" d="M123 10C108 53 80 86 19 72V37c35 8 53-11 59-39L3-190h52l48 148c12-52 28-100 44-148h51" id="bg"/><path fill="#333" d="M24-248c93 1 206-16 204 79-1 75-69 88-152 82V0H24v-248zm52 121c47 0 100 7 100-41 0-47-54-39-100-39v80" id="bh"/><g id="u"><use transform="matrix(0.04938271604938272,0,0,0.04938271604938272,0,0)" xlink:href="#aY"/><use transform="matrix(0.04938271604938272,0,0,0.04938271604938272,10.814814814814815,0)" xlink:href="#aU"/><use transform="matrix(0.04938271604938272,0,0,0.04938271604938272,21.62962962962963,0)" xlink:href="#bc"/><use transform="matrix(0.04938271604938272,0,0,0.04938271604938272,26.567901234567902,0)" xlink:href="#bg"/><use transform="matrix(0.04938271604938272,0,0,0.04938271604938272,36.44444444444444,0)" xlink:href="#bh"/><use transform="matrix(0.04938271604938272,0,0,0.04938271604938272,48.2962962962963,0)" xlink:href="#aT"/><use transform="matrix(0.04938271604938272,0,0,0.04938271604938272,58.17283950617284,0)" xlink:href="#aS"/><use transform="matrix(0.04938271604938272,0,0,0.04938271604938272,65.08641975308642,0)" xlink:href="#aN"/><use transform="matrix(0.04938271604938272,0,0,0.04938271604938272,70.96296296296296,0)" xlink:href="#aU"/><use transform="matrix(0.04938271604938272,0,0,0.04938271604938272,81.77777777777777,0)" xlink:href="#aW"/><use transform="matrix(0.04938271604938272,0,0,0.04938271604938272,91.65432098765432,0)" xlink:href="#aS"/></g><path fill="#333" d="M135-194c52 0 70 43 70 98 0 56-19 99-73 100-30 1-46-15-58-35L72 0H24l1-261h50v104c11-23 29-37 60-37zM114-30c31 0 40-27 40-66 0-37-7-63-39-63s-41 28-41 65c0 36 8 64 40 64" id="bi"/><g id="v"><use transform="matrix(0.04938271604938272,0,0,0.04938271604938272,0,0)" xlink:href="#bi"/><use transform="matrix(0.04938271604938272,0,0,0.04938271604938272,10.814814814814815,0)" xlink:href="#bf"/><use transform="matrix(0.04938271604938272,0,0,0.04938271604938272,21.62962962962963,0)" xlink:href="#aS"/><use transform="matrix(0.04938271604938272,0,0,0.04938271604938272,28.543209876543205,0)" xlink:href="#aU"/><use transform="matrix(0.04938271604938272,0,0,0.04938271604938272,39.358024691358025,0)" xlink:href="#aK"/><use transform="matrix(0.04938271604938272,0,0,0.04938271604938272,45.23456790123457,0)" xlink:href="#aR"/></g><g id="w"><use transform="matrix(0.04938271604938272,0,0,0.04938271604938272,0,0)" xlink:href="#aY"/><use transform="matrix(0.04938271604938272,0,0,0.04938271604938272,10.814814814814815,0)" xlink:href="#aU"/><use transform="matrix(0.04938271604938272,0,0,0.04938271604938272,21.62962962962963,0)" xlink:href="#bc"/><use transform="matrix(0.04938271604938272,0,0,0.04938271604938272,26.567901234567902,0)" xlink:href="#bg"/><use transform="matrix(0.04938271604938272,0,0,0.04938271604938272,36.44444444444444,0)" xlink:href="#bh"/><use transform="matrix(0.04938271604938272,0,0,0.04938271604938272,48.2962962962963,0)" xlink:href="#aT"/><use transform="matrix(0.04938271604938272,0,0,0.04938271604938272,58.17283950617284,0)" xlink:href="#aS"/><use transform="matrix(0.04938271604938272,0,0,0.04938271604938272,65.08641975308642,0)" xlink:href="#aN"/><use transform="matrix(0.04938271604938272,0,0,0.04938271604938272,70.96296296296296,0)" xlink:href="#aU"/><use transform="matrix(0.04938271604938272,0,0,0.04938271604938272,81.77777777777777,0)" xlink:href="#aW"/><use transform="matrix(0.04938271604938272,0,0,0.04938271604938272,91.65432098765432,0)" xlink:href="#aS"/></g><g id="x"><use transform="matrix(0.06172839506172839,0,0,0.06172839506172839,0,0)" xlink:href="#bb"/><use transform="matrix(0.06172839506172839,0,0,0.06172839506172839,13.518518518518517,0)" xlink:href="#aW"/><use transform="matrix(0.06172839506172839,0,0,0.06172839506172839,25.864197530864196,0)" xlink:href="#aM"/><use transform="matrix(0.06172839506172839,0,0,0.06172839506172839,39.382716049382715,0)" xlink:href="#aY"/><use transform="matrix(0.06172839506172839,0,0,0.06172839506172839,52.901234567901234,0)" xlink:href="#aQ"/><use transform="matrix(0.06172839506172839,0,0,0.06172839506172839,65.24691358024691,0)" xlink:href="#aO"/><use transform="matrix(0.06172839506172839,0,0,0.06172839506172839,71.41975308641975,0)" xlink:href="#aN"/><use transform="matrix(0.06172839506172839,0,0,0.06172839506172839,78.76543209876543,0)" xlink:href="#aK"/></g><g id="y"><use transform="matrix(0.06172839506172839,0,0,0.06172839506172839,0,0)" xlink:href="#aT"/><use transform="matrix(0.06172839506172839,0,0,0.06172839506172839,12.345679012345679,0)" xlink:href="#bc"/><use transform="matrix(0.06172839506172839,0,0,0.06172839506172839,18.51851851851852,0)" xlink:href="#aO"/><use transform="matrix(0.06172839506172839,0,0,0.06172839506172839,24.691358024691358,0)" xlink:href="#bd"/><use transform="matrix(0.06172839506172839,0,0,0.06172839506172839,37.03703703703704,0)" xlink:href="#aW"/><use transform="matrix(0.06172839506172839,0,0,0.06172839506172839,49.382716049382715,0)" xlink:href="#be"/></g><g id="z"><use transform="matrix(0.06172839506172839,0,0,0.06172839506172839,0,0)" xlink:href="#aT"/><use transform="matrix(0.06172839506172839,0,0,0.06172839506172839,12.345679012345679,0)" xlink:href="#aP"/><use transform="matrix(0.06172839506172839,0,0,0.06172839506172839,32.098765432098766,0)" xlink:href="#aY"/><use transform="matrix(0.06172839506172839,0,0,0.06172839506172839,45.617283950617285,0)" xlink:href="#bf"/><use transform="matrix(0.06172839506172839,0,0,0.06172839506172839,59.135802469135804,0)" xlink:href="#aU"/><use transform="matrix(0.06172839506172839,0,0,0.06172839506172839,72.65432098765432,0)" xlink:href="#aN"/><use transform="matrix(0.06172839506172839,0,0,0.06172839506172839,80,0)" xlink:href="#aR"/></g><path fill="#333" d="M231 0h-52l-39-155L100 0H48L-1-190h46L77-45c9-52 24-97 36-145h53l37 145 32-145h46" id="bj"/><path fill="#333" d="M114-157C55-157 80-60 75 0H25v-261h50l-1 109c12-26 28-41 61-42 86-1 58 113 63 194h-50c-7-57 23-157-34-157" id="bk"/><g id="A"><use transform="matrix(0.06172839506172839,0,0,0.06172839506172839,0,0)" xlink:href="#bj"/><use transform="matrix(0.06172839506172839,0,0,0.06172839506172839,17.28395061728395,0)" xlink:href="#aO"/><use transform="matrix(0.06172839506172839,0,0,0.06172839506172839,23.456790123456788,0)" xlink:href="#aN"/><use transform="matrix(0.06172839506172839,0,0,0.06172839506172839,30.80246913580247,0)" xlink:href="#bk"/><use transform="matrix(0.06172839506172839,0,0,0.06172839506172839,44.32098765432099,0)" xlink:href="#bb"/><use transform="matrix(0.06172839506172839,0,0,0.06172839506172839,57.839506172839506,0)" xlink:href="#aS"/><use transform="matrix(0.06172839506172839,0,0,0.06172839506172839,66.48148148148148,0)" xlink:href="#aT"/><use transform="matrix(0.06172839506172839,0,0,0.06172839506172839,78.82716049382717,0)" xlink:href="#bj"/><use transform="matrix(0.06172839506172839,0,0,0.06172839506172839,96.11111111111111,0)" xlink:href="#aK"/><use transform="matrix(0.06172839506172839,0,0,0.06172839506172839,103.4567901234568,0)" xlink:href="#aR"/></g><g id="B"><use transform="matrix(0.10493827160493824,0,0,0.10493827160493824,0,0)" xlink:href="#aT"/><use transform="matrix(0.10493827160493824,0,0,0.10493827160493824,20.987654320987648,0)" xlink:href="#bb"/><use transform="matrix(0.10493827160493824,0,0,0.10493827160493824,43.969135802469125,0)" xlink:href="#bb"/><use transform="matrix(0.10493827160493824,0,0,0.10493827160493824,66.9506172839506,0)" xlink:href="#aS"/><use transform="matrix(0.10493827160493824,0,0,0.10493827160493824,81.64197530864196,0)" xlink:href="#aW"/><use transform="matrix(0.10493827160493824,0,0,0.10493827160493824,102.6296296296296,0)" xlink:href="#aQ"/><use transform="matrix(0.10493827160493824,0,0,0.10493827160493824,123.61728395061725,0)" xlink:href="#aQ"/></g><g id="C"><use transform="matrix(0.10493827160493824,0,0,0.10493827160493824,0,0)" xlink:href="#bb"/><use transform="matrix(0.10493827160493824,0,0,0.10493827160493824,22.981481481481474,0)" xlink:href="#aW"/><use transform="matrix(0.10493827160493824,0,0,0.10493827160493824,43.969135802469125,0)" xlink:href="#aM"/><use transform="matrix(0.10493827160493824,0,0,0.10493827160493824,66.9506172839506,0)" xlink:href="#aY"/><use transform="matrix(0.10493827160493824,0,0,0.10493827160493824,89.93209876543207,0)" xlink:href="#aQ"/><use transform="matrix(0.10493827160493824,0,0,0.10493827160493824,110.91975308641972,0)" xlink:href="#aO"/><use transform="matrix(0.10493827160493824,0,0,0.10493827160493824,121.41358024691354,0)" xlink:href="#aN"/><use transform="matrix(0.10493827160493824,0,0,0.10493827160493824,133.90123456790118,0)" xlink:href="#aQ"/></g><g id="D"><use transform="matrix(0.10493827160493824,0,0,0.10493827160493824,0,0)" xlink:href="#aY"/><use transform="matrix(0.10493827160493824,0,0,0.10493827160493824,22.981481481481474,0)" xlink:href="#aS"/></g><g id="E"><use transform="matrix(0.10493827160493824,0,0,0.10493827160493824,0,0)" xlink:href="#bj"/><use transform="matrix(0.10493827160493824,0,0,0.10493827160493824,29.382716049382708,0)" xlink:href="#aO"/><use transform="matrix(0.10493827160493824,0,0,0.10493827160493824,39.87654320987653,0)" xlink:href="#aN"/><use transform="matrix(0.10493827160493824,0,0,0.10493827160493824,52.36419753086418,0)" xlink:href="#bk"/><use transform="matrix(0.10493827160493824,0,0,0.10493827160493824,75.34567901234566,0)" xlink:href="#bb"/><use transform="matrix(0.10493827160493824,0,0,0.10493827160493824,98.32716049382714,0)" xlink:href="#aS"/><use transform="matrix(0.10493827160493824,0,0,0.10493827160493824,113.01851851851848,0)" xlink:href="#aT"/><use transform="matrix(0.10493827160493824,0,0,0.10493827160493824,134.00617283950615,0)" xlink:href="#bj"/><use transform="matrix(0.10493827160493824,0,0,0.10493827160493824,163.38888888888886,0)" xlink:href="#aQ"/></g><path fill="#333" d="M147 0L96-86 75-71V0H25v-261h50v150l67-79h53l-66 74L201 0h-54" id="bl"/><g id="F"><use transform="matrix(0.10493827160493824,0,0,0.10493827160493824,0,0)" xlink:href="#aN"/><use transform="matrix(0.10493827160493824,0,0,0.10493827160493824,12.48765432098765,0)" xlink:href="#aY"/><use transform="matrix(0.10493827160493824,0,0,0.10493827160493824,35.469135802469125,0)" xlink:href="#bl"/><use transform="matrix(0.10493827160493824,0,0,0.10493827160493824,56.45679012345677,0)" xlink:href="#aW"/><use transform="matrix(0.10493827160493824,0,0,0.10493827160493824,77.44444444444441,0)" xlink:href="#aU"/><use transform="matrix(0.10493827160493824,0,0,0.10493827160493824,100.4259259259259,0)" xlink:href="#aQ"/></g><g id="G"><use transform="matrix(0.10493827160493824,0,0,0.10493827160493824,0,0)" xlink:href="#bi"/><use transform="matrix(0.10493827160493824,0,0,0.10493827160493824,22.981481481481474,0)" xlink:href="#aW"/><use transform="matrix(0.10493827160493824,0,0,0.10493827160493824,43.969135802469125,0)" xlink:href="#aN"/><use transform="matrix(0.10493827160493824,0,0,0.10493827160493824,56.45679012345677,0)" xlink:href="#bj"/><use transform="matrix(0.10493827160493824,0,0,0.10493827160493824,85.83950617283949,0)" xlink:href="#aW"/><use transform="matrix(0.10493827160493824,0,0,0.10493827160493824,106.82716049382714,0)" xlink:href="#aW"/><use transform="matrix(0.10493827160493824,0,0,0.10493827160493824,127.81481481481477,0)" xlink:href="#aU"/></g><g id="H"><use transform="matrix(0.10493827160493824,0,0,0.10493827160493824,0,0)" xlink:href="#aH"/><use transform="matrix(0.10493827160493824,0,0,0.10493827160493824,22.981481481481474,0)" xlink:href="#aI"/></g><g id="I"><use transform="matrix(0.10493827160493824,0,0,0.10493827160493824,0,0)" xlink:href="#aT"/><use transform="matrix(0.10493827160493824,0,0,0.10493827160493824,20.987654320987648,0)" xlink:href="#aU"/><use transform="matrix(0.10493827160493824,0,0,0.10493827160493824,43.969135802469125,0)" xlink:href="#bb"/></g><g id="J"><use transform="matrix(0.10493827160493824,0,0,0.10493827160493824,0,0)" xlink:href="#aH"/><use transform="matrix(0.10493827160493824,0,0,0.10493827160493824,22.981481481481474,0)" xlink:href="#aJ"/></g><g id="K"><use transform="matrix(0.06172839506172839,0,0,0.06172839506172839,0,0)" xlink:href="#an"/><use transform="matrix(0.06172839506172839,0,0,0.06172839506172839,17.28395061728395,0)" xlink:href="#ao"/><use transform="matrix(0.06172839506172839,0,0,0.06172839506172839,32.09876543209876,0)" xlink:href="#ap"/></g><g id="L"><use transform="matrix(0.06172839506172839,0,0,0.06172839506172839,0,0)" xlink:href="#ax"/><use transform="matrix(0.06172839506172839,0,0,0.06172839506172839,11.11111111111111,0)" xlink:href="#aj"/><use transform="matrix(0.06172839506172839,0,0,0.06172839506172839,23.45679012345679,0)" xlink:href="#am"/><use transform="matrix(0.06172839506172839,0,0,0.06172839506172839,35.80246913580247,0)" xlink:href="#av"/><use transform="matrix(0.06172839506172839,0,0,0.06172839506172839,41.97530864197531,0)" xlink:href="#ar"/><use transform="matrix(0.06172839506172839,0,0,0.06172839506172839,49.32098765432099,0)" xlink:href="#aw"/><use transform="matrix(0.06172839506172839,0,0,0.06172839506172839,61.666666666666664,0)" xlink:href="#ax"/><use transform="matrix(0.06172839506172839,0,0,0.06172839506172839,72.77777777777777,0)" xlink:href="#av"/><use transform="matrix(0.06172839506172839,0,0,0.06172839506172839,78.9506172839506,0)" xlink:href="#aA"/></g><path fill="#333" d="M230 0l2-204L168 0h-37L68-204 70 0H24v-248h70l56 185 57-185h69V0h-46" id="bm"/><g id="M"><use transform="matrix(0.10493827160493824,0,0,0.10493827160493824,0,0)" xlink:href="#bm"/><use transform="matrix(0.10493827160493824,0,0,0.10493827160493824,31.376543209876534,0)" xlink:href="#bf"/><use transform="matrix(0.10493827160493824,0,0,0.10493827160493824,54.358024691358004,0)" xlink:href="#bc"/><use transform="matrix(0.10493827160493824,0,0,0.10493827160493824,64.85185185185183,0)" xlink:href="#aN"/><use transform="matrix(0.10493827160493824,0,0,0.10493827160493824,77.33950617283948,0)" xlink:href="#aO"/><use transform="matrix(0.10493827160493824,0,0,0.10493827160493824,87.8333333333333,0)" xlink:href="#aM"/><use transform="matrix(0.10493827160493824,0,0,0.10493827160493824,110.81481481481478,0)" xlink:href="#bc"/><use transform="matrix(0.10493827160493824,0,0,0.10493827160493824,121.3086419753086,0)" xlink:href="#aW"/></g><g id="N"><use transform="matrix(0.10493827160493824,0,0,0.10493827160493824,0,0)" xlink:href="#aH"/><use transform="matrix(0.10493827160493824,0,0,0.10493827160493824,22.981481481481474,0)" xlink:href="#aJ"/></g><g id="O"><use transform="matrix(0.10493827160493824,0,0,0.10493827160493824,0,0)" xlink:href="#aN"/><use transform="matrix(0.10493827160493824,0,0,0.10493827160493824,12.48765432098765,0)" xlink:href="#aS"/><use transform="matrix(0.10493827160493824,0,0,0.10493827160493824,27.179012345679002,0)" xlink:href="#aT"/><use transform="matrix(0.10493827160493824,0,0,0.10493827160493824,48.16666666666666,0)" xlink:href="#aU"/><use transform="matrix(0.10493827160493824,0,0,0.10493827160493824,71.14814814814812,0)" xlink:href="#aQ"/><use transform="matrix(0.10493827160493824,0,0,0.10493827160493824,92.13580246913577,0)" xlink:href="#aV"/><use transform="matrix(0.10493827160493824,0,0,0.10493827160493824,104.62345679012341,0)" xlink:href="#aW"/><use transform="matrix(0.10493827160493824,0,0,0.10493827160493824,125.61111111111104,0)" xlink:href="#aS"/><use transform="matrix(0.10493827160493824,0,0,0.10493827160493824,140.30246913580243,0)" xlink:href="#aQ"/></g><path fill="#333" d="M106-169C34-169 62-67 57 0H25v-261h32l-1 103c12-21 28-36 61-36 89 0 53 116 60 194h-32v-121c2-32-8-49-39-48" id="bn"/><g id="P"><use transform="matrix(0.06172839506172839,0,0,0.06172839506172839,0,0)" xlink:href="#au"/><use transform="matrix(0.06172839506172839,0,0,0.06172839506172839,12.345679012345679,0)" xlink:href="#al"/><use transform="matrix(0.06172839506172839,0,0,0.06172839506172839,24.691358024691358,0)" xlink:href="#av"/><use transform="matrix(0.06172839506172839,0,0,0.06172839506172839,30.864197530864196,0)" xlink:href="#bn"/></g><g id="Q"><use transform="matrix(0.06172839506172839,0,0,0.06172839506172839,0,0)" xlink:href="#au"/><use transform="matrix(0.06172839506172839,0,0,0.06172839506172839,12.345679012345679,0)" xlink:href="#al"/><use transform="matrix(0.06172839506172839,0,0,0.06172839506172839,24.691358024691358,0)" xlink:href="#av"/><use transform="matrix(0.06172839506172839,0,0,0.06172839506172839,30.864197530864196,0)" xlink:href="#bn"/></g><path fill="#333" d="M87 75C49 33 22-17 22-94c0-76 28-126 65-167h31c-38 41-64 92-64 168S80 34 118 75H87" id="bo"/><path fill="#333" d="M210-169c-67 3-38 105-44 169h-31v-121c0-29-5-50-35-48C34-165 62-65 56 0H25l-1-190h30c1 10-1 24 2 32 10-44 99-50 107 0 11-21 27-35 58-36 85-2 47 119 55 194h-31v-121c0-29-5-49-35-48" id="bp"/><path fill="#333" d="M101-234c-31-9-42 10-38 44h38v23H63V0H32v-167H5v-23h27c-7-52 17-82 69-68v24" id="bq"/><path fill="#333" d="M33-261c38 41 65 92 65 168S71 34 33 75H2C39 34 66-17 66-93S39-220 2-261h31" id="br"/><g id="R"><use transform="matrix(0.06172839506172839,0,0,0.06172839506172839,0,0)" xlink:href="#bo"/><use transform="matrix(0.06172839506172839,0,0,0.06172839506172839,7.345679012345679,0)" xlink:href="#bp"/><use transform="matrix(0.06172839506172839,0,0,0.06172839506172839,25.80246913580247,0)" xlink:href="#aj"/><use transform="matrix(0.06172839506172839,0,0,0.06172839506172839,38.148148148148145,0)" xlink:href="#at"/><use transform="matrix(0.06172839506172839,0,0,0.06172839506172839,50.49382716049382,0)" xlink:href="#as"/><use transform="matrix(0.06172839506172839,0,0,0.06172839506172839,55.37037037037037,0)" xlink:href="#bq"/><use transform="matrix(0.06172839506172839,0,0,0.06172839506172839,61.54320987654321,0)" xlink:href="#as"/><use transform="matrix(0.06172839506172839,0,0,0.06172839506172839,66.41975308641975,0)" xlink:href="#al"/><use transform="matrix(0.06172839506172839,0,0,0.06172839506172839,78.76543209876543,0)" xlink:href="#at"/><use transform="matrix(0.06172839506172839,0,0,0.06172839506172839,91.11111111111111,0)" xlink:href="#br"/></g><g id="S"><use transform="matrix(0.06172839506172839,0,0,0.06172839506172839,0,0)" xlink:href="#ap"/><use transform="matrix(0.06172839506172839,0,0,0.06172839506172839,18.456790123456788,0)" xlink:href="#aD"/><use transform="matrix(0.06172839506172839,0,0,0.06172839506172839,30.80246913580247,0)" xlink:href="#aC"/><use transform="matrix(0.06172839506172839,0,0,0.06172839506172839,35.67901234567901,0)" xlink:href="#av"/><use transform="matrix(0.06172839506172839,0,0,0.06172839506172839,41.851851851851855,0)" xlink:href="#as"/><use transform="matrix(0.06172839506172839,0,0,0.06172839506172839,46.7283950617284,0)" xlink:href="#az"/><use transform="matrix(0.06172839506172839,0,0,0.06172839506172839,59.074074074074076,0)" xlink:href="#aC"/><use transform="matrix(0.06172839506172839,0,0,0.06172839506172839,63.95061728395061,0)" xlink:href="#al"/></g><g id="T"><use transform="matrix(0.06172839506172839,0,0,0.06172839506172839,0,0)" xlink:href="#aw"/><use transform="matrix(0.06172839506172839,0,0,0.06172839506172839,12.345679012345679,0)" xlink:href="#at"/><use transform="matrix(0.06172839506172839,0,0,0.06172839506172839,24.691358024691358,0)" xlink:href="#at"/><use transform="matrix(0.06172839506172839,0,0,0.06172839506172839,37.03703703703704,0)" xlink:href="#ar"/><use transform="matrix(0.06172839506172839,0,0,0.06172839506172839,44.382716049382715,0)" xlink:href="#al"/><use transform="matrix(0.06172839506172839,0,0,0.06172839506172839,56.72839506172839,0)" xlink:href="#aA"/><use transform="matrix(0.06172839506172839,0,0,0.06172839506172839,67.8395061728395,0)" xlink:href="#aA"/><use transform="matrix(0.06172839506172839,0,0,0.06172839506172839,78.95061728395062,0)" xlink:href="#al"/><use transform="matrix(0.06172839506172839,0,0,0.06172839506172839,91.2962962962963,0)" xlink:href="#aA"/></g><use transform="matrix(0.04938271604938272,0,0,0.04938271604938272,0,0)" xlink:href="#aU" id="U"/><path fill="#333" d="M144 0l-44-69L55 0H2l70-98-66-92h53l41 62 40-62h54l-67 91 71 99h-54" id="bs"/><use transform="matrix(0.04938271604938272,0,0,0.04938271604938272,0,0)" xlink:href="#bs" id="V"/><g id="W"><use transform="matrix(0.04938271604938272,0,0,0.04938271604938272,0,0)" xlink:href="#aN"/><use transform="matrix(0.04938271604938272,0,0,0.04938271604938272,5.8765432098765435,0)" xlink:href="#aS"/><use transform="matrix(0.04938271604938272,0,0,0.04938271604938272,12.790123456790125,0)" xlink:href="#aT"/><use transform="matrix(0.04938271604938272,0,0,0.04938271604938272,22.666666666666668,0)" xlink:href="#aU"/><use transform="matrix(0.04938271604938272,0,0,0.04938271604938272,33.48148148148148,0)" xlink:href="#aQ"/><use transform="matrix(0.04938271604938272,0,0,0.04938271604938272,43.358024691358025,0)" xlink:href="#aV"/><use transform="matrix(0.04938271604938272,0,0,0.04938271604938272,49.23456790123457,0)" xlink:href="#aW"/><use transform="matrix(0.04938271604938272,0,0,0.04938271604938272,59.111111111111114,0)" xlink:href="#aS"/><use transform="matrix(0.04938271604938272,0,0,0.04938271604938272,66.0246913580247,0)" xlink:href="#aK"/><use transform="matrix(0.04938271604938272,0,0,0.04938271604938272,71.90123456790124,0)" xlink:href="#aR"/></g><path fill="#c92d39" d="M230 0l2-204L168 0h-37L68-204 70 0H24v-248h70l56 185 57-185h69V0h-46" id="bt"/><path fill="#c92d39" d="M238-95c0 69-44 99-111 99C63 4 22-25 22-93v-155h51v151c-1 38 19 59 55 60 90 1 49-130 58-211h52v153" id="bu"/><path fill="#c92d39" d="M24 0v-248h52v208h133V0H24" id="bv"/><path fill="#c92d39" d="M136-208V0H84v-208H4v-40h212v40h-80" id="bw"/><path fill="#c92d39" d="M24 0v-248h52V0H24" id="bx"/><path fill="#c92d39" d="M24-248c93 1 206-16 204 79-1 75-69 88-152 82V0H24v-248zm52 121c47 0 100 7 100-41 0-47-54-39-100-39v80" id="by"/><path fill="#c92d39" d="M24 0v-248h195v40H76v63h132v40H76v65h150V0H24" id="bz"/><g id="X"><use transform="matrix(0.07407407407407407,0,0,0.07407407407407407,0,0)" xlink:href="#bt"/><use transform="matrix(0.07407407407407407,0,0,0.07407407407407407,22.148148148148145,0)" xlink:href="#bu"/><use transform="matrix(0.07407407407407407,0,0,0.07407407407407407,41.33333333333333,0)" xlink:href="#bv"/><use transform="matrix(0.07407407407407407,0,0,0.07407407407407407,55.55555555555555,0)" xlink:href="#bw"/><use transform="matrix(0.07407407407407407,0,0,0.07407407407407407,71.77777777777777,0)" xlink:href="#bx"/><use transform="matrix(0.07407407407407407,0,0,0.07407407407407407,79.18518518518518,0)" xlink:href="#by"/><use transform="matrix(0.07407407407407407,0,0,0.07407407407407407,96.96296296296296,0)" xlink:href="#bv"/><use transform="matrix(0.07407407407407407,0,0,0.07407407407407407,113.18518518518519,0)" xlink:href="#bz"/></g><path fill="#c92d39" d="M169-182c-1-43-94-46-97-3 18 66 151 10 154 114 3 95-165 93-204 36-6-8-10-19-12-30l50-8c3 46 112 56 116 5-17-69-150-10-154-114-4-87 153-88 188-35 5 8 8 18 10 28" id="bA"/><path fill="#c92d39" d="M67-125c0 54 23 88 75 88 28 0 53-7 68-21v-34h-60v-39h108v91C232-14 192 4 140 4 58 4 20-42 15-125 8-236 126-280 215-234c19 10 29 26 37 47l-47 15c-11-23-29-39-63-39-53 1-75 33-75 86" id="bB"/><path fill="#c92d39" d="M175 0L67-191c6 58 2 128 3 191H24v-248h59L193-55c-6-58-2-129-3-193h46V0h-61" id="bC"/><path fill="#c92d39" d="M199 0l-22-63H83L61 0H9l90-248h61L250 0h-51zm-33-102l-36-108c-10 38-24 72-36 108h72" id="bD"/><path fill="#c92d39" d="M240-174c0 40-23 61-54 70L253 0h-59l-57-94H76V0H24v-248c93 4 217-23 216 74zM76-134c48-2 112 12 112-38 0-48-66-32-112-35v73" id="bE"/><g id="Z"><use transform="matrix(0.07407407407407407,0,0,0.07407407407407407,0,0)" xlink:href="#bA"/><use transform="matrix(0.07407407407407407,0,0,0.07407407407407407,17.77777777777778,0)" xlink:href="#bx"/><use transform="matrix(0.07407407407407407,0,0,0.07407407407407407,25.185185185185183,0)" xlink:href="#bB"/><use transform="matrix(0.07407407407407407,0,0,0.07407407407407407,45.925925925925924,0)" xlink:href="#bC"/><use transform="matrix(0.07407407407407407,0,0,0.07407407407407407,65.11111111111111,0)" xlink:href="#bD"/><use transform="matrix(0.07407407407407407,0,0,0.07407407407407407,82.2962962962963,0)" xlink:href="#bw"/><use transform="matrix(0.07407407407407407,0,0,0.07407407407407407,98.51851851851853,0)" xlink:href="#bu"/><use transform="matrix(0.07407407407407407,0,0,0.07407407407407407,117.70370370370374,0)" xlink:href="#bE"/><use transform="matrix(0.07407407407407407,0,0,0.07407407407407407,136.8888888888889,0)" xlink:href="#bz"/><use transform="matrix(0.07407407407407407,0,0,0.07407407407407407,154.66666666666669,0)" xlink:href="#bA"/></g><g id="aa"><use transform="matrix(0.12345679012345674,0,0,0.12345679012345674,0,0)" xlink:href="#aL"/><use transform="matrix(0.12345679012345674,0,0,0.12345679012345674,34.567901234567884,0)" xlink:href="#aM"/><use transform="matrix(0.12345679012345674,0,0,0.12345679012345674,61.60493827160491,0)" xlink:href="#aN"/><use transform="matrix(0.12345679012345674,0,0,0.12345679012345674,76.29629629629626,0)" xlink:href="#aO"/><use transform="matrix(0.12345679012345674,0,0,0.12345679012345674,88.64197530864193,0)" xlink:href="#aP"/><use transform="matrix(0.12345679012345674,0,0,0.12345679012345674,128.1481481481481,0)" xlink:href="#aO"/><use transform="matrix(0.12345679012345674,0,0,0.12345679012345674,140.49382716049377,0)" xlink:href="#aQ"/><use transform="matrix(0.12345679012345674,0,0,0.12345679012345674,165.1851851851851,0)" xlink:href="#aN"/><use transform="matrix(0.12345679012345674,0,0,0.12345679012345674,179.87654320987644,0)" xlink:href="#aO"/><use transform="matrix(0.12345679012345674,0,0,0.12345679012345674,192.22222222222211,0)" xlink:href="#bd"/></g><path fill="#333" d="M240-174c0 40-23 61-54 70L253 0h-59l-57-94H76V0H24v-248c93 4 217-23 216 74zM76-134c48-2 112 12 112-38 0-48-66-32-112-35v73" id="bF"/><g id="ab"><use transform="matrix(0.12345679012345674,0,0,0.12345679012345674,0,0)" xlink:href="#bF"/><use transform="matrix(0.12345679012345674,0,0,0.12345679012345674,31.975308641975296,0)" xlink:href="#aY"/><use transform="matrix(0.12345679012345674,0,0,0.12345679012345674,59.01234567901233,0)" xlink:href="#bc"/><use transform="matrix(0.12345679012345674,0,0,0.12345679012345674,71.358024691358,0)" xlink:href="#bc"/><use transform="matrix(0.12345679012345674,0,0,0.12345679012345674,83.70370370370367,0)" xlink:href="#bf"/><use transform="matrix(0.12345679012345674,0,0,0.12345679012345674,110.74074074074069,0)" xlink:href="#aM"/><use transform="matrix(0.12345679012345674,0,0,0.12345679012345674,137.77777777777771,0)" xlink:href="#aQ"/></g><path fill="#333" d="M205 0l-28-72H64L36 0H1l101-248h38L239 0h-34zm-38-99l-47-123c-12 45-31 82-46 123h93" id="bG"/><g id="ac"><use transform="matrix(0.06172839506172839,0,0,0.06172839506172839,0,0)" xlink:href="#bG"/><use transform="matrix(0.06172839506172839,0,0,0.06172839506172839,14.814814814814813,0)" xlink:href="#aC"/><use transform="matrix(0.06172839506172839,0,0,0.06172839506172839,19.691358024691354,0)" xlink:href="#as"/><use transform="matrix(0.06172839506172839,0,0,0.06172839506172839,24.5679012345679,0)" xlink:href="#ax"/><use transform="matrix(0.06172839506172839,0,0,0.06172839506172839,35.67901234567901,0)" xlink:href="#al"/><use transform="matrix(0.06172839506172839,0,0,0.06172839506172839,48.02469135802469,0)" xlink:href="#bG"/><use transform="matrix(0.06172839506172839,0,0,0.06172839506172839,62.839506172839506,0)" xlink:href="#at"/><use transform="matrix(0.06172839506172839,0,0,0.06172839506172839,75.18518518518519,0)" xlink:href="#at"/><use transform="matrix(0.06172839506172839,0,0,0.06172839506172839,87.53086419753087,0)" xlink:href="#ar"/><use transform="matrix(0.06172839506172839,0,0,0.06172839506172839,94.87654320987656,0)" xlink:href="#al"/><use transform="matrix(0.06172839506172839,0,0,0.06172839506172839,107.22222222222224,0)" xlink:href="#aA"/><use transform="matrix(0.06172839506172839,0,0,0.06172839506172839,118.33333333333336,0)" xlink:href="#aA"/></g></defs></g></svg>