<svg width="27" height="26" viewBox="0 0 27 26" fill="none" xmlns="http://www.w3.org/2000/svg">
<path d="M26.2071 13.7072L14.2071 25.7072C14.0195 25.8946 13.7652 25.9999 13.5 25.9999C13.2348 25.9999 12.9804 25.8946 12.7928 25.7072L0.792826 13.7072C0.652994 13.5673 0.557773 13.3891 0.519203 13.1951C0.480632 13.0011 0.500444 12.8001 0.576132 12.6174C0.651821 12.4346 0.779988 12.2785 0.94443 12.1686C1.10887 12.0587 1.3022 12 1.49998 12H6.49998V5C6.49999 4.73479 6.60535 4.48044 6.79289 4.29291C6.98042 4.10537 7.23477 4.00001 7.49998 4H19.5C19.7652 4.00001 20.0195 4.10537 20.2071 4.29291C20.3946 4.48044 20.5 4.73479 20.5 5V12H25.5C25.6978 12 25.8911 12.0587 26.0555 12.1686C26.22 12.2785 26.3481 12.4346 26.4238 12.6174C26.4995 12.8001 26.5193 13.0011 26.4808 13.1951C26.4422 13.3891 26.347 13.5673 26.2071 13.7072ZM20.5 1C20.5 0.734787 20.3946 0.480441 20.2071 0.292908C20.0195 0.105374 19.7652 1.29282e-05 19.5 0H7.49998C7.23476 0 6.98041 0.105357 6.79287 0.292893C6.60534 0.48043 6.49998 0.734784 6.49998 1C6.49998 1.26522 6.60534 1.51957 6.79287 1.70711C6.98041 1.89464 7.23476 2 7.49998 2H19.5C19.7652 1.99999 20.0195 1.89463 20.2071 1.70709C20.3946 1.51956 20.5 1.26521 20.5 1Z" fill="#CCCCCC"/>
</svg>
